<?xml version="1.0" encoding="utf-8" standalone="no"?>
<!DOCTYPE svg PUBLIC "-//W3C//DTD SVG 1.1//EN"
  "http://www.w3.org/Graphics/SVG/1.1/DTD/svg11.dtd">
<svg xmlns:xlink="http://www.w3.org/1999/xlink" width="1000.318125pt" height="330.541644pt" viewBox="0 0 1000.318125 330.541644" xmlns="http://www.w3.org/2000/svg" version="1.1">
 <metadata>
  <rdf:RDF xmlns:dc="http://purl.org/dc/elements/1.1/" xmlns:cc="http://creativecommons.org/ns#" xmlns:rdf="http://www.w3.org/1999/02/22-rdf-syntax-ns#">
   <cc:Work>
    <dc:type rdf:resource="http://purl.org/dc/dcmitype/StillImage"/>
    <dc:date>2022-09-16T20:03:35.499201</dc:date>
    <dc:format>image/svg+xml</dc:format>
    <dc:creator>
     <cc:Agent>
      <dc:title>Matplotlib v3.5.2, https://matplotlib.org/</dc:title>
     </cc:Agent>
    </dc:creator>
   </cc:Work>
  </rdf:RDF>
 </metadata>
 <defs>
  <style type="text/css">*{stroke-linejoin: round; stroke-linecap: butt}</style>
 </defs>
 <g id="figure_1">
  <g id="axes_1">
   <g id="patch_1">
    <path d="M 38.058125 273.99006 
L 993.118125 273.99006 
L 993.118125 31.48286 
L 38.058125 31.48286 
z
" style="fill: #ffffff"/>
   </g>
   <g id="patch_2">
    <path d="M 38.058125 71.720129 
L 953.860548 71.720129 
L 953.860548 -448.402552 
L 38.058125 -448.402552 
z
" clip-path="url(#pf3076f685b)" style="fill: #c3e6c3"/>
   </g>
   <g id="patch_3">
    <path d="M 38.058125 129.511538 
L 953.860548 129.511538 
L 953.860548 71.720129 
L 38.058125 71.720129 
z
" clip-path="url(#pf3076f685b)" style="fill: #e6dcc3"/>
   </g>
   <g id="patch_4">
    <path d="M 38.058125 273.99006 
L 953.860548 273.99006 
L 953.860548 129.511538 
L 38.058125 129.511538 
z
" clip-path="url(#pf3076f685b)" style="fill: #e6c3c3"/>
   </g>
   <g id="matplotlib.axis_1">
    <g id="xtick_1">
     <g id="text_1">
      <!-- 0 -->
      <g transform="translate(74.770702 287.06881)scale(0.08 -0.08)">
       <defs>
        <path id="DejaVuSans-30" d="M 2034 4250 
Q 1547 4250 1301 3770 
Q 1056 3291 1056 2328 
Q 1056 1369 1301 889 
Q 1547 409 2034 409 
Q 2525 409 2770 889 
Q 3016 1369 3016 2328 
Q 3016 3291 2770 3770 
Q 2525 4250 2034 4250 
z
M 2034 4750 
Q 2819 4750 3233 4129 
Q 3647 3509 3647 2328 
Q 3647 1150 3233 529 
Q 2819 -91 2034 -91 
Q 1250 -91 836 529 
Q 422 1150 422 2328 
Q 422 3509 836 4129 
Q 1250 4750 2034 4750 
z
" transform="scale(0.015625)"/>
       </defs>
       <use xlink:href="#DejaVuSans-30"/>
      </g>
     </g>
    </g>
    <g id="xtick_2">
     <g id="text_2">
      <!-- 50 -->
      <g transform="translate(279.937751 287.06881)scale(0.08 -0.08)">
       <defs>
        <path id="DejaVuSans-35" d="M 691 4666 
L 3169 4666 
L 3169 4134 
L 1269 4134 
L 1269 2991 
Q 1406 3038 1543 3061 
Q 1681 3084 1819 3084 
Q 2600 3084 3056 2656 
Q 3513 2228 3513 1497 
Q 3513 744 3044 326 
Q 2575 -91 1722 -91 
Q 1428 -91 1123 -41 
Q 819 9 494 109 
L 494 744 
Q 775 591 1075 516 
Q 1375 441 1709 441 
Q 2250 441 2565 725 
Q 2881 1009 2881 1497 
Q 2881 1984 2565 2268 
Q 2250 2553 1709 2553 
Q 1456 2553 1204 2497 
Q 953 2441 691 2322 
L 691 4666 
z
" transform="scale(0.015625)"/>
       </defs>
       <use xlink:href="#DejaVuSans-35"/>
       <use xlink:href="#DejaVuSans-30" x="63.623047"/>
      </g>
     </g>
    </g>
    <g id="xtick_3">
     <g id="text_3">
      <!-- 100 -->
      <g transform="translate(485.1048 287.06881)scale(0.08 -0.08)">
       <defs>
        <path id="DejaVuSans-31" d="M 794 531 
L 1825 531 
L 1825 4091 
L 703 3866 
L 703 4441 
L 1819 4666 
L 2450 4666 
L 2450 531 
L 3481 531 
L 3481 0 
L 794 0 
L 794 531 
z
" transform="scale(0.015625)"/>
       </defs>
       <use xlink:href="#DejaVuSans-31"/>
       <use xlink:href="#DejaVuSans-30" x="63.623047"/>
       <use xlink:href="#DejaVuSans-30" x="127.246094"/>
      </g>
     </g>
    </g>
    <g id="xtick_4">
     <g id="text_4">
      <!-- 150 -->
      <g transform="translate(692.816848 287.06881)scale(0.08 -0.08)">
       <use xlink:href="#DejaVuSans-31"/>
       <use xlink:href="#DejaVuSans-35" x="63.623047"/>
       <use xlink:href="#DejaVuSans-30" x="127.246094"/>
      </g>
     </g>
    </g>
    <g id="xtick_5">
     <g id="text_5">
      <!-- 200 -->
      <g transform="translate(900.528897 287.06881)scale(0.08 -0.08)">
       <defs>
        <path id="DejaVuSans-32" d="M 1228 531 
L 3431 531 
L 3431 0 
L 469 0 
L 469 531 
Q 828 903 1448 1529 
Q 2069 2156 2228 2338 
Q 2531 2678 2651 2914 
Q 2772 3150 2772 3378 
Q 2772 3750 2511 3984 
Q 2250 4219 1831 4219 
Q 1534 4219 1204 4116 
Q 875 4013 500 3803 
L 500 4441 
Q 881 4594 1212 4672 
Q 1544 4750 1819 4750 
Q 2544 4750 2975 4387 
Q 3406 4025 3406 3419 
Q 3406 3131 3298 2873 
Q 3191 2616 2906 2266 
Q 2828 2175 2409 1742 
Q 1991 1309 1228 531 
z
" transform="scale(0.015625)"/>
       </defs>
       <use xlink:href="#DejaVuSans-32"/>
       <use xlink:href="#DejaVuSans-30" x="63.623047"/>
       <use xlink:href="#DejaVuSans-30" x="127.246094"/>
      </g>
     </g>
    </g>
    <g id="text_6">
     <!-- Position (bp) -->
     <g transform="translate(484.285 300.330997)scale(0.1 -0.1)">
      <defs>
       <path id="DejaVuSans-50" d="M 1259 4147 
L 1259 2394 
L 2053 2394 
Q 2494 2394 2734 2622 
Q 2975 2850 2975 3272 
Q 2975 3691 2734 3919 
Q 2494 4147 2053 4147 
L 1259 4147 
z
M 628 4666 
L 2053 4666 
Q 2838 4666 3239 4311 
Q 3641 3956 3641 3272 
Q 3641 2581 3239 2228 
Q 2838 1875 2053 1875 
L 1259 1875 
L 1259 0 
L 628 0 
L 628 4666 
z
" transform="scale(0.015625)"/>
       <path id="DejaVuSans-6f" d="M 1959 3097 
Q 1497 3097 1228 2736 
Q 959 2375 959 1747 
Q 959 1119 1226 758 
Q 1494 397 1959 397 
Q 2419 397 2687 759 
Q 2956 1122 2956 1747 
Q 2956 2369 2687 2733 
Q 2419 3097 1959 3097 
z
M 1959 3584 
Q 2709 3584 3137 3096 
Q 3566 2609 3566 1747 
Q 3566 888 3137 398 
Q 2709 -91 1959 -91 
Q 1206 -91 779 398 
Q 353 888 353 1747 
Q 353 2609 779 3096 
Q 1206 3584 1959 3584 
z
" transform="scale(0.015625)"/>
       <path id="DejaVuSans-73" d="M 2834 3397 
L 2834 2853 
Q 2591 2978 2328 3040 
Q 2066 3103 1784 3103 
Q 1356 3103 1142 2972 
Q 928 2841 928 2578 
Q 928 2378 1081 2264 
Q 1234 2150 1697 2047 
L 1894 2003 
Q 2506 1872 2764 1633 
Q 3022 1394 3022 966 
Q 3022 478 2636 193 
Q 2250 -91 1575 -91 
Q 1294 -91 989 -36 
Q 684 19 347 128 
L 347 722 
Q 666 556 975 473 
Q 1284 391 1588 391 
Q 1994 391 2212 530 
Q 2431 669 2431 922 
Q 2431 1156 2273 1281 
Q 2116 1406 1581 1522 
L 1381 1569 
Q 847 1681 609 1914 
Q 372 2147 372 2553 
Q 372 3047 722 3315 
Q 1072 3584 1716 3584 
Q 2034 3584 2315 3537 
Q 2597 3491 2834 3397 
z
" transform="scale(0.015625)"/>
       <path id="DejaVuSans-69" d="M 603 3500 
L 1178 3500 
L 1178 0 
L 603 0 
L 603 3500 
z
M 603 4863 
L 1178 4863 
L 1178 4134 
L 603 4134 
L 603 4863 
z
" transform="scale(0.015625)"/>
       <path id="DejaVuSans-74" d="M 1172 4494 
L 1172 3500 
L 2356 3500 
L 2356 3053 
L 1172 3053 
L 1172 1153 
Q 1172 725 1289 603 
Q 1406 481 1766 481 
L 2356 481 
L 2356 0 
L 1766 0 
Q 1100 0 847 248 
Q 594 497 594 1153 
L 594 3053 
L 172 3053 
L 172 3500 
L 594 3500 
L 594 4494 
L 1172 4494 
z
" transform="scale(0.015625)"/>
       <path id="DejaVuSans-6e" d="M 3513 2113 
L 3513 0 
L 2938 0 
L 2938 2094 
Q 2938 2591 2744 2837 
Q 2550 3084 2163 3084 
Q 1697 3084 1428 2787 
Q 1159 2491 1159 1978 
L 1159 0 
L 581 0 
L 581 3500 
L 1159 3500 
L 1159 2956 
Q 1366 3272 1645 3428 
Q 1925 3584 2291 3584 
Q 2894 3584 3203 3211 
Q 3513 2838 3513 2113 
z
" transform="scale(0.015625)"/>
       <path id="DejaVuSans-20" transform="scale(0.015625)"/>
       <path id="DejaVuSans-28" d="M 1984 4856 
Q 1566 4138 1362 3434 
Q 1159 2731 1159 2009 
Q 1159 1288 1364 580 
Q 1569 -128 1984 -844 
L 1484 -844 
Q 1016 -109 783 600 
Q 550 1309 550 2009 
Q 550 2706 781 3412 
Q 1013 4119 1484 4856 
L 1984 4856 
z
" transform="scale(0.015625)"/>
       <path id="DejaVuSans-62" d="M 3116 1747 
Q 3116 2381 2855 2742 
Q 2594 3103 2138 3103 
Q 1681 3103 1420 2742 
Q 1159 2381 1159 1747 
Q 1159 1113 1420 752 
Q 1681 391 2138 391 
Q 2594 391 2855 752 
Q 3116 1113 3116 1747 
z
M 1159 2969 
Q 1341 3281 1617 3432 
Q 1894 3584 2278 3584 
Q 2916 3584 3314 3078 
Q 3713 2572 3713 1747 
Q 3713 922 3314 415 
Q 2916 -91 2278 -91 
Q 1894 -91 1617 61 
Q 1341 213 1159 525 
L 1159 0 
L 581 0 
L 581 4863 
L 1159 4863 
L 1159 2969 
z
" transform="scale(0.015625)"/>
       <path id="DejaVuSans-70" d="M 1159 525 
L 1159 -1331 
L 581 -1331 
L 581 3500 
L 1159 3500 
L 1159 2969 
Q 1341 3281 1617 3432 
Q 1894 3584 2278 3584 
Q 2916 3584 3314 3078 
Q 3713 2572 3713 1747 
Q 3713 922 3314 415 
Q 2916 -91 2278 -91 
Q 1894 -91 1617 61 
Q 1341 213 1159 525 
z
M 3116 1747 
Q 3116 2381 2855 2742 
Q 2594 3103 2138 3103 
Q 1681 3103 1420 2742 
Q 1159 2381 1159 1747 
Q 1159 1113 1420 752 
Q 1681 391 2138 391 
Q 2594 391 2855 752 
Q 3116 1113 3116 1747 
z
" transform="scale(0.015625)"/>
       <path id="DejaVuSans-29" d="M 513 4856 
L 1013 4856 
Q 1481 4119 1714 3412 
Q 1947 2706 1947 2009 
Q 1947 1309 1714 600 
Q 1481 -109 1013 -844 
L 513 -844 
Q 928 -128 1133 580 
Q 1338 1288 1338 2009 
Q 1338 2731 1133 3434 
Q 928 4138 513 4856 
z
" transform="scale(0.015625)"/>
      </defs>
      <use xlink:href="#DejaVuSans-50"/>
      <use xlink:href="#DejaVuSans-6f" x="56.677734"/>
      <use xlink:href="#DejaVuSans-73" x="117.859375"/>
      <use xlink:href="#DejaVuSans-69" x="169.958984"/>
      <use xlink:href="#DejaVuSans-74" x="197.742188"/>
      <use xlink:href="#DejaVuSans-69" x="236.951172"/>
      <use xlink:href="#DejaVuSans-6f" x="264.734375"/>
      <use xlink:href="#DejaVuSans-6e" x="325.916016"/>
      <use xlink:href="#DejaVuSans-20" x="389.294922"/>
      <use xlink:href="#DejaVuSans-28" x="421.082031"/>
      <use xlink:href="#DejaVuSans-62" x="460.095703"/>
      <use xlink:href="#DejaVuSans-70" x="523.572266"/>
      <use xlink:href="#DejaVuSans-29" x="587.048828"/>
     </g>
    </g>
   </g>
   <g id="matplotlib.axis_2">
    <g id="ytick_1">
     <g id="line2d_1">
      <path d="M 38.058125 273.99006 
L 993.118125 273.99006 
" clip-path="url(#pf3076f685b)" style="fill: none; stroke: #dedede; stroke-linecap: square"/>
     </g>
     <g id="text_7">
      <!-- 0 -->
      <g transform="translate(25.968125 277.029435)scale(0.08 -0.08)">
       <use xlink:href="#DejaVuSans-30"/>
      </g>
     </g>
    </g>
    <g id="ytick_2">
     <g id="line2d_2">
      <path d="M 38.058125 237.870429 
L 993.118125 237.870429 
" clip-path="url(#pf3076f685b)" style="fill: none; stroke: #dedede; stroke-linecap: square"/>
     </g>
     <g id="text_8">
      <!-- 5 -->
      <g transform="translate(25.968125 240.909804)scale(0.08 -0.08)">
       <use xlink:href="#DejaVuSans-35"/>
      </g>
     </g>
    </g>
    <g id="ytick_3">
     <g id="line2d_3">
      <path d="M 38.058125 201.750799 
L 993.118125 201.750799 
" clip-path="url(#pf3076f685b)" style="fill: none; stroke: #dedede; stroke-linecap: square"/>
     </g>
     <g id="text_9">
      <!-- 10 -->
      <g transform="translate(20.878125 204.790174)scale(0.08 -0.08)">
       <use xlink:href="#DejaVuSans-31"/>
       <use xlink:href="#DejaVuSans-30" x="63.623047"/>
      </g>
     </g>
    </g>
    <g id="ytick_4">
     <g id="line2d_4">
      <path d="M 38.058125 165.631168 
L 993.118125 165.631168 
" clip-path="url(#pf3076f685b)" style="fill: none; stroke: #dedede; stroke-linecap: square"/>
     </g>
     <g id="text_10">
      <!-- 15 -->
      <g transform="translate(20.878125 168.670543)scale(0.08 -0.08)">
       <use xlink:href="#DejaVuSans-31"/>
       <use xlink:href="#DejaVuSans-35" x="63.623047"/>
      </g>
     </g>
    </g>
    <g id="ytick_5">
     <g id="line2d_5">
      <path d="M 38.058125 129.511538 
L 993.118125 129.511538 
" clip-path="url(#pf3076f685b)" style="fill: none; stroke: #dedede; stroke-linecap: square"/>
     </g>
     <g id="text_11">
      <!-- 20 -->
      <g transform="translate(20.878125 132.550913)scale(0.08 -0.08)">
       <use xlink:href="#DejaVuSans-32"/>
       <use xlink:href="#DejaVuSans-30" x="63.623047"/>
      </g>
     </g>
    </g>
    <g id="ytick_6">
     <g id="line2d_6">
      <path d="M 38.058125 93.391907 
L 993.118125 93.391907 
" clip-path="url(#pf3076f685b)" style="fill: none; stroke: #dedede; stroke-linecap: square"/>
     </g>
     <g id="text_12">
      <!-- 25 -->
      <g transform="translate(20.878125 96.431282)scale(0.08 -0.08)">
       <use xlink:href="#DejaVuSans-32"/>
       <use xlink:href="#DejaVuSans-35" x="63.623047"/>
      </g>
     </g>
    </g>
    <g id="ytick_7">
     <g id="line2d_7">
      <path d="M 38.058125 57.272276 
L 993.118125 57.272276 
" clip-path="url(#pf3076f685b)" style="fill: none; stroke: #dedede; stroke-linecap: square"/>
     </g>
     <g id="text_13">
      <!-- 30 -->
      <g transform="translate(20.878125 60.311651)scale(0.08 -0.08)">
       <defs>
        <path id="DejaVuSans-33" d="M 2597 2516 
Q 3050 2419 3304 2112 
Q 3559 1806 3559 1356 
Q 3559 666 3084 287 
Q 2609 -91 1734 -91 
Q 1441 -91 1130 -33 
Q 819 25 488 141 
L 488 750 
Q 750 597 1062 519 
Q 1375 441 1716 441 
Q 2309 441 2620 675 
Q 2931 909 2931 1356 
Q 2931 1769 2642 2001 
Q 2353 2234 1838 2234 
L 1294 2234 
L 1294 2753 
L 1863 2753 
Q 2328 2753 2575 2939 
Q 2822 3125 2822 3475 
Q 2822 3834 2567 4026 
Q 2313 4219 1838 4219 
Q 1578 4219 1281 4162 
Q 984 4106 628 3988 
L 628 4550 
Q 988 4650 1302 4700 
Q 1616 4750 1894 4750 
Q 2613 4750 3031 4423 
Q 3450 4097 3450 3541 
Q 3450 3153 3228 2886 
Q 3006 2619 2597 2516 
z
" transform="scale(0.015625)"/>
       </defs>
       <use xlink:href="#DejaVuSans-33"/>
       <use xlink:href="#DejaVuSans-30" x="63.623047"/>
      </g>
     </g>
    </g>
    <g id="text_14">
     <!-- Phred Score -->
     <g transform="translate(14.798438 182.70521)rotate(-90)scale(0.1 -0.1)">
      <defs>
       <path id="DejaVuSans-68" d="M 3513 2113 
L 3513 0 
L 2938 0 
L 2938 2094 
Q 2938 2591 2744 2837 
Q 2550 3084 2163 3084 
Q 1697 3084 1428 2787 
Q 1159 2491 1159 1978 
L 1159 0 
L 581 0 
L 581 4863 
L 1159 4863 
L 1159 2956 
Q 1366 3272 1645 3428 
Q 1925 3584 2291 3584 
Q 2894 3584 3203 3211 
Q 3513 2838 3513 2113 
z
" transform="scale(0.015625)"/>
       <path id="DejaVuSans-72" d="M 2631 2963 
Q 2534 3019 2420 3045 
Q 2306 3072 2169 3072 
Q 1681 3072 1420 2755 
Q 1159 2438 1159 1844 
L 1159 0 
L 581 0 
L 581 3500 
L 1159 3500 
L 1159 2956 
Q 1341 3275 1631 3429 
Q 1922 3584 2338 3584 
Q 2397 3584 2469 3576 
Q 2541 3569 2628 3553 
L 2631 2963 
z
" transform="scale(0.015625)"/>
       <path id="DejaVuSans-65" d="M 3597 1894 
L 3597 1613 
L 953 1613 
Q 991 1019 1311 708 
Q 1631 397 2203 397 
Q 2534 397 2845 478 
Q 3156 559 3463 722 
L 3463 178 
Q 3153 47 2828 -22 
Q 2503 -91 2169 -91 
Q 1331 -91 842 396 
Q 353 884 353 1716 
Q 353 2575 817 3079 
Q 1281 3584 2069 3584 
Q 2775 3584 3186 3129 
Q 3597 2675 3597 1894 
z
M 3022 2063 
Q 3016 2534 2758 2815 
Q 2500 3097 2075 3097 
Q 1594 3097 1305 2825 
Q 1016 2553 972 2059 
L 3022 2063 
z
" transform="scale(0.015625)"/>
       <path id="DejaVuSans-64" d="M 2906 2969 
L 2906 4863 
L 3481 4863 
L 3481 0 
L 2906 0 
L 2906 525 
Q 2725 213 2448 61 
Q 2172 -91 1784 -91 
Q 1150 -91 751 415 
Q 353 922 353 1747 
Q 353 2572 751 3078 
Q 1150 3584 1784 3584 
Q 2172 3584 2448 3432 
Q 2725 3281 2906 2969 
z
M 947 1747 
Q 947 1113 1208 752 
Q 1469 391 1925 391 
Q 2381 391 2643 752 
Q 2906 1113 2906 1747 
Q 2906 2381 2643 2742 
Q 2381 3103 1925 3103 
Q 1469 3103 1208 2742 
Q 947 2381 947 1747 
z
" transform="scale(0.015625)"/>
       <path id="DejaVuSans-53" d="M 3425 4513 
L 3425 3897 
Q 3066 4069 2747 4153 
Q 2428 4238 2131 4238 
Q 1616 4238 1336 4038 
Q 1056 3838 1056 3469 
Q 1056 3159 1242 3001 
Q 1428 2844 1947 2747 
L 2328 2669 
Q 3034 2534 3370 2195 
Q 3706 1856 3706 1288 
Q 3706 609 3251 259 
Q 2797 -91 1919 -91 
Q 1588 -91 1214 -16 
Q 841 59 441 206 
L 441 856 
Q 825 641 1194 531 
Q 1563 422 1919 422 
Q 2459 422 2753 634 
Q 3047 847 3047 1241 
Q 3047 1584 2836 1778 
Q 2625 1972 2144 2069 
L 1759 2144 
Q 1053 2284 737 2584 
Q 422 2884 422 3419 
Q 422 4038 858 4394 
Q 1294 4750 2059 4750 
Q 2388 4750 2728 4690 
Q 3069 4631 3425 4513 
z
" transform="scale(0.015625)"/>
       <path id="DejaVuSans-63" d="M 3122 3366 
L 3122 2828 
Q 2878 2963 2633 3030 
Q 2388 3097 2138 3097 
Q 1578 3097 1268 2742 
Q 959 2388 959 1747 
Q 959 1106 1268 751 
Q 1578 397 2138 397 
Q 2388 397 2633 464 
Q 2878 531 3122 666 
L 3122 134 
Q 2881 22 2623 -34 
Q 2366 -91 2075 -91 
Q 1284 -91 818 406 
Q 353 903 353 1747 
Q 353 2603 823 3093 
Q 1294 3584 2113 3584 
Q 2378 3584 2631 3529 
Q 2884 3475 3122 3366 
z
" transform="scale(0.015625)"/>
      </defs>
      <use xlink:href="#DejaVuSans-50"/>
      <use xlink:href="#DejaVuSans-68" x="60.302734"/>
      <use xlink:href="#DejaVuSans-72" x="123.681641"/>
      <use xlink:href="#DejaVuSans-65" x="162.544922"/>
      <use xlink:href="#DejaVuSans-64" x="224.068359"/>
      <use xlink:href="#DejaVuSans-20" x="287.544922"/>
      <use xlink:href="#DejaVuSans-53" x="319.332031"/>
      <use xlink:href="#DejaVuSans-63" x="382.808594"/>
      <use xlink:href="#DejaVuSans-6f" x="437.789062"/>
      <use xlink:href="#DejaVuSans-72" x="498.970703"/>
      <use xlink:href="#DejaVuSans-65" x="537.833984"/>
     </g>
    </g>
   </g>
   <g id="line2d_8">
    <path d="M 81.469943 68.830558 
L 85.624184 113.980096 
L 89.778425 75.693288 
L 93.932666 56.91108 
L 98.086907 60.884239 
L 102.241148 57.994669 
L 106.395389 51.493135 
L 110.54963 115.424882 
L 114.703871 67.385773 
L 127.166594 56.766601 
L 147.937799 64.785159 
L 168.709004 90.863533 
L 189.480209 66.157705 
L 210.251413 75.548809 
L 231.022618 89.490987 
L 251.793823 111.957397 
L 272.565028 77.282552 
L 293.336233 73.020435 
L 314.107438 68.035926 
L 334.878643 78.871815 
L 355.649847 63.051417 
L 376.421052 67.963687 
L 397.192257 79.37749 
L 417.963462 83.27841 
L 438.734667 78.293901 
L 459.505872 75.765527 
L 480.277077 66.735619 
L 501.048282 72.009086 
L 521.819486 72.731478 
L 542.590691 87.468287 
L 563.361896 86.601416 
L 584.133101 65.940988 
L 604.904306 76.48792 
L 625.675511 95.848042 
L 646.446716 78.944055 
L 667.217921 80.172122 
L 687.989125 86.962613 
L 708.76033 88.407398 
L 729.531535 94.692214 
L 750.30274 97.292827 
L 771.073945 79.160772 
L 791.84515 67.241294 
L 812.616355 82.411539 
L 833.38756 92.452796 
L 854.158764 77.138073 
L 874.929969 84.434238 
L 895.701174 78.510619 
L 916.472379 78.727337 
L 937.243584 94.114299 
L 949.706307 100.977029 
" clip-path="url(#pf3076f685b)" style="fill: none; stroke: #5cb85c; stroke-linecap: square"/>
   </g>
   <g id="line2d_9">
    <path d="M 81.469943 67.746969 
L 85.624184 112.174115 
L 89.778425 78.221662 
L 93.932666 78.582858 
L 98.086907 68.469362 
L 102.241148 68.830558 
L 106.395389 64.857399 
L 110.54963 121.204022 
L 114.703871 75.693288 
L 127.166594 44.774884 
L 147.937799 60.378564 
L 168.709004 91.802643 
L 189.480209 62.184546 
L 210.251413 65.290834 
L 231.022618 38.562308 
L 251.793823 84.506478 
L 272.565028 62.473503 
L 293.336233 62.112307 
L 314.107438 67.67473 
L 334.878643 88.19068 
L 355.649847 58.355865 
L 376.421052 59.078258 
L 397.192257 75.548809 
L 417.963462 80.027644 
L 438.734667 65.940988 
L 459.505872 50.554025 
L 480.277077 43.835774 
L 501.048282 55.032859 
L 521.819486 42.824424 
L 542.590691 65.652031 
L 563.361896 68.180405 
L 584.133101 42.968903 
L 604.904306 47.08654 
L 625.675511 60.378564 
L 646.446716 50.915221 
L 667.217921 52.432246 
L 687.989125 54.454945 
L 708.76033 48.386847 
L 729.531535 66.880098 
L 750.30274 84.434238 
L 771.073945 79.016294 
L 791.84515 55.394055 
L 812.616355 55.177338 
L 833.38756 72.153564 
L 854.158764 60.306325 
L 874.929969 60.667522 
L 895.701174 68.830558 
L 916.472379 91.296968 
L 937.243584 95.05341 
L 949.706307 91.585925 
" clip-path="url(#pf3076f685b)" style="fill: none; stroke: #5cb85c; stroke-linecap: square"/>
   </g>
   <g id="line2d_10">
    <path d="M 81.469943 84.723196 
L 85.624184 115.424882 
L 89.778425 90.502336 
L 93.932666 75.693288 
L 98.086907 68.830558 
L 102.241148 60.884239 
L 106.395389 56.91108 
L 110.54963 106.75617 
L 114.703871 71.358932 
L 127.166594 45.352798 
L 147.937799 50.04835 
L 168.709004 65.146356 
L 189.480209 56.549884 
L 210.251413 65.218595 
L 231.022618 51.131939 
L 251.793823 64.135006 
L 272.565028 63.412613 
L 293.336233 70.492061 
L 314.107438 84.867674 
L 334.878643 82.556018 
L 355.649847 71.358932 
L 376.421052 66.807859 
L 397.192257 81.111232 
L 417.963462 88.118441 
L 438.734667 82.483778 
L 459.505872 79.594208 
L 480.277077 60.161847 
L 501.048282 67.819208 
L 521.819486 64.568442 
L 542.590691 73.092674 
L 563.361896 71.069975 
L 584.133101 73.598349 
L 604.904306 59.006019 
L 625.675511 69.697429 
L 646.446716 75.693288 
L 667.217921 76.343441 
L 687.989125 81.761386 
L 708.76033 84.000803 
L 729.531535 76.126723 
L 750.30274 78.727337 
L 771.073945 73.237153 
L 791.84515 58.717061 
L 812.616355 74.031785 
L 833.38756 71.069975 
L 854.158764 66.013227 
L 874.929969 77.788226 
L 895.701174 87.107091 
L 916.472379 80.894515 
L 937.243584 89.707705 
L 949.706307 94.114299 
" clip-path="url(#pf3076f685b)" style="fill: none; stroke: #5cb85c; stroke-linecap: square"/>
   </g>
   <g id="line2d_11">
    <path d="M 81.469943 50.04835 
L 85.624184 97.726263 
L 89.778425 65.940988 
L 93.932666 61.245436 
L 98.086907 61.606632 
L 102.241148 59.078258 
L 106.395389 45.352798 
L 110.54963 115.424882 
L 114.703871 65.940988 
L 127.166594 57.344516 
L 147.937799 58.500344 
L 168.709004 67.096816 
L 189.480209 62.76246 
L 210.251413 61.028718 
L 231.022618 53.154638 
L 251.793823 76.343441 
L 272.565028 66.013227 
L 293.336233 52.937921 
L 314.107438 57.127798 
L 334.878643 72.298043 
L 355.649847 57.777951 
L 376.421052 55.610773 
L 397.192257 73.309392 
L 417.963462 86.745895 
L 438.734667 68.324883 
L 459.505872 73.887306 
L 480.277077 64.640681 
L 501.048282 68.180405 
L 521.819486 59.439454 
L 542.590691 62.473503 
L 563.361896 56.91108 
L 584.133101 59.078258 
L 604.904306 84.939913 
L 625.675511 78.944055 
L 646.446716 66.302184 
L 667.217921 68.324883 
L 687.989125 72.009086 
L 708.76033 65.218595 
L 729.531535 84.000803 
L 750.30274 87.901723 
L 771.073945 85.662306 
L 791.84515 73.742828 
L 812.616355 73.887306 
L 833.38756 81.833625 
L 854.158764 74.104024 
L 874.929969 70.5643 
L 895.701174 61.678871 
L 916.472379 78.43838 
L 937.243584 85.012153 
L 949.706307 92.669514 
" clip-path="url(#pf3076f685b)" style="fill: none; stroke: #5cb85c; stroke-linecap: square"/>
   </g>
   <g id="line2d_12">
    <path d="M 81.469943 63.051417 
L 85.624184 110.368133 
L 89.778425 70.63654 
L 93.932666 67.024577 
L 98.086907 74.970895 
L 102.241148 72.803717 
L 106.395389 69.914147 
L 110.54963 133.123501 
L 114.703871 87.25157 
L 127.166594 59.945129 
L 147.937799 65.868748 
L 168.709004 91.224729 
L 189.480209 83.856324 
L 210.251413 87.034852 
L 231.022618 82.989453 
L 251.793823 92.452796 
L 272.565028 60.884239 
L 293.336233 59.439454 
L 314.107438 64.135006 
L 334.878643 73.381632 
L 355.649847 53.082399 
L 376.421052 51.204178 
L 397.192257 82.483778 
L 417.963462 97.509545 
L 438.734667 72.659239 
L 459.505872 72.442521 
L 480.277077 64.785159 
L 501.048282 84.145281 
L 521.819486 66.157705 
L 542.590691 79.088533 
L 563.361896 85.012153 
L 584.133101 69.841908 
L 604.904306 73.887306 
L 625.675511 88.262919 
L 646.446716 85.879024 
L 667.217921 76.921355 
L 687.989125 68.324883 
L 708.76033 60.812 
L 729.531535 70.853257 
L 750.30274 80.605558 
L 771.073945 81.183472 
L 791.84515 76.48792 
L 812.616355 81.544668 
L 833.38756 91.441447 
L 854.158764 78.727337 
L 874.929969 79.37749 
L 895.701174 63.195896 
L 916.472379 73.381632 
L 937.243584 89.852183 
L 949.706307 89.418748 
" clip-path="url(#pf3076f685b)" style="fill: none; stroke: #5cb85c; stroke-linecap: square"/>
   </g>
   <g id="line2d_13">
    <path d="M 81.469943 67.385773 
L 85.624184 94.836692 
L 89.778425 66.302184 
L 93.932666 49.325958 
L 98.086907 56.549884 
L 102.241148 36.322891 
L 106.395389 37.406479 
L 110.54963 95.559085 
L 114.703871 56.91108 
L 127.166594 41.885314 
L 147.937799 49.614915 
L 168.709004 77.643748 
L 189.480209 56.766601 
L 210.251413 67.313534 
L 231.022618 62.979178 
L 251.793823 80.605558 
L 272.565028 65.435313 
L 293.336233 58.139147 
L 314.107438 77.065834 
L 334.878643 84.795435 
L 355.649847 70.853257 
L 376.421052 54.816141 
L 397.192257 72.803717 
L 417.963462 81.761386 
L 438.734667 65.001877 
L 459.505872 77.065834 
L 480.277077 53.804792 
L 501.048282 70.419822 
L 521.819486 65.868748 
L 542.590691 67.891448 
L 563.361896 73.453871 
L 584.133101 73.959546 
L 604.904306 69.62519 
L 625.675511 81.905864 
L 646.446716 67.819208 
L 667.217921 76.48792 
L 687.989125 75.910006 
L 708.76033 84.28976 
L 729.531535 92.452796 
L 750.30274 106.106017 
L 771.073945 103.649882 
L 791.84515 85.012153 
L 812.616355 79.594208 
L 833.38756 87.540527 
L 854.158764 75.837766 
L 874.929969 75.548809 
L 895.701174 83.784085 
L 916.472379 91.008011 
L 937.243584 102.060618 
L 949.706307 87.25157 
" clip-path="url(#pf3076f685b)" style="fill: none; stroke: #5cb85c; stroke-linecap: square"/>
   </g>
   <g id="line2d_14">
    <path d="M 38.058125 273.99006 
L 993.118125 273.99006 
" clip-path="url(#pf3076f685b)" style="fill: none; stroke: #dedede; stroke-width: 2; stroke-linecap: square"/>
   </g>
   <g id="text_15">
    <!-- FastQC: Mean Quality Scores -->
    <g transform="translate(400.349375 19.3575)scale(0.16 -0.16)">
     <defs>
      <path id="DejaVuSans-46" d="M 628 4666 
L 3309 4666 
L 3309 4134 
L 1259 4134 
L 1259 2759 
L 3109 2759 
L 3109 2228 
L 1259 2228 
L 1259 0 
L 628 0 
L 628 4666 
z
" transform="scale(0.015625)"/>
      <path id="DejaVuSans-61" d="M 2194 1759 
Q 1497 1759 1228 1600 
Q 959 1441 959 1056 
Q 959 750 1161 570 
Q 1363 391 1709 391 
Q 2188 391 2477 730 
Q 2766 1069 2766 1631 
L 2766 1759 
L 2194 1759 
z
M 3341 1997 
L 3341 0 
L 2766 0 
L 2766 531 
Q 2569 213 2275 61 
Q 1981 -91 1556 -91 
Q 1019 -91 701 211 
Q 384 513 384 1019 
Q 384 1609 779 1909 
Q 1175 2209 1959 2209 
L 2766 2209 
L 2766 2266 
Q 2766 2663 2505 2880 
Q 2244 3097 1772 3097 
Q 1472 3097 1187 3025 
Q 903 2953 641 2809 
L 641 3341 
Q 956 3463 1253 3523 
Q 1550 3584 1831 3584 
Q 2591 3584 2966 3190 
Q 3341 2797 3341 1997 
z
" transform="scale(0.015625)"/>
      <path id="DejaVuSans-51" d="M 2522 4238 
Q 1834 4238 1429 3725 
Q 1025 3213 1025 2328 
Q 1025 1447 1429 934 
Q 1834 422 2522 422 
Q 3209 422 3611 934 
Q 4013 1447 4013 2328 
Q 4013 3213 3611 3725 
Q 3209 4238 2522 4238 
z
M 3406 84 
L 4238 -825 
L 3475 -825 
L 2784 -78 
Q 2681 -84 2626 -87 
Q 2572 -91 2522 -91 
Q 1538 -91 948 567 
Q 359 1225 359 2328 
Q 359 3434 948 4092 
Q 1538 4750 2522 4750 
Q 3503 4750 4090 4092 
Q 4678 3434 4678 2328 
Q 4678 1516 4351 937 
Q 4025 359 3406 84 
z
" transform="scale(0.015625)"/>
      <path id="DejaVuSans-43" d="M 4122 4306 
L 4122 3641 
Q 3803 3938 3442 4084 
Q 3081 4231 2675 4231 
Q 1875 4231 1450 3742 
Q 1025 3253 1025 2328 
Q 1025 1406 1450 917 
Q 1875 428 2675 428 
Q 3081 428 3442 575 
Q 3803 722 4122 1019 
L 4122 359 
Q 3791 134 3420 21 
Q 3050 -91 2638 -91 
Q 1578 -91 968 557 
Q 359 1206 359 2328 
Q 359 3453 968 4101 
Q 1578 4750 2638 4750 
Q 3056 4750 3426 4639 
Q 3797 4528 4122 4306 
z
" transform="scale(0.015625)"/>
      <path id="DejaVuSans-3a" d="M 750 794 
L 1409 794 
L 1409 0 
L 750 0 
L 750 794 
z
M 750 3309 
L 1409 3309 
L 1409 2516 
L 750 2516 
L 750 3309 
z
" transform="scale(0.015625)"/>
      <path id="DejaVuSans-4d" d="M 628 4666 
L 1569 4666 
L 2759 1491 
L 3956 4666 
L 4897 4666 
L 4897 0 
L 4281 0 
L 4281 4097 
L 3078 897 
L 2444 897 
L 1241 4097 
L 1241 0 
L 628 0 
L 628 4666 
z
" transform="scale(0.015625)"/>
      <path id="DejaVuSans-75" d="M 544 1381 
L 544 3500 
L 1119 3500 
L 1119 1403 
Q 1119 906 1312 657 
Q 1506 409 1894 409 
Q 2359 409 2629 706 
Q 2900 1003 2900 1516 
L 2900 3500 
L 3475 3500 
L 3475 0 
L 2900 0 
L 2900 538 
Q 2691 219 2414 64 
Q 2138 -91 1772 -91 
Q 1169 -91 856 284 
Q 544 659 544 1381 
z
M 1991 3584 
L 1991 3584 
z
" transform="scale(0.015625)"/>
      <path id="DejaVuSans-6c" d="M 603 4863 
L 1178 4863 
L 1178 0 
L 603 0 
L 603 4863 
z
" transform="scale(0.015625)"/>
      <path id="DejaVuSans-79" d="M 2059 -325 
Q 1816 -950 1584 -1140 
Q 1353 -1331 966 -1331 
L 506 -1331 
L 506 -850 
L 844 -850 
Q 1081 -850 1212 -737 
Q 1344 -625 1503 -206 
L 1606 56 
L 191 3500 
L 800 3500 
L 1894 763 
L 2988 3500 
L 3597 3500 
L 2059 -325 
z
" transform="scale(0.015625)"/>
     </defs>
     <use xlink:href="#DejaVuSans-46"/>
     <use xlink:href="#DejaVuSans-61" x="48.394531"/>
     <use xlink:href="#DejaVuSans-73" x="109.673828"/>
     <use xlink:href="#DejaVuSans-74" x="161.773438"/>
     <use xlink:href="#DejaVuSans-51" x="200.982422"/>
     <use xlink:href="#DejaVuSans-43" x="279.693359"/>
     <use xlink:href="#DejaVuSans-3a" x="349.517578"/>
     <use xlink:href="#DejaVuSans-20" x="383.208984"/>
     <use xlink:href="#DejaVuSans-4d" x="414.996094"/>
     <use xlink:href="#DejaVuSans-65" x="501.275391"/>
     <use xlink:href="#DejaVuSans-61" x="562.798828"/>
     <use xlink:href="#DejaVuSans-6e" x="624.078125"/>
     <use xlink:href="#DejaVuSans-20" x="687.457031"/>
     <use xlink:href="#DejaVuSans-51" x="719.244141"/>
     <use xlink:href="#DejaVuSans-75" x="797.955078"/>
     <use xlink:href="#DejaVuSans-61" x="861.333984"/>
     <use xlink:href="#DejaVuSans-6c" x="922.613281"/>
     <use xlink:href="#DejaVuSans-69" x="950.396484"/>
     <use xlink:href="#DejaVuSans-74" x="978.179688"/>
     <use xlink:href="#DejaVuSans-79" x="1017.388672"/>
     <use xlink:href="#DejaVuSans-20" x="1076.568359"/>
     <use xlink:href="#DejaVuSans-53" x="1108.355469"/>
     <use xlink:href="#DejaVuSans-63" x="1171.832031"/>
     <use xlink:href="#DejaVuSans-6f" x="1226.8125"/>
     <use xlink:href="#DejaVuSans-72" x="1287.994141"/>
     <use xlink:href="#DejaVuSans-65" x="1326.857422"/>
     <use xlink:href="#DejaVuSans-73" x="1388.380859"/>
    </g>
   </g>
   <g id="legend_1">
    <g id="line2d_15">
     <path d="M 45.258125 303.490394 
L 53.258125 303.490394 
L 61.258125 303.490394 
" style="fill: none; stroke: #5cb85c; stroke-linecap: square"/>
    </g>
    <g id="text_16">
     <!-- Adobera_artesanal -->
     <g transform="translate(67.658125 306.290394)scale(0.08 -0.08)">
      <defs>
       <path id="DejaVuSans-41" d="M 2188 4044 
L 1331 1722 
L 3047 1722 
L 2188 4044 
z
M 1831 4666 
L 2547 4666 
L 4325 0 
L 3669 0 
L 3244 1197 
L 1141 1197 
L 716 0 
L 50 0 
L 1831 4666 
z
" transform="scale(0.015625)"/>
       <path id="DejaVuSans-5f" d="M 3263 -1063 
L 3263 -1509 
L -63 -1509 
L -63 -1063 
L 3263 -1063 
z
" transform="scale(0.015625)"/>
      </defs>
      <use xlink:href="#DejaVuSans-41"/>
      <use xlink:href="#DejaVuSans-64" x="66.658203"/>
      <use xlink:href="#DejaVuSans-6f" x="130.134766"/>
      <use xlink:href="#DejaVuSans-62" x="191.316406"/>
      <use xlink:href="#DejaVuSans-65" x="254.792969"/>
      <use xlink:href="#DejaVuSans-72" x="316.316406"/>
      <use xlink:href="#DejaVuSans-61" x="357.429688"/>
      <use xlink:href="#DejaVuSans-5f" x="418.708984"/>
      <use xlink:href="#DejaVuSans-61" x="468.708984"/>
      <use xlink:href="#DejaVuSans-72" x="529.988281"/>
      <use xlink:href="#DejaVuSans-74" x="571.101562"/>
      <use xlink:href="#DejaVuSans-65" x="610.310547"/>
      <use xlink:href="#DejaVuSans-73" x="671.833984"/>
      <use xlink:href="#DejaVuSans-61" x="723.933594"/>
      <use xlink:href="#DejaVuSans-6e" x="785.212891"/>
      <use xlink:href="#DejaVuSans-61" x="848.591797"/>
      <use xlink:href="#DejaVuSans-6c" x="909.871094"/>
     </g>
    </g>
    <g id="line2d_16">
     <path d="M 45.258125 315.455394 
L 53.258125 315.455394 
L 61.258125 315.455394 
" style="fill: none; stroke: #5cb85c; stroke-linecap: square"/>
    </g>
    <g id="text_17">
     <!-- Adobera_pasteurizada -->
     <g transform="translate(67.658125 318.255394)scale(0.08 -0.08)">
      <defs>
       <path id="DejaVuSans-7a" d="M 353 3500 
L 3084 3500 
L 3084 2975 
L 922 459 
L 3084 459 
L 3084 0 
L 275 0 
L 275 525 
L 2438 3041 
L 353 3041 
L 353 3500 
z
" transform="scale(0.015625)"/>
      </defs>
      <use xlink:href="#DejaVuSans-41"/>
      <use xlink:href="#DejaVuSans-64" x="66.658203"/>
      <use xlink:href="#DejaVuSans-6f" x="130.134766"/>
      <use xlink:href="#DejaVuSans-62" x="191.316406"/>
      <use xlink:href="#DejaVuSans-65" x="254.792969"/>
      <use xlink:href="#DejaVuSans-72" x="316.316406"/>
      <use xlink:href="#DejaVuSans-61" x="357.429688"/>
      <use xlink:href="#DejaVuSans-5f" x="418.708984"/>
      <use xlink:href="#DejaVuSans-70" x="468.708984"/>
      <use xlink:href="#DejaVuSans-61" x="532.185547"/>
      <use xlink:href="#DejaVuSans-73" x="593.464844"/>
      <use xlink:href="#DejaVuSans-74" x="645.564453"/>
      <use xlink:href="#DejaVuSans-65" x="684.773438"/>
      <use xlink:href="#DejaVuSans-75" x="746.296875"/>
      <use xlink:href="#DejaVuSans-72" x="809.675781"/>
      <use xlink:href="#DejaVuSans-69" x="850.789062"/>
      <use xlink:href="#DejaVuSans-7a" x="878.572266"/>
      <use xlink:href="#DejaVuSans-61" x="931.0625"/>
      <use xlink:href="#DejaVuSans-64" x="992.341797"/>
      <use xlink:href="#DejaVuSans-61" x="1055.818359"/>
     </g>
    </g>
    <g id="line2d_17">
     <path d="M 284.094688 303.490394 
L 292.094688 303.490394 
L 300.094688 303.490394 
" style="fill: none; stroke: #5cb85c; stroke-linecap: square"/>
    </g>
    <g id="text_18">
     <!-- Chiapas -->
     <g transform="translate(306.494687 306.290394)scale(0.08 -0.08)">
      <use xlink:href="#DejaVuSans-43"/>
      <use xlink:href="#DejaVuSans-68" x="69.824219"/>
      <use xlink:href="#DejaVuSans-69" x="133.203125"/>
      <use xlink:href="#DejaVuSans-61" x="160.986328"/>
      <use xlink:href="#DejaVuSans-70" x="222.265625"/>
      <use xlink:href="#DejaVuSans-61" x="285.742188"/>
      <use xlink:href="#DejaVuSans-73" x="347.021484"/>
     </g>
    </g>
    <g id="line2d_18">
     <path d="M 465.49125 303.490394 
L 473.49125 303.490394 
L 481.49125 303.490394 
" style="fill: none; stroke: #5cb85c; stroke-linecap: square"/>
    </g>
    <g id="text_19">
     <!-- Chihuahua -->
     <g transform="translate(487.89125 306.290394)scale(0.08 -0.08)">
      <use xlink:href="#DejaVuSans-43"/>
      <use xlink:href="#DejaVuSans-68" x="69.824219"/>
      <use xlink:href="#DejaVuSans-69" x="133.203125"/>
      <use xlink:href="#DejaVuSans-68" x="160.986328"/>
      <use xlink:href="#DejaVuSans-75" x="224.365234"/>
      <use xlink:href="#DejaVuSans-61" x="287.744141"/>
      <use xlink:href="#DejaVuSans-68" x="349.023438"/>
      <use xlink:href="#DejaVuSans-75" x="412.402344"/>
      <use xlink:href="#DejaVuSans-61" x="475.78125"/>
     </g>
    </g>
    <g id="line2d_19">
     <path d="M 657.921563 303.490394 
L 665.921563 303.490394 
L 673.921563 303.490394 
" style="fill: none; stroke: #5cb85c; stroke-linecap: square"/>
    </g>
    <g id="text_20">
     <!-- Ranchero_Estado_de_Mexico -->
     <g transform="translate(680.321563 306.290394)scale(0.08 -0.08)">
      <defs>
       <path id="DejaVuSans-52" d="M 2841 2188 
Q 3044 2119 3236 1894 
Q 3428 1669 3622 1275 
L 4263 0 
L 3584 0 
L 2988 1197 
Q 2756 1666 2539 1819 
Q 2322 1972 1947 1972 
L 1259 1972 
L 1259 0 
L 628 0 
L 628 4666 
L 2053 4666 
Q 2853 4666 3247 4331 
Q 3641 3997 3641 3322 
Q 3641 2881 3436 2590 
Q 3231 2300 2841 2188 
z
M 1259 4147 
L 1259 2491 
L 2053 2491 
Q 2509 2491 2742 2702 
Q 2975 2913 2975 3322 
Q 2975 3731 2742 3939 
Q 2509 4147 2053 4147 
L 1259 4147 
z
" transform="scale(0.015625)"/>
       <path id="DejaVuSans-45" d="M 628 4666 
L 3578 4666 
L 3578 4134 
L 1259 4134 
L 1259 2753 
L 3481 2753 
L 3481 2222 
L 1259 2222 
L 1259 531 
L 3634 531 
L 3634 0 
L 628 0 
L 628 4666 
z
" transform="scale(0.015625)"/>
       <path id="DejaVuSans-78" d="M 3513 3500 
L 2247 1797 
L 3578 0 
L 2900 0 
L 1881 1375 
L 863 0 
L 184 0 
L 1544 1831 
L 300 3500 
L 978 3500 
L 1906 2253 
L 2834 3500 
L 3513 3500 
z
" transform="scale(0.015625)"/>
      </defs>
      <use xlink:href="#DejaVuSans-52"/>
      <use xlink:href="#DejaVuSans-61" x="67.232422"/>
      <use xlink:href="#DejaVuSans-6e" x="128.511719"/>
      <use xlink:href="#DejaVuSans-63" x="191.890625"/>
      <use xlink:href="#DejaVuSans-68" x="246.871094"/>
      <use xlink:href="#DejaVuSans-65" x="310.25"/>
      <use xlink:href="#DejaVuSans-72" x="371.773438"/>
      <use xlink:href="#DejaVuSans-6f" x="410.636719"/>
      <use xlink:href="#DejaVuSans-5f" x="471.818359"/>
      <use xlink:href="#DejaVuSans-45" x="521.818359"/>
      <use xlink:href="#DejaVuSans-73" x="585.001953"/>
      <use xlink:href="#DejaVuSans-74" x="637.101562"/>
      <use xlink:href="#DejaVuSans-61" x="676.310547"/>
      <use xlink:href="#DejaVuSans-64" x="737.589844"/>
      <use xlink:href="#DejaVuSans-6f" x="801.066406"/>
      <use xlink:href="#DejaVuSans-5f" x="862.248047"/>
      <use xlink:href="#DejaVuSans-64" x="912.248047"/>
      <use xlink:href="#DejaVuSans-65" x="975.724609"/>
      <use xlink:href="#DejaVuSans-5f" x="1037.248047"/>
      <use xlink:href="#DejaVuSans-4d" x="1087.248047"/>
      <use xlink:href="#DejaVuSans-65" x="1173.527344"/>
      <use xlink:href="#DejaVuSans-78" x="1233.300781"/>
      <use xlink:href="#DejaVuSans-69" x="1292.480469"/>
      <use xlink:href="#DejaVuSans-63" x="1320.263672"/>
      <use xlink:href="#DejaVuSans-6f" x="1375.244141"/>
     </g>
    </g>
    <g id="line2d_20">
     <path d="M 922.306875 303.490394 
L 930.306875 303.490394 
L 938.306875 303.490394 
" style="fill: none; stroke: #5cb85c; stroke-linecap: square"/>
    </g>
    <g id="text_21">
     <!-- Zacatecas -->
     <g transform="translate(944.706875 306.290394)scale(0.08 -0.08)">
      <defs>
       <path id="DejaVuSans-5a" d="M 359 4666 
L 4025 4666 
L 4025 4184 
L 1075 531 
L 4097 531 
L 4097 0 
L 288 0 
L 288 481 
L 3238 4134 
L 359 4134 
L 359 4666 
z
" transform="scale(0.015625)"/>
      </defs>
      <use xlink:href="#DejaVuSans-5a"/>
      <use xlink:href="#DejaVuSans-61" x="68.505859"/>
      <use xlink:href="#DejaVuSans-63" x="129.785156"/>
      <use xlink:href="#DejaVuSans-61" x="184.765625"/>
      <use xlink:href="#DejaVuSans-74" x="246.044922"/>
      <use xlink:href="#DejaVuSans-65" x="285.253906"/>
      <use xlink:href="#DejaVuSans-63" x="346.777344"/>
      <use xlink:href="#DejaVuSans-61" x="401.757812"/>
      <use xlink:href="#DejaVuSans-73" x="463.037109"/>
     </g>
    </g>
   </g>
  </g>
 </g>
 <defs>
  <clipPath id="pf3076f685b">
   <rect x="38.058125" y="31.48286" width="955.06" height="242.5072"/>
  </clipPath>
 </defs>
</svg>
