<?xml version="1.0" encoding="utf-8" standalone="no"?>
<!DOCTYPE svg PUBLIC "-//W3C//DTD SVG 1.1//EN"
  "http://www.w3.org/Graphics/SVG/1.1/DTD/svg11.dtd">
<svg height="388.844525pt" version="1.1" viewBox="0 0 1000.318125 388.844525" width="1000.318125pt" xmlns="http://www.w3.org/2000/svg" xmlns:xlink="http://www.w3.org/1999/xlink">
 <metadata>
  <rdf:RDF xmlns:cc="http://creativecommons.org/ns#" xmlns:dc="http://purl.org/dc/elements/1.1/" xmlns:rdf="http://www.w3.org/1999/02/22-rdf-syntax-ns#">
   <cc:Work>
    <dc:type rdf:resource="http://purl.org/dc/dcmitype/StillImage"/>
    <dc:date>2022-02-25T10:12:49.167318</dc:date>
    <dc:format>image/svg+xml</dc:format>
    <dc:creator>
     <cc:Agent>
      <dc:title>Matplotlib v3.4.2, https://matplotlib.org/</dc:title>
     </cc:Agent>
    </dc:creator>
   </cc:Work>
  </rdf:RDF>
 </metadata>
 <defs>
  <style type="text/css">*{stroke-linecap:butt;stroke-linejoin:round;}</style>
 </defs>
 <g id="figure_1">
  <g id="axes_1">
   <g id="patch_1">
    <path d="M 38.058125 353.2239 
L 993.118125 353.2239 
L 993.118125 35.2559 
L 38.058125 35.2559 
z
" style="fill:#ffffff;"/>
   </g>
   <g id="patch_2">
    <path clip-path="url(#pb79288b77a)" d="M 38.058125 92.078784 
L 953.860548 92.078784 
L 953.860548 -579.437229 
L 38.058125 -579.437229 
z
" style="fill:#c3e6c3;"/>
   </g>
   <g id="patch_3">
    <path clip-path="url(#pb79288b77a)" d="M 38.058125 166.691674 
L 953.860548 166.691674 
L 953.860548 92.078784 
L 38.058125 92.078784 
z
" style="fill:#e6dcc3;"/>
   </g>
   <g id="patch_4">
    <path clip-path="url(#pb79288b77a)" d="M 38.058125 353.2239 
L 953.860548 353.2239 
L 953.860548 166.691674 
L 38.058125 166.691674 
z
" style="fill:#e6c3c3;"/>
   </g>
   <g id="matplotlib.axis_1">
    <g id="xtick_1">
     <g id="text_1">
      <!-- 0 -->
      <g transform="translate(74.770702 366.30265)scale(0.08 -0.08)">
       <defs>
        <path d="M 2034 4250 
Q 1547 4250 1301 3770 
Q 1056 3291 1056 2328 
Q 1056 1369 1301 889 
Q 1547 409 2034 409 
Q 2525 409 2770 889 
Q 3016 1369 3016 2328 
Q 3016 3291 2770 3770 
Q 2525 4250 2034 4250 
z
M 2034 4750 
Q 2819 4750 3233 4129 
Q 3647 3509 3647 2328 
Q 3647 1150 3233 529 
Q 2819 -91 2034 -91 
Q 1250 -91 836 529 
Q 422 1150 422 2328 
Q 422 3509 836 4129 
Q 1250 4750 2034 4750 
z
" id="DejaVuSans-30" transform="scale(0.015625)"/>
       </defs>
       <use xlink:href="#DejaVuSans-30"/>
      </g>
     </g>
    </g>
    <g id="xtick_2">
     <g id="text_2">
      <!-- 50 -->
      <g transform="translate(279.937751 366.30265)scale(0.08 -0.08)">
       <defs>
        <path d="M 691 4666 
L 3169 4666 
L 3169 4134 
L 1269 4134 
L 1269 2991 
Q 1406 3038 1543 3061 
Q 1681 3084 1819 3084 
Q 2600 3084 3056 2656 
Q 3513 2228 3513 1497 
Q 3513 744 3044 326 
Q 2575 -91 1722 -91 
Q 1428 -91 1123 -41 
Q 819 9 494 109 
L 494 744 
Q 775 591 1075 516 
Q 1375 441 1709 441 
Q 2250 441 2565 725 
Q 2881 1009 2881 1497 
Q 2881 1984 2565 2268 
Q 2250 2553 1709 2553 
Q 1456 2553 1204 2497 
Q 953 2441 691 2322 
L 691 4666 
z
" id="DejaVuSans-35" transform="scale(0.015625)"/>
       </defs>
       <use xlink:href="#DejaVuSans-35"/>
       <use x="63.623047" xlink:href="#DejaVuSans-30"/>
      </g>
     </g>
    </g>
    <g id="xtick_3">
     <g id="text_3">
      <!-- 100 -->
      <g transform="translate(485.1048 366.30265)scale(0.08 -0.08)">
       <defs>
        <path d="M 794 531 
L 1825 531 
L 1825 4091 
L 703 3866 
L 703 4441 
L 1819 4666 
L 2450 4666 
L 2450 531 
L 3481 531 
L 3481 0 
L 794 0 
L 794 531 
z
" id="DejaVuSans-31" transform="scale(0.015625)"/>
       </defs>
       <use xlink:href="#DejaVuSans-31"/>
       <use x="63.623047" xlink:href="#DejaVuSans-30"/>
       <use x="127.246094" xlink:href="#DejaVuSans-30"/>
      </g>
     </g>
    </g>
    <g id="xtick_4">
     <g id="text_4">
      <!-- 150 -->
      <g transform="translate(692.816848 366.30265)scale(0.08 -0.08)">
       <use xlink:href="#DejaVuSans-31"/>
       <use x="63.623047" xlink:href="#DejaVuSans-35"/>
       <use x="127.246094" xlink:href="#DejaVuSans-30"/>
      </g>
     </g>
    </g>
    <g id="xtick_5">
     <g id="text_5">
      <!-- 200 -->
      <g transform="translate(900.528897 366.30265)scale(0.08 -0.08)">
       <defs>
        <path d="M 1228 531 
L 3431 531 
L 3431 0 
L 469 0 
L 469 531 
Q 828 903 1448 1529 
Q 2069 2156 2228 2338 
Q 2531 2678 2651 2914 
Q 2772 3150 2772 3378 
Q 2772 3750 2511 3984 
Q 2250 4219 1831 4219 
Q 1534 4219 1204 4116 
Q 875 4013 500 3803 
L 500 4441 
Q 881 4594 1212 4672 
Q 1544 4750 1819 4750 
Q 2544 4750 2975 4387 
Q 3406 4025 3406 3419 
Q 3406 3131 3298 2873 
Q 3191 2616 2906 2266 
Q 2828 2175 2409 1742 
Q 1991 1309 1228 531 
z
" id="DejaVuSans-32" transform="scale(0.015625)"/>
       </defs>
       <use xlink:href="#DejaVuSans-32"/>
       <use x="63.623047" xlink:href="#DejaVuSans-30"/>
       <use x="127.246094" xlink:href="#DejaVuSans-30"/>
      </g>
     </g>
    </g>
    <g id="text_6">
     <!-- Position (bp) -->
     <g transform="translate(484.285 379.564837)scale(0.1 -0.1)">
      <defs>
       <path d="M 1259 4147 
L 1259 2394 
L 2053 2394 
Q 2494 2394 2734 2622 
Q 2975 2850 2975 3272 
Q 2975 3691 2734 3919 
Q 2494 4147 2053 4147 
L 1259 4147 
z
M 628 4666 
L 2053 4666 
Q 2838 4666 3239 4311 
Q 3641 3956 3641 3272 
Q 3641 2581 3239 2228 
Q 2838 1875 2053 1875 
L 1259 1875 
L 1259 0 
L 628 0 
L 628 4666 
z
" id="DejaVuSans-50" transform="scale(0.015625)"/>
       <path d="M 1959 3097 
Q 1497 3097 1228 2736 
Q 959 2375 959 1747 
Q 959 1119 1226 758 
Q 1494 397 1959 397 
Q 2419 397 2687 759 
Q 2956 1122 2956 1747 
Q 2956 2369 2687 2733 
Q 2419 3097 1959 3097 
z
M 1959 3584 
Q 2709 3584 3137 3096 
Q 3566 2609 3566 1747 
Q 3566 888 3137 398 
Q 2709 -91 1959 -91 
Q 1206 -91 779 398 
Q 353 888 353 1747 
Q 353 2609 779 3096 
Q 1206 3584 1959 3584 
z
" id="DejaVuSans-6f" transform="scale(0.015625)"/>
       <path d="M 2834 3397 
L 2834 2853 
Q 2591 2978 2328 3040 
Q 2066 3103 1784 3103 
Q 1356 3103 1142 2972 
Q 928 2841 928 2578 
Q 928 2378 1081 2264 
Q 1234 2150 1697 2047 
L 1894 2003 
Q 2506 1872 2764 1633 
Q 3022 1394 3022 966 
Q 3022 478 2636 193 
Q 2250 -91 1575 -91 
Q 1294 -91 989 -36 
Q 684 19 347 128 
L 347 722 
Q 666 556 975 473 
Q 1284 391 1588 391 
Q 1994 391 2212 530 
Q 2431 669 2431 922 
Q 2431 1156 2273 1281 
Q 2116 1406 1581 1522 
L 1381 1569 
Q 847 1681 609 1914 
Q 372 2147 372 2553 
Q 372 3047 722 3315 
Q 1072 3584 1716 3584 
Q 2034 3584 2315 3537 
Q 2597 3491 2834 3397 
z
" id="DejaVuSans-73" transform="scale(0.015625)"/>
       <path d="M 603 3500 
L 1178 3500 
L 1178 0 
L 603 0 
L 603 3500 
z
M 603 4863 
L 1178 4863 
L 1178 4134 
L 603 4134 
L 603 4863 
z
" id="DejaVuSans-69" transform="scale(0.015625)"/>
       <path d="M 1172 4494 
L 1172 3500 
L 2356 3500 
L 2356 3053 
L 1172 3053 
L 1172 1153 
Q 1172 725 1289 603 
Q 1406 481 1766 481 
L 2356 481 
L 2356 0 
L 1766 0 
Q 1100 0 847 248 
Q 594 497 594 1153 
L 594 3053 
L 172 3053 
L 172 3500 
L 594 3500 
L 594 4494 
L 1172 4494 
z
" id="DejaVuSans-74" transform="scale(0.015625)"/>
       <path d="M 3513 2113 
L 3513 0 
L 2938 0 
L 2938 2094 
Q 2938 2591 2744 2837 
Q 2550 3084 2163 3084 
Q 1697 3084 1428 2787 
Q 1159 2491 1159 1978 
L 1159 0 
L 581 0 
L 581 3500 
L 1159 3500 
L 1159 2956 
Q 1366 3272 1645 3428 
Q 1925 3584 2291 3584 
Q 2894 3584 3203 3211 
Q 3513 2838 3513 2113 
z
" id="DejaVuSans-6e" transform="scale(0.015625)"/>
       <path id="DejaVuSans-20" transform="scale(0.015625)"/>
       <path d="M 1984 4856 
Q 1566 4138 1362 3434 
Q 1159 2731 1159 2009 
Q 1159 1288 1364 580 
Q 1569 -128 1984 -844 
L 1484 -844 
Q 1016 -109 783 600 
Q 550 1309 550 2009 
Q 550 2706 781 3412 
Q 1013 4119 1484 4856 
L 1984 4856 
z
" id="DejaVuSans-28" transform="scale(0.015625)"/>
       <path d="M 3116 1747 
Q 3116 2381 2855 2742 
Q 2594 3103 2138 3103 
Q 1681 3103 1420 2742 
Q 1159 2381 1159 1747 
Q 1159 1113 1420 752 
Q 1681 391 2138 391 
Q 2594 391 2855 752 
Q 3116 1113 3116 1747 
z
M 1159 2969 
Q 1341 3281 1617 3432 
Q 1894 3584 2278 3584 
Q 2916 3584 3314 3078 
Q 3713 2572 3713 1747 
Q 3713 922 3314 415 
Q 2916 -91 2278 -91 
Q 1894 -91 1617 61 
Q 1341 213 1159 525 
L 1159 0 
L 581 0 
L 581 4863 
L 1159 4863 
L 1159 2969 
z
" id="DejaVuSans-62" transform="scale(0.015625)"/>
       <path d="M 1159 525 
L 1159 -1331 
L 581 -1331 
L 581 3500 
L 1159 3500 
L 1159 2969 
Q 1341 3281 1617 3432 
Q 1894 3584 2278 3584 
Q 2916 3584 3314 3078 
Q 3713 2572 3713 1747 
Q 3713 922 3314 415 
Q 2916 -91 2278 -91 
Q 1894 -91 1617 61 
Q 1341 213 1159 525 
z
M 3116 1747 
Q 3116 2381 2855 2742 
Q 2594 3103 2138 3103 
Q 1681 3103 1420 2742 
Q 1159 2381 1159 1747 
Q 1159 1113 1420 752 
Q 1681 391 2138 391 
Q 2594 391 2855 752 
Q 3116 1113 3116 1747 
z
" id="DejaVuSans-70" transform="scale(0.015625)"/>
       <path d="M 513 4856 
L 1013 4856 
Q 1481 4119 1714 3412 
Q 1947 2706 1947 2009 
Q 1947 1309 1714 600 
Q 1481 -109 1013 -844 
L 513 -844 
Q 928 -128 1133 580 
Q 1338 1288 1338 2009 
Q 1338 2731 1133 3434 
Q 928 4138 513 4856 
z
" id="DejaVuSans-29" transform="scale(0.015625)"/>
      </defs>
      <use xlink:href="#DejaVuSans-50"/>
      <use x="56.677734" xlink:href="#DejaVuSans-6f"/>
      <use x="117.859375" xlink:href="#DejaVuSans-73"/>
      <use x="169.958984" xlink:href="#DejaVuSans-69"/>
      <use x="197.742188" xlink:href="#DejaVuSans-74"/>
      <use x="236.951172" xlink:href="#DejaVuSans-69"/>
      <use x="264.734375" xlink:href="#DejaVuSans-6f"/>
      <use x="325.916016" xlink:href="#DejaVuSans-6e"/>
      <use x="389.294922" xlink:href="#DejaVuSans-20"/>
      <use x="421.082031" xlink:href="#DejaVuSans-28"/>
      <use x="460.095703" xlink:href="#DejaVuSans-62"/>
      <use x="523.572266" xlink:href="#DejaVuSans-70"/>
      <use x="587.048828" xlink:href="#DejaVuSans-29"/>
     </g>
    </g>
   </g>
   <g id="matplotlib.axis_2">
    <g id="ytick_1">
     <g id="line2d_1">
      <path clip-path="url(#pb79288b77a)" d="M 38.058125 353.2239 
L 993.118125 353.2239 
" style="fill:none;stroke:#dedede;stroke-linecap:square;"/>
     </g>
     <g id="text_7">
      <!-- 0 -->
      <g transform="translate(25.968125 356.263275)scale(0.08 -0.08)">
       <use xlink:href="#DejaVuSans-30"/>
      </g>
     </g>
    </g>
    <g id="ytick_2">
     <g id="line2d_2">
      <path clip-path="url(#pb79288b77a)" d="M 38.058125 306.590844 
L 993.118125 306.590844 
" style="fill:none;stroke:#dedede;stroke-linecap:square;"/>
     </g>
     <g id="text_8">
      <!-- 5 -->
      <g transform="translate(25.968125 309.630219)scale(0.08 -0.08)">
       <use xlink:href="#DejaVuSans-35"/>
      </g>
     </g>
    </g>
    <g id="ytick_3">
     <g id="line2d_3">
      <path clip-path="url(#pb79288b77a)" d="M 38.058125 259.957787 
L 993.118125 259.957787 
" style="fill:none;stroke:#dedede;stroke-linecap:square;"/>
     </g>
     <g id="text_9">
      <!-- 10 -->
      <g transform="translate(20.878125 262.997162)scale(0.08 -0.08)">
       <use xlink:href="#DejaVuSans-31"/>
       <use x="63.623047" xlink:href="#DejaVuSans-30"/>
      </g>
     </g>
    </g>
    <g id="ytick_4">
     <g id="line2d_4">
      <path clip-path="url(#pb79288b77a)" d="M 38.058125 213.324731 
L 993.118125 213.324731 
" style="fill:none;stroke:#dedede;stroke-linecap:square;"/>
     </g>
     <g id="text_10">
      <!-- 15 -->
      <g transform="translate(20.878125 216.364106)scale(0.08 -0.08)">
       <use xlink:href="#DejaVuSans-31"/>
       <use x="63.623047" xlink:href="#DejaVuSans-35"/>
      </g>
     </g>
    </g>
    <g id="ytick_5">
     <g id="line2d_5">
      <path clip-path="url(#pb79288b77a)" d="M 38.058125 166.691674 
L 993.118125 166.691674 
" style="fill:none;stroke:#dedede;stroke-linecap:square;"/>
     </g>
     <g id="text_11">
      <!-- 20 -->
      <g transform="translate(20.878125 169.731049)scale(0.08 -0.08)">
       <use xlink:href="#DejaVuSans-32"/>
       <use x="63.623047" xlink:href="#DejaVuSans-30"/>
      </g>
     </g>
    </g>
    <g id="ytick_6">
     <g id="line2d_6">
      <path clip-path="url(#pb79288b77a)" d="M 38.058125 120.058618 
L 993.118125 120.058618 
" style="fill:none;stroke:#dedede;stroke-linecap:square;"/>
     </g>
     <g id="text_12">
      <!-- 25 -->
      <g transform="translate(20.878125 123.097993)scale(0.08 -0.08)">
       <use xlink:href="#DejaVuSans-32"/>
       <use x="63.623047" xlink:href="#DejaVuSans-35"/>
      </g>
     </g>
    </g>
    <g id="ytick_7">
     <g id="line2d_7">
      <path clip-path="url(#pb79288b77a)" d="M 38.058125 73.425561 
L 993.118125 73.425561 
" style="fill:none;stroke:#dedede;stroke-linecap:square;"/>
     </g>
     <g id="text_13">
      <!-- 30 -->
      <g transform="translate(20.878125 76.464936)scale(0.08 -0.08)">
       <defs>
        <path d="M 2597 2516 
Q 3050 2419 3304 2112 
Q 3559 1806 3559 1356 
Q 3559 666 3084 287 
Q 2609 -91 1734 -91 
Q 1441 -91 1130 -33 
Q 819 25 488 141 
L 488 750 
Q 750 597 1062 519 
Q 1375 441 1716 441 
Q 2309 441 2620 675 
Q 2931 909 2931 1356 
Q 2931 1769 2642 2001 
Q 2353 2234 1838 2234 
L 1294 2234 
L 1294 2753 
L 1863 2753 
Q 2328 2753 2575 2939 
Q 2822 3125 2822 3475 
Q 2822 3834 2567 4026 
Q 2313 4219 1838 4219 
Q 1578 4219 1281 4162 
Q 984 4106 628 3988 
L 628 4550 
Q 988 4650 1302 4700 
Q 1616 4750 1894 4750 
Q 2613 4750 3031 4423 
Q 3450 4097 3450 3541 
Q 3450 3153 3228 2886 
Q 3006 2619 2597 2516 
z
" id="DejaVuSans-33" transform="scale(0.015625)"/>
       </defs>
       <use xlink:href="#DejaVuSans-33"/>
       <use x="63.623047" xlink:href="#DejaVuSans-30"/>
      </g>
     </g>
    </g>
    <g id="text_14">
     <!-- Phred Score -->
     <g transform="translate(14.798438 224.20865)rotate(-90)scale(0.1 -0.1)">
      <defs>
       <path d="M 3513 2113 
L 3513 0 
L 2938 0 
L 2938 2094 
Q 2938 2591 2744 2837 
Q 2550 3084 2163 3084 
Q 1697 3084 1428 2787 
Q 1159 2491 1159 1978 
L 1159 0 
L 581 0 
L 581 4863 
L 1159 4863 
L 1159 2956 
Q 1366 3272 1645 3428 
Q 1925 3584 2291 3584 
Q 2894 3584 3203 3211 
Q 3513 2838 3513 2113 
z
" id="DejaVuSans-68" transform="scale(0.015625)"/>
       <path d="M 2631 2963 
Q 2534 3019 2420 3045 
Q 2306 3072 2169 3072 
Q 1681 3072 1420 2755 
Q 1159 2438 1159 1844 
L 1159 0 
L 581 0 
L 581 3500 
L 1159 3500 
L 1159 2956 
Q 1341 3275 1631 3429 
Q 1922 3584 2338 3584 
Q 2397 3584 2469 3576 
Q 2541 3569 2628 3553 
L 2631 2963 
z
" id="DejaVuSans-72" transform="scale(0.015625)"/>
       <path d="M 3597 1894 
L 3597 1613 
L 953 1613 
Q 991 1019 1311 708 
Q 1631 397 2203 397 
Q 2534 397 2845 478 
Q 3156 559 3463 722 
L 3463 178 
Q 3153 47 2828 -22 
Q 2503 -91 2169 -91 
Q 1331 -91 842 396 
Q 353 884 353 1716 
Q 353 2575 817 3079 
Q 1281 3584 2069 3584 
Q 2775 3584 3186 3129 
Q 3597 2675 3597 1894 
z
M 3022 2063 
Q 3016 2534 2758 2815 
Q 2500 3097 2075 3097 
Q 1594 3097 1305 2825 
Q 1016 2553 972 2059 
L 3022 2063 
z
" id="DejaVuSans-65" transform="scale(0.015625)"/>
       <path d="M 2906 2969 
L 2906 4863 
L 3481 4863 
L 3481 0 
L 2906 0 
L 2906 525 
Q 2725 213 2448 61 
Q 2172 -91 1784 -91 
Q 1150 -91 751 415 
Q 353 922 353 1747 
Q 353 2572 751 3078 
Q 1150 3584 1784 3584 
Q 2172 3584 2448 3432 
Q 2725 3281 2906 2969 
z
M 947 1747 
Q 947 1113 1208 752 
Q 1469 391 1925 391 
Q 2381 391 2643 752 
Q 2906 1113 2906 1747 
Q 2906 2381 2643 2742 
Q 2381 3103 1925 3103 
Q 1469 3103 1208 2742 
Q 947 2381 947 1747 
z
" id="DejaVuSans-64" transform="scale(0.015625)"/>
       <path d="M 3425 4513 
L 3425 3897 
Q 3066 4069 2747 4153 
Q 2428 4238 2131 4238 
Q 1616 4238 1336 4038 
Q 1056 3838 1056 3469 
Q 1056 3159 1242 3001 
Q 1428 2844 1947 2747 
L 2328 2669 
Q 3034 2534 3370 2195 
Q 3706 1856 3706 1288 
Q 3706 609 3251 259 
Q 2797 -91 1919 -91 
Q 1588 -91 1214 -16 
Q 841 59 441 206 
L 441 856 
Q 825 641 1194 531 
Q 1563 422 1919 422 
Q 2459 422 2753 634 
Q 3047 847 3047 1241 
Q 3047 1584 2836 1778 
Q 2625 1972 2144 2069 
L 1759 2144 
Q 1053 2284 737 2584 
Q 422 2884 422 3419 
Q 422 4038 858 4394 
Q 1294 4750 2059 4750 
Q 2388 4750 2728 4690 
Q 3069 4631 3425 4513 
z
" id="DejaVuSans-53" transform="scale(0.015625)"/>
       <path d="M 3122 3366 
L 3122 2828 
Q 2878 2963 2633 3030 
Q 2388 3097 2138 3097 
Q 1578 3097 1268 2742 
Q 959 2388 959 1747 
Q 959 1106 1268 751 
Q 1578 397 2138 397 
Q 2388 397 2633 464 
Q 2878 531 3122 666 
L 3122 134 
Q 2881 22 2623 -34 
Q 2366 -91 2075 -91 
Q 1284 -91 818 406 
Q 353 903 353 1747 
Q 353 2603 823 3093 
Q 1294 3584 2113 3584 
Q 2378 3584 2631 3529 
Q 2884 3475 3122 3366 
z
" id="DejaVuSans-63" transform="scale(0.015625)"/>
      </defs>
      <use xlink:href="#DejaVuSans-50"/>
      <use x="60.302734" xlink:href="#DejaVuSans-68"/>
      <use x="123.681641" xlink:href="#DejaVuSans-72"/>
      <use x="162.544922" xlink:href="#DejaVuSans-65"/>
      <use x="224.068359" xlink:href="#DejaVuSans-64"/>
      <use x="287.544922" xlink:href="#DejaVuSans-20"/>
      <use x="319.332031" xlink:href="#DejaVuSans-53"/>
      <use x="382.808594" xlink:href="#DejaVuSans-63"/>
      <use x="437.789062" xlink:href="#DejaVuSans-6f"/>
      <use x="498.970703" xlink:href="#DejaVuSans-72"/>
      <use x="537.833984" xlink:href="#DejaVuSans-65"/>
     </g>
    </g>
   </g>
   <g id="line2d_8">
    <path clip-path="url(#pb79288b77a)" d="M 81.469943 87.07723 
L 85.624184 136.21893 
L 89.778425 94.760826 
L 93.932666 76.453717 
L 98.086907 98.322176 
L 102.241148 94.88566 
L 106.395389 84.095246 
L 110.54963 150.055968 
L 114.703871 95.873384 
L 127.166594 65.986161 
L 147.937799 76.157879 
L 168.709004 108.61305 
L 189.480209 77.26175 
L 210.251413 83.943257 
L 231.022618 99.699928 
L 251.793823 122.771236 
L 272.565028 76.646816 
L 293.336233 78.431356 
L 314.107438 87.247825 
L 334.878643 96.67314 
L 355.649847 73.173568 
L 376.421052 79.92977 
L 397.192257 101.585019 
L 417.963462 114.28419 
L 438.734667 91.332587 
L 459.505872 102.352284 
L 480.277077 83.952559 
L 501.048282 98.584839 
L 521.819486 92.519224 
L 542.590691 98.594552 
L 563.361896 102.37171 
L 584.133101 87.923774 
L 604.904306 94.832785 
L 625.675511 112.632282 
L 646.446716 101.143416 
L 667.217921 95.34963 
L 687.989125 105.483385 
L 708.76033 107.420119 
L 729.531535 108.373096 
L 750.30274 118.498163 
L 771.073945 110.545543 
L 791.84515 103.369832 
L 812.616355 103.05744 
L 833.38756 115.065888 
L 854.158764 110.409218 
L 874.929969 112.01899 
L 895.701174 103.84803 
L 916.472379 106.075678 
L 937.243584 120.528299 
L 949.706307 116.504771 
" style="fill:none;stroke:#f0ad4e;stroke-linecap:square;"/>
   </g>
   <g id="line2d_9">
    <path clip-path="url(#pb79288b77a)" d="M 81.469943 67.419269 
L 85.624184 99.190995 
L 89.778425 64.62802 
L 93.932666 60.145502 
L 98.086907 67.733201 
L 102.241148 60.527998 
L 106.395389 51.539749 
L 110.54963 121.054268 
L 114.703871 77.523694 
L 127.166594 69.063218 
L 147.937799 76.660203 
L 168.709004 98.003206 
L 189.480209 77.020591 
L 210.251413 82.813987 
L 231.022618 92.747733 
L 251.793823 78.519209 
L 272.565028 67.157028 
L 293.336233 53.538796 
L 314.107438 59.856484 
L 334.878643 70.720152 
L 355.649847 71.885671 
L 376.421052 82.53493 
L 397.192257 88.107251 
L 417.963462 85.384295 
L 438.734667 92.032193 
L 459.505872 69.39386 
L 480.277077 81.674247 
L 501.048282 85.226141 
L 521.819486 99.830414 
L 542.590691 106.76679 
L 563.361896 124.467929 
L 584.133101 157.777791 
L 604.904306 135.109738 
L 625.675511 130.4773 
L 646.446716 117.822002 
L 667.217921 131.786586 
L 687.989125 141.155792 
L 708.76033 134.196607 
L 729.531535 109.702048 
L 750.30274 121.639106 
L 771.073945 131.070803 
L 791.84515 136.606709 
L 812.616355 110.891078 
L 833.38756 115.778065 
L 854.158764 113.633361 
L 874.929969 97.28996 
L 895.701174 91.002532 
L 916.472379 122.107765 
L 937.243584 133.489768 
L 949.706307 146.423609 
" style="fill:none;stroke:#f0ad4e;stroke-linecap:square;"/>
   </g>
   <g id="line2d_10">
    <path clip-path="url(#pb79288b77a)" d="M 81.469943 86.017337 
L 85.624184 140.592225 
L 89.778425 98.456058 
L 93.932666 86.252992 
L 98.086907 84.678717 
L 102.241148 75.54889 
L 106.395389 65.401129 
L 110.54963 136.957786 
L 114.703871 84.440632 
L 127.166594 65.926373 
L 147.937799 74.506661 
L 168.709004 98.602796 
L 189.480209 71.929028 
L 210.251413 85.856022 
L 231.022618 74.967283 
L 251.793823 106.215196 
L 272.565028 80.176969 
L 293.336233 76.316106 
L 314.107438 86.579023 
L 334.878643 104.670074 
L 355.649847 82.092337 
L 376.421052 79.239206 
L 397.192257 100.51282 
L 417.963462 107.965363 
L 438.734667 86.625668 
L 459.505872 82.885792 
L 480.277077 71.344991 
L 501.048282 79.149802 
L 521.819486 70.326085 
L 542.590691 80.531667 
L 563.361896 88.496335 
L 584.133101 65.083358 
L 604.904306 73.660245 
L 625.675511 89.642544 
L 646.446716 77.160093 
L 667.217921 77.299543 
L 687.989125 79.64395 
L 708.76033 75.984731 
L 729.531535 92.63221 
L 750.30274 113.691062 
L 771.073945 104.052025 
L 791.84515 85.795286 
L 812.616355 86.404103 
L 833.38756 106.473688 
L 854.158764 93.860534 
L 874.929969 95.278353 
L 895.701174 93.036468 
L 916.472379 109.475015 
L 937.243584 122.389205 
L 949.706307 112.118991 
" style="fill:none;stroke:#f0ad4e;stroke-linecap:square;"/>
   </g>
   <g id="line2d_11">
    <path clip-path="url(#pb79288b77a)" d="M 81.469943 112.819582 
L 85.624184 112.296834 
L 89.778425 66.740024 
L 93.932666 63.516411 
L 98.086907 66.776753 
L 102.241148 50.915791 
L 106.395389 41.292785 
L 110.54963 114.759387 
L 114.703871 74.01408 
L 127.166594 68.015119 
L 147.937799 67.468625 
L 168.709004 81.732814 
L 189.480209 62.070824 
L 210.251413 69.069328 
L 231.022618 69.49658 
L 251.793823 93.669236 
L 272.565028 59.44598 
L 293.336233 52.343781 
L 314.107438 62.750909 
L 334.878643 72.447886 
L 355.649847 59.801483 
L 376.421052 65.480303 
L 397.192257 97.37101 
L 417.963462 103.657483 
L 438.734667 76.61552 
L 459.505872 82.754735 
L 480.277077 64.831139 
L 501.048282 68.592363 
L 521.819486 67.018139 
L 542.590691 71.899855 
L 563.361896 82.629686 
L 584.133101 70.659609 
L 604.904306 78.026599 
L 625.675511 85.463288 
L 646.446716 83.899827 
L 667.217921 71.027241 
L 687.989125 77.962878 
L 708.76033 74.721669 
L 729.531535 83.623761 
L 750.30274 92.561557 
L 771.073945 81.26217 
L 791.84515 71.70408 
L 812.616355 67.465038 
L 833.38756 75.779978 
L 854.158764 85.955286 
L 874.929969 81.44684 
L 895.701174 72.760339 
L 916.472379 83.00193 
L 937.243584 93.660157 
L 949.706307 93.586089 
" style="fill:none;stroke:#5cb85c;stroke-linecap:square;"/>
   </g>
   <g id="line2d_12">
    <path clip-path="url(#pb79288b77a)" d="M 81.469943 43.173685 
L 85.624184 93.284667 
L 89.778425 59.38021 
L 93.932666 55.032044 
L 98.086907 81.102816 
L 102.241148 78.12152 
L 106.395389 71.376775 
L 110.54963 137.026034 
L 114.703871 87.73973 
L 127.166594 59.303666 
L 147.937799 81.027182 
L 168.709004 113.760687 
L 189.480209 85.050641 
L 210.251413 72.602098 
L 231.022618 89.319225 
L 251.793823 77.127654 
L 272.565028 66.135587 
L 293.336233 62.829887 
L 314.107438 80.055793 
L 334.878643 86.140492 
L 355.649847 77.809874 
L 376.421052 85.718585 
L 397.192257 121.653907 
L 417.963462 133.683277 
L 438.734667 153.063978 
L 459.505872 144.323298 
L 480.277077 130.287971 
L 501.048282 120.428888 
L 521.819486 125.661875 
L 542.590691 131.007552 
L 563.361896 147.0458 
L 584.133101 136.391198 
L 604.904306 118.618544 
L 625.675511 103.49944 
L 646.446716 98.696258 
L 667.217921 91.783844 
L 687.989125 88.794347 
L 708.76033 78.802221 
L 729.531535 82.839652 
L 750.30274 90.875938 
L 771.073945 89.179804 
L 791.84515 88.479359 
L 812.616355 86.77229 
L 833.38756 78.77701 
L 854.158764 89.891792 
L 874.929969 89.345043 
L 895.701174 89.918521 
L 916.472379 94.221429 
L 937.243584 96.574474 
L 949.706307 99.17349 
" style="fill:none;stroke:#f0ad4e;stroke-linecap:square;"/>
   </g>
   <g id="line2d_13">
    <path clip-path="url(#pb79288b77a)" d="M 81.469943 126.489265 
L 85.624184 162.030476 
L 89.778425 118.493753 
L 93.932666 106.602373 
L 98.086907 98.066867 
L 102.241148 78.930389 
L 106.395389 65.793828 
L 110.54963 134.535356 
L 114.703871 77.287062 
L 127.166594 63.993967 
L 147.937799 69.814555 
L 168.709004 88.929278 
L 189.480209 67.095002 
L 210.251413 76.312706 
L 231.022618 69.492601 
L 251.793823 78.377329 
L 272.565028 71.269216 
L 293.336233 62.917415 
L 314.107438 73.824972 
L 334.878643 89.82903 
L 355.649847 80.22939 
L 376.421052 75.78808 
L 397.192257 93.500958 
L 417.963462 101.24698 
L 438.734667 87.595584 
L 459.505872 88.870626 
L 480.277077 76.070187 
L 501.048282 87.216405 
L 521.819486 80.044064 
L 542.590691 81.442407 
L 563.361896 79.001199 
L 584.133101 84.21228 
L 604.904306 83.424904 
L 625.675511 89.282227 
L 646.446716 82.792798 
L 667.217921 84.259293 
L 687.989125 80.749769 
L 708.76033 88.85088 
L 729.531535 90.286801 
L 750.30274 88.405397 
L 771.073945 88.664355 
L 791.84515 84.354128 
L 812.616355 87.431884 
L 833.38756 86.752312 
L 854.158764 90.134384 
L 874.929969 93.303635 
L 895.701174 85.596034 
L 916.472379 101.657576 
L 937.243584 109.1511 
L 949.706307 119.517281 
" style="fill:none;stroke:#d9534f;stroke-linecap:square;"/>
   </g>
   <g id="line2d_14">
    <path clip-path="url(#pb79288b77a)" d="M 81.469943 60.308054 
L 85.624184 106.805177 
L 89.778425 71.212119 
L 93.932666 67.595664 
L 98.086907 69.60854 
L 102.241148 62.337803 
L 106.395389 53.574519 
L 110.54963 124.467542 
L 114.703871 79.02278 
L 127.166594 69.279606 
L 147.937799 69.823258 
L 168.709004 86.850559 
L 189.480209 67.530078 
L 210.251413 77.500108 
L 231.022618 71.079723 
L 251.793823 89.125042 
L 272.565028 70.945096 
L 293.336233 65.842218 
L 314.107438 75.226958 
L 334.878643 91.695122 
L 355.649847 75.452153 
L 376.421052 72.137691 
L 397.192257 93.080283 
L 417.963462 102.481215 
L 438.734667 82.582195 
L 459.505872 83.012664 
L 480.277077 67.111529 
L 501.048282 77.048929 
L 521.819486 70.495196 
L 542.590691 78.970312 
L 563.361896 82.012308 
L 584.133101 75.37658 
L 604.904306 82.466917 
L 625.675511 90.446195 
L 646.446716 82.289972 
L 667.217921 81.282704 
L 687.989125 79.099278 
L 708.76033 79.893761 
L 729.531535 92.416236 
L 750.30274 96.68958 
L 771.073945 89.208207 
L 791.84515 76.448998 
L 812.616355 80.738997 
L 833.38756 87.520075 
L 854.158764 87.473131 
L 874.929969 90.278966 
L 895.701174 85.505403 
L 916.472379 100.001376 
L 937.243584 109.971377 
L 949.706307 115.107159 
" style="fill:none;stroke:#5cb85c;stroke-linecap:square;"/>
   </g>
   <g id="line2d_15">
    <path clip-path="url(#pb79288b77a)" d="M 81.469943 74.356869 
L 85.624184 114.228394 
L 89.778425 78.064192 
L 93.932666 74.277604 
L 98.086907 79.643812 
L 102.241148 72.737289 
L 106.395389 65.547553 
L 110.54963 138.235815 
L 114.703871 86.805598 
L 127.166594 70.757415 
L 147.937799 78.011218 
L 168.709004 102.177823 
L 189.480209 74.328001 
L 210.251413 84.955473 
L 231.022618 80.109924 
L 251.793823 104.57446 
L 272.565028 77.395966 
L 293.336233 69.927907 
L 314.107438 80.549353 
L 334.878643 98.204493 
L 355.649847 74.254763 
L 376.421052 74.853857 
L 397.192257 99.781536 
L 417.963462 105.745003 
L 438.734667 88.751757 
L 459.505872 89.161663 
L 480.277077 80.525639 
L 501.048282 80.132415 
L 521.819486 77.744906 
L 542.590691 80.073545 
L 563.361896 84.161602 
L 584.133101 75.808791 
L 604.904306 85.383591 
L 625.675511 98.258603 
L 646.446716 84.354065 
L 667.217921 73.587847 
L 687.989125 86.31778 
L 708.76033 87.965397 
L 729.531535 95.949267 
L 750.30274 104.846319 
L 771.073945 92.94336 
L 791.84515 81.857113 
L 812.616355 82.253568 
L 833.38756 86.559942 
L 854.158764 91.60647 
L 874.929969 91.102975 
L 895.701174 88.566675 
L 916.472379 100.218082 
L 937.243584 113.045443 
L 949.706307 114.373967 
" style="fill:none;stroke:#5cb85c;stroke-linecap:square;"/>
   </g>
   <g id="line2d_16">
    <path clip-path="url(#pb79288b77a)" d="M 81.469943 112.617826 
L 85.624184 134.728734 
L 89.778425 91.439789 
L 93.932666 81.951039 
L 98.086907 82.698063 
L 102.241148 64.281547 
L 106.395389 53.254009 
L 110.54963 127.873209 
L 114.703871 75.127254 
L 127.166594 63.430089 
L 147.937799 66.505219 
L 168.709004 96.976751 
L 189.480209 79.389438 
L 210.251413 85.188728 
L 231.022618 89.427815 
L 251.793823 99.904312 
L 272.565028 73.747583 
L 293.336233 73.714964 
L 314.107438 87.726429 
L 334.878643 89.043462 
L 355.649847 70.821361 
L 376.421052 69.193013 
L 397.192257 108.529787 
L 417.963462 116.724525 
L 438.734667 111.411804 
L 459.505872 112.125559 
L 480.277077 97.557659 
L 501.048282 91.119488 
L 521.819486 81.351929 
L 542.590691 86.877227 
L 563.361896 100.504149 
L 584.133101 84.431188 
L 604.904306 86.451996 
L 625.675511 89.453054 
L 646.446716 82.680663 
L 667.217921 87.639585 
L 687.989125 93.405377 
L 708.76033 100.155053 
L 729.531535 109.528356 
L 750.30274 113.450775 
L 771.073945 105.322346 
L 791.84515 98.804636 
L 812.616355 93.65761 
L 833.38756 103.059287 
L 854.158764 110.75866 
L 874.929969 107.743644 
L 895.701174 96.576222 
L 916.472379 104.357888 
L 937.243584 113.258333 
L 949.706307 111.711792 
" style="fill:none;stroke:#5cb85c;stroke-linecap:square;"/>
   </g>
   <g id="line2d_17">
    <path clip-path="url(#pb79288b77a)" d="M 81.469943 105.85649 
L 85.624184 147.597133 
L 89.778425 104.130455 
L 93.932666 89.036797 
L 98.086907 91.590999 
L 102.241148 79.739866 
L 106.395389 69.704699 
L 110.54963 140.553596 
L 114.703871 89.227331 
L 127.166594 67.473583 
L 147.937799 72.860295 
L 168.709004 97.22027 
L 189.480209 70.737385 
L 210.251413 75.657879 
L 231.022618 73.271934 
L 251.793823 104.355761 
L 272.565028 71.350896 
L 293.336233 66.650884 
L 314.107438 72.596927 
L 334.878643 85.491906 
L 355.649847 67.74102 
L 376.421052 69.021556 
L 397.192257 96.936937 
L 417.963462 106.800156 
L 438.734667 77.279797 
L 459.505872 90.984447 
L 480.277077 68.0545 
L 501.048282 71.294803 
L 521.819486 65.283307 
L 542.590691 79.26671 
L 563.361896 92.168182 
L 584.133101 70.400293 
L 604.904306 84.613315 
L 625.675511 100.556218 
L 646.446716 91.32374 
L 667.217921 76.050219 
L 687.989125 83.570825 
L 708.76033 85.733487 
L 729.531535 107.21902 
L 750.30274 113.892138 
L 771.073945 95.783994 
L 791.84515 76.189729 
L 812.616355 74.02889 
L 833.38756 82.18784 
L 854.158764 88.662888 
L 874.929969 90.30426 
L 895.701174 86.228008 
L 916.472379 96.340767 
L 937.243584 105.319337 
L 949.706307 104.788423 
" style="fill:none;stroke:#f0ad4e;stroke-linecap:square;"/>
   </g>
   <g id="line2d_18">
    <path clip-path="url(#pb79288b77a)" d="M 81.469943 138.776883 
L 85.624184 150.845555 
L 89.778425 112.585734 
L 93.932666 101.530886 
L 98.086907 107.51096 
L 102.241148 86.049574 
L 106.395389 80.330732 
L 110.54963 142.42071 
L 114.703871 86.623296 
L 127.166594 66.606573 
L 147.937799 78.699141 
L 168.709004 104.553197 
L 189.480209 76.022335 
L 210.251413 77.853651 
L 231.022618 75.406123 
L 251.793823 105.623509 
L 272.565028 71.026603 
L 293.336233 66.8157 
L 314.107438 73.089176 
L 334.878643 84.677801 
L 355.649847 67.556272 
L 376.421052 70.204798 
L 397.192257 96.28495 
L 417.963462 105.897044 
L 438.734667 78.431969 
L 459.505872 93.653463 
L 480.277077 70.656352 
L 501.048282 73.05722 
L 521.819486 65.756347 
L 542.590691 82.442016 
L 563.361896 98.412283 
L 584.133101 72.724722 
L 604.904306 86.345449 
L 625.675511 100.264526 
L 646.446716 92.438359 
L 667.217921 76.47898 
L 687.989125 84.173152 
L 708.76033 85.301366 
L 729.531535 109.147713 
L 750.30274 115.197143 
L 771.073945 95.849444 
L 791.84515 75.056941 
L 812.616355 73.762866 
L 833.38756 82.134829 
L 854.158764 89.476354 
L 874.929969 90.617294 
L 895.701174 86.801811 
L 916.472379 95.237332 
L 937.243584 102.8537 
L 949.706307 102.683409 
" style="fill:none;stroke:#f0ad4e;stroke-linecap:square;"/>
   </g>
   <g id="line2d_19">
    <path clip-path="url(#pb79288b77a)" d="M 81.469943 60.090301 
L 85.624184 117.541494 
L 89.778425 71.358684 
L 93.932666 61.393013 
L 98.086907 84.422443 
L 102.241148 80.249243 
L 106.395389 91.912087 
L 110.54963 161.557078 
L 114.703871 100.162925 
L 127.166594 67.974472 
L 147.937799 72.255745 
L 168.709004 95.47752 
L 189.480209 73.89294 
L 210.251413 87.132407 
L 231.022618 81.429358 
L 251.793823 90.273176 
L 272.565028 62.820236 
L 293.336233 67.753673 
L 314.107438 75.25827 
L 334.878643 78.810203 
L 355.649847 64.147111 
L 376.421052 73.696766 
L 397.192257 98.338205 
L 417.963462 114.117341 
L 438.734667 89.50495 
L 459.505872 98.661267 
L 480.277077 80.274363 
L 501.048282 95.870991 
L 521.819486 82.902266 
L 542.590691 86.732896 
L 563.361896 100.712134 
L 584.133101 90.447861 
L 604.904306 99.588465 
L 625.675511 112.925672 
L 646.446716 104.940493 
L 667.217921 93.656496 
L 687.989125 98.538043 
L 708.76033 97.808108 
L 729.531535 104.020755 
L 750.30274 118.537384 
L 771.073945 109.344791 
L 791.84515 97.711061 
L 812.616355 97.961106 
L 833.38756 108.056801 
L 854.158764 107.191397 
L 874.929969 107.907203 
L 895.701174 98.024154 
L 916.472379 105.233747 
L 937.243584 118.25229 
L 949.706307 115.90965 
" style="fill:none;stroke:#f0ad4e;stroke-linecap:square;"/>
   </g>
   <g id="line2d_20">
    <path clip-path="url(#pb79288b77a)" d="M 81.469943 50.226153 
L 85.624184 89.807425 
L 89.778425 58.947344 
L 93.932666 58.514712 
L 98.086907 71.447249 
L 102.241148 65.018726 
L 106.395389 54.341689 
L 110.54963 130.460614 
L 114.703871 84.815227 
L 127.166594 74.752365 
L 147.937799 77.004264 
L 168.709004 105.514093 
L 189.480209 81.000138 
L 210.251413 84.923757 
L 231.022618 87.56101 
L 251.793823 107.603743 
L 272.565028 68.248879 
L 293.336233 73.927804 
L 314.107438 85.034169 
L 334.878643 89.599418 
L 355.649847 73.981458 
L 376.421052 76.893554 
L 397.192257 108.26285 
L 417.963462 124.560599 
L 438.734667 107.793248 
L 459.505872 107.453982 
L 480.277077 97.610062 
L 501.048282 91.926017 
L 521.819486 79.97421 
L 542.590691 87.261323 
L 563.361896 103.893318 
L 584.133101 85.765431 
L 604.904306 87.398992 
L 625.675511 91.565837 
L 646.446716 92.681991 
L 667.217921 96.595765 
L 687.989125 98.191662 
L 708.76033 98.951568 
L 729.531535 109.02781 
L 750.30274 116.178113 
L 771.073945 102.1542 
L 791.84515 93.412592 
L 812.616355 86.388527 
L 833.38756 93.491387 
L 854.158764 101.807401 
L 874.929969 96.84454 
L 895.701174 89.399506 
L 916.472379 90.599114 
L 937.243584 100.838144 
L 949.706307 104.960935 
" style="fill:none;stroke:#f0ad4e;stroke-linecap:square;"/>
   </g>
   <g id="line2d_21">
    <path clip-path="url(#pb79288b77a)" d="M 81.469943 83.580902 
L 85.624184 117.364112 
L 89.778425 76.523069 
L 93.932666 73.230121 
L 98.086907 88.91916 
L 102.241148 80.189476 
L 106.395389 74.477759 
L 110.54963 146.027988 
L 114.703871 96.458776 
L 127.166594 73.049073 
L 147.937799 81.069868 
L 168.709004 106.873947 
L 189.480209 75.671311 
L 210.251413 79.605275 
L 231.022618 77.82131 
L 251.793823 108.348994 
L 272.565028 73.977037 
L 293.336233 65.441582 
L 314.107438 74.37807 
L 334.878643 85.082916 
L 355.649847 69.681736 
L 376.421052 76.289449 
L 397.192257 100.81574 
L 417.963462 108.411262 
L 438.734667 87.875143 
L 459.505872 100.208207 
L 480.277077 79.036982 
L 501.048282 76.49595 
L 521.819486 75.005904 
L 542.590691 89.569113 
L 563.361896 103.061187 
L 584.133101 78.6561 
L 604.904306 85.353503 
L 625.675511 97.879433 
L 646.446716 92.719193 
L 667.217921 79.519675 
L 687.989125 85.534097 
L 708.76033 86.302527 
L 729.531535 106.052187 
L 750.30274 117.931344 
L 771.073945 103.264809 
L 791.84515 84.501291 
L 812.616355 83.44076 
L 833.38756 90.234521 
L 854.158764 93.00796 
L 874.929969 93.889565 
L 895.701174 92.853577 
L 916.472379 100.774228 
L 937.243584 109.694432 
L 949.706307 108.714204 
" style="fill:none;stroke:#f0ad4e;stroke-linecap:square;"/>
   </g>
   <g id="line2d_22">
    <path clip-path="url(#pb79288b77a)" d="M 81.469943 72.153961 
L 85.624184 129.005438 
L 89.778425 90.045002 
L 93.932666 83.37592 
L 98.086907 89.311836 
L 102.241148 81.484036 
L 106.395389 72.242304 
L 110.54963 149.120662 
L 114.703871 94.829564 
L 127.166594 68.25324 
L 147.937799 74.938981 
L 168.709004 109.56613 
L 189.480209 85.959799 
L 210.251413 96.473132 
L 231.022618 95.787371 
L 251.793823 120.893004 
L 272.565028 78.33825 
L 293.336233 82.645005 
L 314.107438 88.104299 
L 334.878643 97.848262 
L 355.649847 77.128202 
L 376.421052 82.318394 
L 397.192257 105.115426 
L 417.963462 123.565314 
L 438.734667 100.904319 
L 459.505872 106.933026 
L 480.277077 89.583219 
L 501.048282 94.958067 
L 521.819486 81.224751 
L 542.590691 90.017864 
L 563.361896 103.809787 
L 584.133101 80.126229 
L 604.904306 84.388379 
L 625.675511 96.083958 
L 646.446716 90.72395 
L 667.217921 87.097701 
L 687.989125 92.573018 
L 708.76033 94.133554 
L 729.531535 107.460836 
L 750.30274 118.776479 
L 771.073945 106.566342 
L 791.84515 86.549162 
L 812.616355 87.325027 
L 833.38756 102.265101 
L 854.158764 97.780648 
L 874.929969 98.668329 
L 895.701174 90.153324 
L 916.472379 93.398108 
L 937.243584 105.792068 
L 949.706307 105.264363 
" style="fill:none;stroke:#f0ad4e;stroke-linecap:square;"/>
   </g>
   <g id="line2d_23">
    <path clip-path="url(#pb79288b77a)" d="M 81.469943 72.887587 
L 85.624184 135.666144 
L 89.778425 88.241423 
L 93.932666 93.434937 
L 98.086907 94.808662 
L 102.241148 94.796738 
L 106.395389 74.591564 
L 110.54963 156.249265 
L 114.703871 108.690403 
L 127.166594 96.475644 
L 147.937799 89.041685 
L 168.709004 118.909057 
L 189.480209 97.749901 
L 210.251413 85.113925 
L 231.022618 115.677415 
L 251.793823 89.447025 
L 272.565028 72.598346 
L 293.336233 73.854435 
L 314.107438 79.311303 
L 334.878643 79.150899 
L 355.649847 65.602673 
L 376.421052 65.633894 
L 397.192257 96.044794 
L 417.963462 110.201469 
L 438.734667 117.944437 
L 459.505872 103.318851 
L 480.277077 100.704507 
L 501.048282 100.122729 
L 521.819486 104.806352 
L 542.590691 111.297782 
L 563.361896 129.670643 
L 584.133101 131.966909 
L 604.904306 126.35905 
L 625.675511 111.621099 
L 646.446716 103.641353 
L 667.217921 114.270618 
L 687.989125 109.405976 
L 708.76033 110.838315 
L 729.531535 104.656836 
L 750.30274 117.886106 
L 771.073945 100.330326 
L 791.84515 78.234037 
L 812.616355 66.894157 
L 833.38756 71.752743 
L 854.158764 83.764644 
L 874.929969 80.171026 
L 895.701174 72.947896 
L 916.472379 82.51574 
L 937.243584 93.368484 
L 949.706307 108.404013 
" style="fill:none;stroke:#f0ad4e;stroke-linecap:square;"/>
   </g>
   <g id="line2d_24">
    <path clip-path="url(#pb79288b77a)" d="M 81.469943 68.237684 
L 85.624184 111.869691 
L 89.778425 74.113422 
L 93.932666 71.852291 
L 98.086907 77.603449 
L 102.241148 69.436546 
L 106.395389 57.274622 
L 110.54963 129.207035 
L 114.703871 79.515533 
L 127.166594 62.318832 
L 147.937799 71.202204 
L 168.709004 97.803958 
L 189.480209 70.809999 
L 210.251413 80.619537 
L 231.022618 90.735542 
L 251.793823 109.214975 
L 272.565028 73.63539 
L 293.336233 74.023992 
L 314.107438 82.472045 
L 334.878643 89.402889 
L 355.649847 70.571027 
L 376.421052 73.580664 
L 397.192257 95.293533 
L 417.963462 111.545649 
L 438.734667 86.28291 
L 459.505872 95.86896 
L 480.277077 77.745693 
L 501.048282 94.522515 
L 521.819486 85.120488 
L 542.590691 91.899121 
L 563.361896 99.875416 
L 584.133101 85.402395 
L 604.904306 88.327673 
L 625.675511 101.270137 
L 646.446716 94.446432 
L 667.217921 93.886488 
L 687.989125 95.919148 
L 708.76033 99.97072 
L 729.531535 106.994866 
L 750.30274 115.368705 
L 771.073945 108.089748 
L 791.84515 94.436332 
L 812.616355 98.639892 
L 833.38756 113.164925 
L 854.158764 102.353495 
L 874.929969 102.844164 
L 895.701174 99.714797 
L 916.472379 109.41813 
L 937.243584 119.698526 
L 949.706307 114.767665 
" style="fill:none;stroke:#5cb85c;stroke-linecap:square;"/>
   </g>
   <g id="line2d_25">
    <path clip-path="url(#pb79288b77a)" d="M 38.058125 353.2239 
L 993.118125 353.2239 
" style="fill:none;stroke:#dedede;stroke-linecap:square;stroke-width:2;"/>
   </g>
   <g id="text_15">
    <!-- FastQC: Mean Quality Scores -->
    <g transform="translate(400.349375 19.3575)scale(0.16 -0.16)">
     <defs>
      <path d="M 628 4666 
L 3309 4666 
L 3309 4134 
L 1259 4134 
L 1259 2759 
L 3109 2759 
L 3109 2228 
L 1259 2228 
L 1259 0 
L 628 0 
L 628 4666 
z
" id="DejaVuSans-46" transform="scale(0.015625)"/>
      <path d="M 2194 1759 
Q 1497 1759 1228 1600 
Q 959 1441 959 1056 
Q 959 750 1161 570 
Q 1363 391 1709 391 
Q 2188 391 2477 730 
Q 2766 1069 2766 1631 
L 2766 1759 
L 2194 1759 
z
M 3341 1997 
L 3341 0 
L 2766 0 
L 2766 531 
Q 2569 213 2275 61 
Q 1981 -91 1556 -91 
Q 1019 -91 701 211 
Q 384 513 384 1019 
Q 384 1609 779 1909 
Q 1175 2209 1959 2209 
L 2766 2209 
L 2766 2266 
Q 2766 2663 2505 2880 
Q 2244 3097 1772 3097 
Q 1472 3097 1187 3025 
Q 903 2953 641 2809 
L 641 3341 
Q 956 3463 1253 3523 
Q 1550 3584 1831 3584 
Q 2591 3584 2966 3190 
Q 3341 2797 3341 1997 
z
" id="DejaVuSans-61" transform="scale(0.015625)"/>
      <path d="M 2522 4238 
Q 1834 4238 1429 3725 
Q 1025 3213 1025 2328 
Q 1025 1447 1429 934 
Q 1834 422 2522 422 
Q 3209 422 3611 934 
Q 4013 1447 4013 2328 
Q 4013 3213 3611 3725 
Q 3209 4238 2522 4238 
z
M 3406 84 
L 4238 -825 
L 3475 -825 
L 2784 -78 
Q 2681 -84 2626 -87 
Q 2572 -91 2522 -91 
Q 1538 -91 948 567 
Q 359 1225 359 2328 
Q 359 3434 948 4092 
Q 1538 4750 2522 4750 
Q 3503 4750 4090 4092 
Q 4678 3434 4678 2328 
Q 4678 1516 4351 937 
Q 4025 359 3406 84 
z
" id="DejaVuSans-51" transform="scale(0.015625)"/>
      <path d="M 4122 4306 
L 4122 3641 
Q 3803 3938 3442 4084 
Q 3081 4231 2675 4231 
Q 1875 4231 1450 3742 
Q 1025 3253 1025 2328 
Q 1025 1406 1450 917 
Q 1875 428 2675 428 
Q 3081 428 3442 575 
Q 3803 722 4122 1019 
L 4122 359 
Q 3791 134 3420 21 
Q 3050 -91 2638 -91 
Q 1578 -91 968 557 
Q 359 1206 359 2328 
Q 359 3453 968 4101 
Q 1578 4750 2638 4750 
Q 3056 4750 3426 4639 
Q 3797 4528 4122 4306 
z
" id="DejaVuSans-43" transform="scale(0.015625)"/>
      <path d="M 750 794 
L 1409 794 
L 1409 0 
L 750 0 
L 750 794 
z
M 750 3309 
L 1409 3309 
L 1409 2516 
L 750 2516 
L 750 3309 
z
" id="DejaVuSans-3a" transform="scale(0.015625)"/>
      <path d="M 628 4666 
L 1569 4666 
L 2759 1491 
L 3956 4666 
L 4897 4666 
L 4897 0 
L 4281 0 
L 4281 4097 
L 3078 897 
L 2444 897 
L 1241 4097 
L 1241 0 
L 628 0 
L 628 4666 
z
" id="DejaVuSans-4d" transform="scale(0.015625)"/>
      <path d="M 544 1381 
L 544 3500 
L 1119 3500 
L 1119 1403 
Q 1119 906 1312 657 
Q 1506 409 1894 409 
Q 2359 409 2629 706 
Q 2900 1003 2900 1516 
L 2900 3500 
L 3475 3500 
L 3475 0 
L 2900 0 
L 2900 538 
Q 2691 219 2414 64 
Q 2138 -91 1772 -91 
Q 1169 -91 856 284 
Q 544 659 544 1381 
z
M 1991 3584 
L 1991 3584 
z
" id="DejaVuSans-75" transform="scale(0.015625)"/>
      <path d="M 603 4863 
L 1178 4863 
L 1178 0 
L 603 0 
L 603 4863 
z
" id="DejaVuSans-6c" transform="scale(0.015625)"/>
      <path d="M 2059 -325 
Q 1816 -950 1584 -1140 
Q 1353 -1331 966 -1331 
L 506 -1331 
L 506 -850 
L 844 -850 
Q 1081 -850 1212 -737 
Q 1344 -625 1503 -206 
L 1606 56 
L 191 3500 
L 800 3500 
L 1894 763 
L 2988 3500 
L 3597 3500 
L 2059 -325 
z
" id="DejaVuSans-79" transform="scale(0.015625)"/>
     </defs>
     <use xlink:href="#DejaVuSans-46"/>
     <use x="48.394531" xlink:href="#DejaVuSans-61"/>
     <use x="109.673828" xlink:href="#DejaVuSans-73"/>
     <use x="161.773438" xlink:href="#DejaVuSans-74"/>
     <use x="200.982422" xlink:href="#DejaVuSans-51"/>
     <use x="279.693359" xlink:href="#DejaVuSans-43"/>
     <use x="349.517578" xlink:href="#DejaVuSans-3a"/>
     <use x="383.208984" xlink:href="#DejaVuSans-20"/>
     <use x="414.996094" xlink:href="#DejaVuSans-4d"/>
     <use x="501.275391" xlink:href="#DejaVuSans-65"/>
     <use x="562.798828" xlink:href="#DejaVuSans-61"/>
     <use x="624.078125" xlink:href="#DejaVuSans-6e"/>
     <use x="687.457031" xlink:href="#DejaVuSans-20"/>
     <use x="719.244141" xlink:href="#DejaVuSans-51"/>
     <use x="797.955078" xlink:href="#DejaVuSans-75"/>
     <use x="861.333984" xlink:href="#DejaVuSans-61"/>
     <use x="922.613281" xlink:href="#DejaVuSans-6c"/>
     <use x="950.396484" xlink:href="#DejaVuSans-69"/>
     <use x="978.179688" xlink:href="#DejaVuSans-74"/>
     <use x="1017.388672" xlink:href="#DejaVuSans-79"/>
     <use x="1076.568359" xlink:href="#DejaVuSans-20"/>
     <use x="1108.355469" xlink:href="#DejaVuSans-53"/>
     <use x="1171.832031" xlink:href="#DejaVuSans-63"/>
     <use x="1226.8125" xlink:href="#DejaVuSans-6f"/>
     <use x="1287.994141" xlink:href="#DejaVuSans-72"/>
     <use x="1326.857422" xlink:href="#DejaVuSans-65"/>
     <use x="1388.380859" xlink:href="#DejaVuSans-73"/>
    </g>
   </g>
  </g>
 </g>
 <defs>
  <clipPath id="pb79288b77a">
   <rect height="317.968" width="955.06" x="38.058125" y="35.2559"/>
  </clipPath>
 </defs>
</svg>
