<?xml version="1.0" encoding="utf-8" standalone="no"?>
<!DOCTYPE svg PUBLIC "-//W3C//DTD SVG 1.1//EN"
  "http://www.w3.org/Graphics/SVG/1.1/DTD/svg11.dtd">
<svg height="388.844525pt" version="1.1" viewBox="0 0 1000.138125 388.844525" width="1000.138125pt" xmlns="http://www.w3.org/2000/svg" xmlns:xlink="http://www.w3.org/1999/xlink">
 <metadata>
  <rdf:RDF xmlns:cc="http://creativecommons.org/ns#" xmlns:dc="http://purl.org/dc/elements/1.1/" xmlns:rdf="http://www.w3.org/1999/02/22-rdf-syntax-ns#">
   <cc:Work>
    <dc:type rdf:resource="http://purl.org/dc/dcmitype/StillImage"/>
    <dc:date>2022-02-25T10:12:51.124181</dc:date>
    <dc:format>image/svg+xml</dc:format>
    <dc:creator>
     <cc:Agent>
      <dc:title>Matplotlib v3.4.2, https://matplotlib.org/</dc:title>
     </cc:Agent>
    </dc:creator>
   </cc:Work>
  </rdf:RDF>
 </metadata>
 <defs>
  <style type="text/css">*{stroke-linecap:butt;stroke-linejoin:round;}</style>
 </defs>
 <g id="figure_1">
  <g id="axes_1">
   <g id="patch_1">
    <path d="M 53.328125 353.2239 
L 985.303125 353.2239 
L 985.303125 35.2559 
L 53.328125 35.2559 
z
" style="fill:#ffffff;"/>
   </g>
   <g id="matplotlib.axis_1">
    <g id="xtick_1">
     <g id="text_1">
      <!-- 0 -->
      <g transform="translate(50.783125 366.30265)scale(0.08 -0.08)">
       <defs>
        <path d="M 2034 4250 
Q 1547 4250 1301 3770 
Q 1056 3291 1056 2328 
Q 1056 1369 1301 889 
Q 1547 409 2034 409 
Q 2525 409 2770 889 
Q 3016 1369 3016 2328 
Q 3016 3291 2770 3770 
Q 2525 4250 2034 4250 
z
M 2034 4750 
Q 2819 4750 3233 4129 
Q 3647 3509 3647 2328 
Q 3647 1150 3233 529 
Q 2819 -91 2034 -91 
Q 1250 -91 836 529 
Q 422 1150 422 2328 
Q 422 3509 836 4129 
Q 1250 4750 2034 4750 
z
" id="DejaVuSans-30" transform="scale(0.015625)"/>
       </defs>
       <use xlink:href="#DejaVuSans-30"/>
      </g>
     </g>
    </g>
    <g id="xtick_2">
     <g id="text_2">
      <!-- 20 -->
      <g transform="translate(234.633125 366.30265)scale(0.08 -0.08)">
       <defs>
        <path d="M 1228 531 
L 3431 531 
L 3431 0 
L 469 0 
L 469 531 
Q 828 903 1448 1529 
Q 2069 2156 2228 2338 
Q 2531 2678 2651 2914 
Q 2772 3150 2772 3378 
Q 2772 3750 2511 3984 
Q 2250 4219 1831 4219 
Q 1534 4219 1204 4116 
Q 875 4013 500 3803 
L 500 4441 
Q 881 4594 1212 4672 
Q 1544 4750 1819 4750 
Q 2544 4750 2975 4387 
Q 3406 4025 3406 3419 
Q 3406 3131 3298 2873 
Q 3191 2616 2906 2266 
Q 2828 2175 2409 1742 
Q 1991 1309 1228 531 
z
" id="DejaVuSans-32" transform="scale(0.015625)"/>
       </defs>
       <use xlink:href="#DejaVuSans-32"/>
       <use x="63.623047" xlink:href="#DejaVuSans-30"/>
      </g>
     </g>
    </g>
    <g id="xtick_3">
     <g id="text_3">
      <!-- 40 -->
      <g transform="translate(421.028125 366.30265)scale(0.08 -0.08)">
       <defs>
        <path d="M 2419 4116 
L 825 1625 
L 2419 1625 
L 2419 4116 
z
M 2253 4666 
L 3047 4666 
L 3047 1625 
L 3713 1625 
L 3713 1100 
L 3047 1100 
L 3047 0 
L 2419 0 
L 2419 1100 
L 313 1100 
L 313 1709 
L 2253 4666 
z
" id="DejaVuSans-34" transform="scale(0.015625)"/>
       </defs>
       <use xlink:href="#DejaVuSans-34"/>
       <use x="63.623047" xlink:href="#DejaVuSans-30"/>
      </g>
     </g>
    </g>
    <g id="xtick_4">
     <g id="text_4">
      <!-- 60 -->
      <g transform="translate(607.423125 366.30265)scale(0.08 -0.08)">
       <defs>
        <path d="M 2113 2584 
Q 1688 2584 1439 2293 
Q 1191 2003 1191 1497 
Q 1191 994 1439 701 
Q 1688 409 2113 409 
Q 2538 409 2786 701 
Q 3034 994 3034 1497 
Q 3034 2003 2786 2293 
Q 2538 2584 2113 2584 
z
M 3366 4563 
L 3366 3988 
Q 3128 4100 2886 4159 
Q 2644 4219 2406 4219 
Q 1781 4219 1451 3797 
Q 1122 3375 1075 2522 
Q 1259 2794 1537 2939 
Q 1816 3084 2150 3084 
Q 2853 3084 3261 2657 
Q 3669 2231 3669 1497 
Q 3669 778 3244 343 
Q 2819 -91 2113 -91 
Q 1303 -91 875 529 
Q 447 1150 447 2328 
Q 447 3434 972 4092 
Q 1497 4750 2381 4750 
Q 2619 4750 2861 4703 
Q 3103 4656 3366 4563 
z
" id="DejaVuSans-36" transform="scale(0.015625)"/>
       </defs>
       <use xlink:href="#DejaVuSans-36"/>
       <use x="63.623047" xlink:href="#DejaVuSans-30"/>
      </g>
     </g>
    </g>
    <g id="xtick_5">
     <g id="text_5">
      <!-- 80 -->
      <g transform="translate(793.818125 366.30265)scale(0.08 -0.08)">
       <defs>
        <path d="M 2034 2216 
Q 1584 2216 1326 1975 
Q 1069 1734 1069 1313 
Q 1069 891 1326 650 
Q 1584 409 2034 409 
Q 2484 409 2743 651 
Q 3003 894 3003 1313 
Q 3003 1734 2745 1975 
Q 2488 2216 2034 2216 
z
M 1403 2484 
Q 997 2584 770 2862 
Q 544 3141 544 3541 
Q 544 4100 942 4425 
Q 1341 4750 2034 4750 
Q 2731 4750 3128 4425 
Q 3525 4100 3525 3541 
Q 3525 3141 3298 2862 
Q 3072 2584 2669 2484 
Q 3125 2378 3379 2068 
Q 3634 1759 3634 1313 
Q 3634 634 3220 271 
Q 2806 -91 2034 -91 
Q 1263 -91 848 271 
Q 434 634 434 1313 
Q 434 1759 690 2068 
Q 947 2378 1403 2484 
z
M 1172 3481 
Q 1172 3119 1398 2916 
Q 1625 2713 2034 2713 
Q 2441 2713 2670 2916 
Q 2900 3119 2900 3481 
Q 2900 3844 2670 4047 
Q 2441 4250 2034 4250 
Q 1625 4250 1398 4047 
Q 1172 3844 1172 3481 
z
" id="DejaVuSans-38" transform="scale(0.015625)"/>
       </defs>
       <use xlink:href="#DejaVuSans-38"/>
       <use x="63.623047" xlink:href="#DejaVuSans-30"/>
      </g>
     </g>
    </g>
    <g id="xtick_6">
     <g id="text_6">
      <!-- 100 -->
      <g transform="translate(977.668125 366.30265)scale(0.08 -0.08)">
       <defs>
        <path d="M 794 531 
L 1825 531 
L 1825 4091 
L 703 3866 
L 703 4441 
L 1819 4666 
L 2450 4666 
L 2450 531 
L 3481 531 
L 3481 0 
L 794 0 
L 794 531 
z
" id="DejaVuSans-31" transform="scale(0.015625)"/>
       </defs>
       <use xlink:href="#DejaVuSans-31"/>
       <use x="63.623047" xlink:href="#DejaVuSans-30"/>
       <use x="127.246094" xlink:href="#DejaVuSans-30"/>
      </g>
     </g>
    </g>
    <g id="text_7">
     <!-- % GC -->
     <g transform="translate(505.610156 379.564837)scale(0.1 -0.1)">
      <defs>
       <path d="M 4653 2053 
Q 4381 2053 4226 1822 
Q 4072 1591 4072 1178 
Q 4072 772 4226 539 
Q 4381 306 4653 306 
Q 4919 306 5073 539 
Q 5228 772 5228 1178 
Q 5228 1588 5073 1820 
Q 4919 2053 4653 2053 
z
M 4653 2450 
Q 5147 2450 5437 2106 
Q 5728 1763 5728 1178 
Q 5728 594 5436 251 
Q 5144 -91 4653 -91 
Q 4153 -91 3862 251 
Q 3572 594 3572 1178 
Q 3572 1766 3864 2108 
Q 4156 2450 4653 2450 
z
M 1428 4353 
Q 1159 4353 1004 4120 
Q 850 3888 850 3481 
Q 850 3069 1003 2837 
Q 1156 2606 1428 2606 
Q 1700 2606 1854 2837 
Q 2009 3069 2009 3481 
Q 2009 3884 1853 4118 
Q 1697 4353 1428 4353 
z
M 4250 4750 
L 4750 4750 
L 1831 -91 
L 1331 -91 
L 4250 4750 
z
M 1428 4750 
Q 1922 4750 2215 4408 
Q 2509 4066 2509 3481 
Q 2509 2891 2217 2550 
Q 1925 2209 1428 2209 
Q 931 2209 642 2551 
Q 353 2894 353 3481 
Q 353 4063 643 4406 
Q 934 4750 1428 4750 
z
" id="DejaVuSans-25" transform="scale(0.015625)"/>
       <path id="DejaVuSans-20" transform="scale(0.015625)"/>
       <path d="M 3809 666 
L 3809 1919 
L 2778 1919 
L 2778 2438 
L 4434 2438 
L 4434 434 
Q 4069 175 3628 42 
Q 3188 -91 2688 -91 
Q 1594 -91 976 548 
Q 359 1188 359 2328 
Q 359 3472 976 4111 
Q 1594 4750 2688 4750 
Q 3144 4750 3555 4637 
Q 3966 4525 4313 4306 
L 4313 3634 
Q 3963 3931 3569 4081 
Q 3175 4231 2741 4231 
Q 1884 4231 1454 3753 
Q 1025 3275 1025 2328 
Q 1025 1384 1454 906 
Q 1884 428 2741 428 
Q 3075 428 3337 486 
Q 3600 544 3809 666 
z
" id="DejaVuSans-47" transform="scale(0.015625)"/>
       <path d="M 4122 4306 
L 4122 3641 
Q 3803 3938 3442 4084 
Q 3081 4231 2675 4231 
Q 1875 4231 1450 3742 
Q 1025 3253 1025 2328 
Q 1025 1406 1450 917 
Q 1875 428 2675 428 
Q 3081 428 3442 575 
Q 3803 722 4122 1019 
L 4122 359 
Q 3791 134 3420 21 
Q 3050 -91 2638 -91 
Q 1578 -91 968 557 
Q 359 1206 359 2328 
Q 359 3453 968 4101 
Q 1578 4750 2638 4750 
Q 3056 4750 3426 4639 
Q 3797 4528 4122 4306 
z
" id="DejaVuSans-43" transform="scale(0.015625)"/>
      </defs>
      <use xlink:href="#DejaVuSans-25"/>
      <use x="95.019531" xlink:href="#DejaVuSans-20"/>
      <use x="126.806641" xlink:href="#DejaVuSans-47"/>
      <use x="204.296875" xlink:href="#DejaVuSans-43"/>
     </g>
    </g>
   </g>
   <g id="matplotlib.axis_2">
    <g id="ytick_1">
     <g id="line2d_1">
      <path clip-path="url(#pd17b69918f)" d="M 53.328125 353.2239 
L 985.303125 353.2239 
" style="fill:none;stroke:#dedede;stroke-linecap:square;"/>
     </g>
     <g id="text_8">
      <!-- 0 -->
      <g transform="translate(41.238125 356.263275)scale(0.08 -0.08)">
       <use xlink:href="#DejaVuSans-30"/>
      </g>
     </g>
    </g>
    <g id="ytick_2">
     <g id="line2d_2">
      <path clip-path="url(#pd17b69918f)" d="M 53.328125 314.460267 
L 985.303125 314.460267 
" style="fill:none;stroke:#dedede;stroke-linecap:square;"/>
     </g>
     <g id="text_9">
      <!-- 2500 -->
      <g transform="translate(25.968125 317.499642)scale(0.08 -0.08)">
       <defs>
        <path d="M 691 4666 
L 3169 4666 
L 3169 4134 
L 1269 4134 
L 1269 2991 
Q 1406 3038 1543 3061 
Q 1681 3084 1819 3084 
Q 2600 3084 3056 2656 
Q 3513 2228 3513 1497 
Q 3513 744 3044 326 
Q 2575 -91 1722 -91 
Q 1428 -91 1123 -41 
Q 819 9 494 109 
L 494 744 
Q 775 591 1075 516 
Q 1375 441 1709 441 
Q 2250 441 2565 725 
Q 2881 1009 2881 1497 
Q 2881 1984 2565 2268 
Q 2250 2553 1709 2553 
Q 1456 2553 1204 2497 
Q 953 2441 691 2322 
L 691 4666 
z
" id="DejaVuSans-35" transform="scale(0.015625)"/>
       </defs>
       <use xlink:href="#DejaVuSans-32"/>
       <use x="63.623047" xlink:href="#DejaVuSans-35"/>
       <use x="127.246094" xlink:href="#DejaVuSans-30"/>
       <use x="190.869141" xlink:href="#DejaVuSans-30"/>
      </g>
     </g>
    </g>
    <g id="ytick_3">
     <g id="line2d_3">
      <path clip-path="url(#pd17b69918f)" d="M 53.328125 275.696635 
L 985.303125 275.696635 
" style="fill:none;stroke:#dedede;stroke-linecap:square;"/>
     </g>
     <g id="text_10">
      <!-- 5000 -->
      <g transform="translate(25.968125 278.73601)scale(0.08 -0.08)">
       <use xlink:href="#DejaVuSans-35"/>
       <use x="63.623047" xlink:href="#DejaVuSans-30"/>
       <use x="127.246094" xlink:href="#DejaVuSans-30"/>
       <use x="190.869141" xlink:href="#DejaVuSans-30"/>
      </g>
     </g>
    </g>
    <g id="ytick_4">
     <g id="line2d_4">
      <path clip-path="url(#pd17b69918f)" d="M 53.328125 236.933002 
L 985.303125 236.933002 
" style="fill:none;stroke:#dedede;stroke-linecap:square;"/>
     </g>
     <g id="text_11">
      <!-- 7500 -->
      <g transform="translate(25.968125 239.972377)scale(0.08 -0.08)">
       <defs>
        <path d="M 525 4666 
L 3525 4666 
L 3525 4397 
L 1831 0 
L 1172 0 
L 2766 4134 
L 525 4134 
L 525 4666 
z
" id="DejaVuSans-37" transform="scale(0.015625)"/>
       </defs>
       <use xlink:href="#DejaVuSans-37"/>
       <use x="63.623047" xlink:href="#DejaVuSans-35"/>
       <use x="127.246094" xlink:href="#DejaVuSans-30"/>
       <use x="190.869141" xlink:href="#DejaVuSans-30"/>
      </g>
     </g>
    </g>
    <g id="ytick_5">
     <g id="line2d_5">
      <path clip-path="url(#pd17b69918f)" d="M 53.328125 198.169369 
L 985.303125 198.169369 
" style="fill:none;stroke:#dedede;stroke-linecap:square;"/>
     </g>
     <g id="text_12">
      <!-- 10000 -->
      <g transform="translate(20.878125 201.208744)scale(0.08 -0.08)">
       <use xlink:href="#DejaVuSans-31"/>
       <use x="63.623047" xlink:href="#DejaVuSans-30"/>
       <use x="127.246094" xlink:href="#DejaVuSans-30"/>
       <use x="190.869141" xlink:href="#DejaVuSans-30"/>
       <use x="254.492188" xlink:href="#DejaVuSans-30"/>
      </g>
     </g>
    </g>
    <g id="ytick_6">
     <g id="line2d_6">
      <path clip-path="url(#pd17b69918f)" d="M 53.328125 159.405737 
L 985.303125 159.405737 
" style="fill:none;stroke:#dedede;stroke-linecap:square;"/>
     </g>
     <g id="text_13">
      <!-- 12500 -->
      <g transform="translate(20.878125 162.445112)scale(0.08 -0.08)">
       <use xlink:href="#DejaVuSans-31"/>
       <use x="63.623047" xlink:href="#DejaVuSans-32"/>
       <use x="127.246094" xlink:href="#DejaVuSans-35"/>
       <use x="190.869141" xlink:href="#DejaVuSans-30"/>
       <use x="254.492188" xlink:href="#DejaVuSans-30"/>
      </g>
     </g>
    </g>
    <g id="ytick_7">
     <g id="line2d_7">
      <path clip-path="url(#pd17b69918f)" d="M 53.328125 120.642104 
L 985.303125 120.642104 
" style="fill:none;stroke:#dedede;stroke-linecap:square;"/>
     </g>
     <g id="text_14">
      <!-- 15000 -->
      <g transform="translate(20.878125 123.681479)scale(0.08 -0.08)">
       <use xlink:href="#DejaVuSans-31"/>
       <use x="63.623047" xlink:href="#DejaVuSans-35"/>
       <use x="127.246094" xlink:href="#DejaVuSans-30"/>
       <use x="190.869141" xlink:href="#DejaVuSans-30"/>
       <use x="254.492188" xlink:href="#DejaVuSans-30"/>
      </g>
     </g>
    </g>
    <g id="ytick_8">
     <g id="line2d_8">
      <path clip-path="url(#pd17b69918f)" d="M 53.328125 81.878472 
L 985.303125 81.878472 
" style="fill:none;stroke:#dedede;stroke-linecap:square;"/>
     </g>
     <g id="text_15">
      <!-- 17500 -->
      <g transform="translate(20.878125 84.917847)scale(0.08 -0.08)">
       <use xlink:href="#DejaVuSans-31"/>
       <use x="63.623047" xlink:href="#DejaVuSans-37"/>
       <use x="127.246094" xlink:href="#DejaVuSans-35"/>
       <use x="190.869141" xlink:href="#DejaVuSans-30"/>
       <use x="254.492188" xlink:href="#DejaVuSans-30"/>
      </g>
     </g>
    </g>
    <g id="ytick_9">
     <g id="line2d_9">
      <path clip-path="url(#pd17b69918f)" d="M 53.328125 43.114839 
L 985.303125 43.114839 
" style="fill:none;stroke:#dedede;stroke-linecap:square;"/>
     </g>
     <g id="text_16">
      <!-- 20000 -->
      <g transform="translate(20.878125 46.154214)scale(0.08 -0.08)">
       <use xlink:href="#DejaVuSans-32"/>
       <use x="63.623047" xlink:href="#DejaVuSans-30"/>
       <use x="127.246094" xlink:href="#DejaVuSans-30"/>
       <use x="190.869141" xlink:href="#DejaVuSans-30"/>
       <use x="254.492188" xlink:href="#DejaVuSans-30"/>
      </g>
     </g>
    </g>
    <g id="text_17">
     <!-- Count -->
     <g transform="translate(14.798437 209.088338)rotate(-90)scale(0.1 -0.1)">
      <defs>
       <path d="M 1959 3097 
Q 1497 3097 1228 2736 
Q 959 2375 959 1747 
Q 959 1119 1226 758 
Q 1494 397 1959 397 
Q 2419 397 2687 759 
Q 2956 1122 2956 1747 
Q 2956 2369 2687 2733 
Q 2419 3097 1959 3097 
z
M 1959 3584 
Q 2709 3584 3137 3096 
Q 3566 2609 3566 1747 
Q 3566 888 3137 398 
Q 2709 -91 1959 -91 
Q 1206 -91 779 398 
Q 353 888 353 1747 
Q 353 2609 779 3096 
Q 1206 3584 1959 3584 
z
" id="DejaVuSans-6f" transform="scale(0.015625)"/>
       <path d="M 544 1381 
L 544 3500 
L 1119 3500 
L 1119 1403 
Q 1119 906 1312 657 
Q 1506 409 1894 409 
Q 2359 409 2629 706 
Q 2900 1003 2900 1516 
L 2900 3500 
L 3475 3500 
L 3475 0 
L 2900 0 
L 2900 538 
Q 2691 219 2414 64 
Q 2138 -91 1772 -91 
Q 1169 -91 856 284 
Q 544 659 544 1381 
z
M 1991 3584 
L 1991 3584 
z
" id="DejaVuSans-75" transform="scale(0.015625)"/>
       <path d="M 3513 2113 
L 3513 0 
L 2938 0 
L 2938 2094 
Q 2938 2591 2744 2837 
Q 2550 3084 2163 3084 
Q 1697 3084 1428 2787 
Q 1159 2491 1159 1978 
L 1159 0 
L 581 0 
L 581 3500 
L 1159 3500 
L 1159 2956 
Q 1366 3272 1645 3428 
Q 1925 3584 2291 3584 
Q 2894 3584 3203 3211 
Q 3513 2838 3513 2113 
z
" id="DejaVuSans-6e" transform="scale(0.015625)"/>
       <path d="M 1172 4494 
L 1172 3500 
L 2356 3500 
L 2356 3053 
L 1172 3053 
L 1172 1153 
Q 1172 725 1289 603 
Q 1406 481 1766 481 
L 2356 481 
L 2356 0 
L 1766 0 
Q 1100 0 847 248 
Q 594 497 594 1153 
L 594 3053 
L 172 3053 
L 172 3500 
L 594 3500 
L 594 4494 
L 1172 4494 
z
" id="DejaVuSans-74" transform="scale(0.015625)"/>
      </defs>
      <use xlink:href="#DejaVuSans-43"/>
      <use x="69.824219" xlink:href="#DejaVuSans-6f"/>
      <use x="131.005859" xlink:href="#DejaVuSans-75"/>
      <use x="194.384766" xlink:href="#DejaVuSans-6e"/>
      <use x="257.763672" xlink:href="#DejaVuSans-74"/>
     </g>
    </g>
   </g>
   <g id="line2d_10">
    <path clip-path="url(#pd17b69918f)" d="M 53.328125 353.2239 
L 62.647875 353.2239 
L 71.967625 353.2239 
L 81.287375 353.2239 
L 90.607125 353.2239 
L 99.926875 353.2239 
L 109.246625 353.2239 
L 118.566375 353.2239 
L 127.886125 353.2239 
L 137.205875 353.2239 
L 146.525625 353.2239 
L 155.845375 353.2239 
L 165.165125 353.2239 
L 174.484875 353.2239 
L 183.804625 353.2239 
L 193.124375 353.2239 
L 202.444125 353.2239 
L 211.763875 353.2239 
L 221.083625 353.2239 
L 230.403375 353.2239 
L 239.723125 353.2239 
L 249.042875 353.2239 
L 258.362625 353.2239 
L 267.682375 353.2239 
L 277.002125 353.2239 
L 286.321875 353.2239 
L 295.641625 353.2239 
L 304.961375 353.2239 
L 314.281125 353.2239 
L 323.600875 353.2239 
L 332.920625 353.2239 
L 342.240375 353.2239 
L 351.560125 353.2239 
L 360.879875 353.2239 
L 370.199625 353.2239 
L 379.519375 353.2239 
L 388.839125 353.2239 
L 398.158875 353.2239 
L 407.478625 353.2239 
L 416.798375 353.2239 
L 426.118125 353.2239 
L 435.437875 353.2239 
L 444.757625 353.2239 
L 454.077375 353.2239 
L 463.397125 353.2239 
L 472.716875 353.2239 
L 482.036625 353.2239 
L 491.356375 353.203226 
L 500.676125 352.908622 
L 509.995875 351.709534 
L 519.315625 344.375455 
L 528.635375 343.078165 
L 537.955125 321.334352 
L 547.274875 290.085695 
L 556.594625 283.123747 
L 565.914375 330.622118 
L 575.234125 348.479231 
L 584.553875 350.562131 
L 593.873625 352.748399 
L 603.193375 353.084351 
L 612.513125 353.161878 
L 621.832875 353.167047 
L 631.152625 353.208395 
L 640.472375 353.218732 
L 649.792125 353.2239 
L 659.111875 353.2239 
L 668.431625 353.2239 
L 677.751375 353.2239 
L 687.071125 353.2239 
L 696.390875 353.2239 
L 705.710625 353.2239 
L 715.030375 353.2239 
L 724.350125 353.2239 
L 733.669875 353.2239 
L 742.989625 353.2239 
L 752.309375 353.2239 
L 761.629125 353.2239 
L 770.948875 353.2239 
L 780.268625 353.2239 
L 789.588375 353.2239 
L 798.908125 353.2239 
L 808.227875 353.2239 
L 817.547625 353.2239 
L 826.867375 353.2239 
L 836.187125 353.2239 
L 845.506875 353.2239 
L 854.826625 353.2239 
L 864.146375 353.2239 
L 873.466125 353.2239 
L 882.785875 353.2239 
L 892.105625 353.2239 
L 901.425375 353.2239 
L 910.745125 353.2239 
L 920.064875 353.2239 
L 929.384625 353.2239 
L 938.704375 353.2239 
L 948.024125 353.2239 
L 957.343875 353.2239 
L 966.663625 353.2239 
L 975.983375 353.2239 
L 985.303125 353.2239 
" style="fill:none;stroke:#f0ad4e;stroke-linecap:square;"/>
   </g>
   <g id="line2d_11">
    <path clip-path="url(#pd17b69918f)" d="M 53.328125 353.2239 
L 62.647875 353.2239 
L 71.967625 353.2239 
L 81.287375 353.2239 
L 90.607125 353.2239 
L 99.926875 353.2239 
L 109.246625 353.2239 
L 118.566375 353.2239 
L 127.886125 353.2239 
L 137.205875 353.2239 
L 146.525625 353.2239 
L 155.845375 353.2239 
L 165.165125 353.2239 
L 174.484875 353.2239 
L 183.804625 353.2239 
L 193.124375 353.2239 
L 202.444125 353.2239 
L 211.763875 353.2239 
L 221.083625 353.2239 
L 230.403375 353.2239 
L 239.723125 353.2239 
L 249.042875 353.2239 
L 258.362625 353.2239 
L 267.682375 353.2239 
L 277.002125 353.2239 
L 286.321875 353.2239 
L 295.641625 353.2239 
L 304.961375 353.2239 
L 314.281125 353.2239 
L 323.600875 353.2239 
L 332.920625 353.2239 
L 342.240375 353.2239 
L 351.560125 353.2239 
L 360.879875 353.2239 
L 370.199625 353.2239 
L 379.519375 353.2239 
L 388.839125 353.2239 
L 398.158875 353.2239 
L 407.478625 353.2239 
L 416.798375 353.2239 
L 426.118125 353.2239 
L 435.437875 353.2239 
L 444.757625 353.2239 
L 454.077375 353.2239 
L 463.397125 353.2239 
L 472.716875 353.2239 
L 482.036625 353.2239 
L 491.356375 353.213563 
L 500.676125 353.198058 
L 509.995875 352.334921 
L 519.315625 345.894989 
L 528.635375 336.798457 
L 537.955125 322.87456 
L 547.274875 111.018386 
L 556.594625 119.453353 
L 565.914375 330.828857 
L 575.234125 342.897268 
L 584.553875 346.546218 
L 593.873625 350.789544 
L 603.193375 352.88278 
L 612.513125 352.763905 
L 621.832875 352.619187 
L 631.152625 353.146373 
L 640.472375 353.2239 
L 649.792125 353.2239 
L 659.111875 353.2239 
L 668.431625 353.2239 
L 677.751375 353.2239 
L 687.071125 353.2239 
L 696.390875 353.2239 
L 705.710625 353.2239 
L 715.030375 353.2239 
L 724.350125 353.2239 
L 733.669875 353.2239 
L 742.989625 353.2239 
L 752.309375 353.2239 
L 761.629125 353.2239 
L 770.948875 353.2239 
L 780.268625 353.2239 
L 789.588375 353.2239 
L 798.908125 353.2239 
L 808.227875 353.2239 
L 817.547625 353.2239 
L 826.867375 353.2239 
L 836.187125 353.2239 
L 845.506875 353.2239 
L 854.826625 353.2239 
L 864.146375 353.2239 
L 873.466125 353.2239 
L 882.785875 353.2239 
L 892.105625 353.2239 
L 901.425375 353.2239 
L 910.745125 353.2239 
L 920.064875 353.2239 
L 929.384625 353.2239 
L 938.704375 353.2239 
L 948.024125 353.2239 
L 957.343875 353.2239 
L 966.663625 353.2239 
L 975.983375 353.2239 
L 985.303125 353.2239 
" style="fill:none;stroke:#d9534f;stroke-linecap:square;"/>
   </g>
   <g id="line2d_12">
    <path clip-path="url(#pd17b69918f)" d="M 53.328125 353.2239 
L 62.647875 353.2239 
L 71.967625 353.2239 
L 81.287375 353.2239 
L 90.607125 353.2239 
L 99.926875 353.2239 
L 109.246625 353.2239 
L 118.566375 353.2239 
L 127.886125 353.2239 
L 137.205875 353.2239 
L 146.525625 353.2239 
L 155.845375 353.2239 
L 165.165125 353.2239 
L 174.484875 353.2239 
L 183.804625 353.2239 
L 193.124375 353.2239 
L 202.444125 353.2239 
L 211.763875 353.2239 
L 221.083625 353.2239 
L 230.403375 353.2239 
L 239.723125 353.2239 
L 249.042875 353.2239 
L 258.362625 353.2239 
L 267.682375 353.2239 
L 277.002125 353.2239 
L 286.321875 353.2239 
L 295.641625 353.2239 
L 304.961375 353.2239 
L 314.281125 353.2239 
L 323.600875 353.2239 
L 332.920625 353.2239 
L 342.240375 353.2239 
L 351.560125 353.2239 
L 360.879875 353.2239 
L 370.199625 353.2239 
L 379.519375 353.2239 
L 388.839125 353.2239 
L 398.158875 353.2239 
L 407.478625 353.2239 
L 416.798375 353.2239 
L 426.118125 353.2239 
L 435.437875 353.2239 
L 444.757625 353.2239 
L 454.077375 353.2239 
L 463.397125 353.2239 
L 472.716875 353.2239 
L 482.036625 353.2239 
L 491.356375 353.2239 
L 500.676125 353.213563 
L 509.995875 353.037835 
L 519.315625 352.185035 
L 528.635375 352.655367 
L 537.955125 351.192686 
L 547.274875 350.463929 
L 556.594625 341.636158 
L 565.914375 339.553259 
L 575.234125 352.221214 
L 584.553875 353.079182 
L 593.873625 353.172215 
L 603.193375 353.203226 
L 612.513125 353.213563 
L 621.832875 353.213563 
L 631.152625 353.2239 
L 640.472375 353.2239 
L 649.792125 353.2239 
L 659.111875 353.2239 
L 668.431625 353.2239 
L 677.751375 353.2239 
L 687.071125 353.2239 
L 696.390875 353.2239 
L 705.710625 353.2239 
L 715.030375 353.2239 
L 724.350125 353.2239 
L 733.669875 353.2239 
L 742.989625 353.2239 
L 752.309375 353.2239 
L 761.629125 353.2239 
L 770.948875 353.2239 
L 780.268625 353.2239 
L 789.588375 353.2239 
L 798.908125 353.2239 
L 808.227875 353.2239 
L 817.547625 353.2239 
L 826.867375 353.2239 
L 836.187125 353.2239 
L 845.506875 353.2239 
L 854.826625 353.2239 
L 864.146375 353.2239 
L 873.466125 353.2239 
L 882.785875 353.2239 
L 892.105625 353.2239 
L 901.425375 353.2239 
L 910.745125 353.2239 
L 920.064875 353.2239 
L 929.384625 353.2239 
L 938.704375 353.2239 
L 948.024125 353.2239 
L 957.343875 353.2239 
L 966.663625 353.2239 
L 975.983375 353.2239 
L 985.303125 353.2239 
" style="fill:none;stroke:#d9534f;stroke-linecap:square;"/>
   </g>
   <g id="line2d_13">
    <path clip-path="url(#pd17b69918f)" d="M 53.328125 353.2239 
L 62.647875 353.2239 
L 71.967625 353.2239 
L 81.287375 353.2239 
L 90.607125 353.2239 
L 99.926875 353.2239 
L 109.246625 353.2239 
L 118.566375 353.2239 
L 127.886125 353.2239 
L 137.205875 353.2239 
L 146.525625 353.2239 
L 155.845375 353.2239 
L 165.165125 353.2239 
L 174.484875 353.2239 
L 183.804625 353.2239 
L 193.124375 353.2239 
L 202.444125 353.2239 
L 211.763875 353.2239 
L 221.083625 353.2239 
L 230.403375 353.2239 
L 239.723125 353.2239 
L 249.042875 353.2239 
L 258.362625 353.2239 
L 267.682375 353.2239 
L 277.002125 353.2239 
L 286.321875 353.2239 
L 295.641625 353.2239 
L 304.961375 353.2239 
L 314.281125 353.2239 
L 323.600875 353.2239 
L 332.920625 353.2239 
L 342.240375 353.2239 
L 351.560125 353.2239 
L 360.879875 353.2239 
L 370.199625 353.2239 
L 379.519375 353.2239 
L 388.839125 353.2239 
L 398.158875 353.2239 
L 407.478625 353.2239 
L 416.798375 353.2239 
L 426.118125 353.2239 
L 435.437875 353.2239 
L 444.757625 353.2239 
L 454.077375 353.2239 
L 463.397125 353.2239 
L 472.716875 353.2239 
L 482.036625 353.2239 
L 491.356375 353.218732 
L 500.676125 353.12053 
L 509.995875 351.084147 
L 519.315625 337.863165 
L 528.635375 334.669041 
L 537.955125 337.005196 
L 547.274875 335.454651 
L 556.594625 346.861496 
L 565.914375 347.331828 
L 575.234125 349.98326 
L 584.553875 351.823241 
L 593.873625 353.048172 
L 603.193375 353.182552 
L 612.513125 353.136036 
L 621.832875 353.136036 
L 631.152625 353.203226 
L 640.472375 353.2239 
L 649.792125 353.213563 
L 659.111875 353.213563 
L 668.431625 353.2239 
L 677.751375 353.2239 
L 687.071125 353.2239 
L 696.390875 353.2239 
L 705.710625 353.2239 
L 715.030375 353.2239 
L 724.350125 353.2239 
L 733.669875 353.2239 
L 742.989625 353.2239 
L 752.309375 353.2239 
L 761.629125 353.2239 
L 770.948875 353.2239 
L 780.268625 353.2239 
L 789.588375 353.2239 
L 798.908125 353.2239 
L 808.227875 353.2239 
L 817.547625 353.2239 
L 826.867375 353.2239 
L 836.187125 353.2239 
L 845.506875 353.2239 
L 854.826625 353.2239 
L 864.146375 353.2239 
L 873.466125 353.2239 
L 882.785875 353.2239 
L 892.105625 353.2239 
L 901.425375 353.2239 
L 910.745125 353.2239 
L 920.064875 353.2239 
L 929.384625 353.2239 
L 938.704375 353.2239 
L 948.024125 353.2239 
L 957.343875 353.2239 
L 966.663625 353.2239 
L 975.983375 353.2239 
L 985.303125 353.2239 
" style="fill:none;stroke:#d9534f;stroke-linecap:square;"/>
   </g>
   <g id="line2d_14">
    <path clip-path="url(#pd17b69918f)" d="M 53.328125 353.2239 
L 62.647875 353.2239 
L 71.967625 353.2239 
L 81.287375 353.2239 
L 90.607125 353.2239 
L 99.926875 353.2239 
L 109.246625 353.2239 
L 118.566375 353.2239 
L 127.886125 353.2239 
L 137.205875 353.2239 
L 146.525625 353.2239 
L 155.845375 353.2239 
L 165.165125 353.2239 
L 174.484875 353.2239 
L 183.804625 353.2239 
L 193.124375 353.2239 
L 202.444125 353.2239 
L 211.763875 353.2239 
L 221.083625 353.2239 
L 230.403375 353.2239 
L 239.723125 353.2239 
L 249.042875 353.2239 
L 258.362625 353.2239 
L 267.682375 353.2239 
L 277.002125 353.2239 
L 286.321875 353.2239 
L 295.641625 353.2239 
L 304.961375 353.2239 
L 314.281125 353.2239 
L 323.600875 353.2239 
L 332.920625 353.2239 
L 342.240375 353.2239 
L 351.560125 353.2239 
L 360.879875 353.2239 
L 370.199625 353.2239 
L 379.519375 353.2239 
L 388.839125 353.2239 
L 398.158875 353.2239 
L 407.478625 353.2239 
L 416.798375 353.2239 
L 426.118125 353.2239 
L 435.437875 353.2239 
L 444.757625 353.2239 
L 454.077375 353.2239 
L 463.397125 353.2239 
L 472.716875 353.2239 
L 482.036625 353.2239 
L 491.356375 353.2239 
L 500.676125 353.218732 
L 509.995875 352.939633 
L 519.315625 351.79223 
L 528.635375 350.608647 
L 537.955125 351.864589 
L 547.274875 352.086833 
L 556.594625 351.911105 
L 565.914375 349.828206 
L 575.234125 338.79866 
L 584.553875 338.230127 
L 593.873625 348.453389 
L 603.193375 352.107507 
L 612.513125 353.177384 
L 621.832875 353.2239 
L 631.152625 353.2239 
L 640.472375 353.2239 
L 649.792125 353.2239 
L 659.111875 353.2239 
L 668.431625 353.2239 
L 677.751375 353.2239 
L 687.071125 353.2239 
L 696.390875 353.2239 
L 705.710625 353.2239 
L 715.030375 353.2239 
L 724.350125 353.2239 
L 733.669875 353.2239 
L 742.989625 353.2239 
L 752.309375 353.2239 
L 761.629125 353.2239 
L 770.948875 353.2239 
L 780.268625 353.2239 
L 789.588375 353.2239 
L 798.908125 353.2239 
L 808.227875 353.2239 
L 817.547625 353.2239 
L 826.867375 353.2239 
L 836.187125 353.2239 
L 845.506875 353.2239 
L 854.826625 353.2239 
L 864.146375 353.2239 
L 873.466125 353.2239 
L 882.785875 353.2239 
L 892.105625 353.2239 
L 901.425375 353.2239 
L 910.745125 353.2239 
L 920.064875 353.2239 
L 929.384625 353.2239 
L 938.704375 353.2239 
L 948.024125 353.2239 
L 957.343875 353.2239 
L 966.663625 353.2239 
L 975.983375 353.2239 
L 985.303125 353.2239 
" style="fill:none;stroke:#d9534f;stroke-linecap:square;"/>
   </g>
   <g id="line2d_15">
    <path clip-path="url(#pd17b69918f)" d="M 53.328125 353.2239 
L 62.647875 353.2239 
L 71.967625 353.2239 
L 81.287375 353.2239 
L 90.607125 353.2239 
L 99.926875 353.2239 
L 109.246625 353.2239 
L 118.566375 353.2239 
L 127.886125 353.2239 
L 137.205875 353.2239 
L 146.525625 353.2239 
L 155.845375 353.2239 
L 165.165125 353.2239 
L 174.484875 353.2239 
L 183.804625 353.2239 
L 193.124375 353.2239 
L 202.444125 353.2239 
L 211.763875 353.2239 
L 221.083625 353.2239 
L 230.403375 353.2239 
L 239.723125 353.2239 
L 249.042875 353.2239 
L 258.362625 353.2239 
L 267.682375 353.2239 
L 277.002125 353.2239 
L 286.321875 353.2239 
L 295.641625 353.2239 
L 304.961375 353.2239 
L 314.281125 353.2239 
L 323.600875 353.2239 
L 332.920625 353.2239 
L 342.240375 353.2239 
L 351.560125 353.2239 
L 360.879875 353.2239 
L 370.199625 353.2239 
L 379.519375 353.2239 
L 388.839125 353.2239 
L 398.158875 353.2239 
L 407.478625 353.2239 
L 416.798375 353.2239 
L 426.118125 353.2239 
L 435.437875 353.2239 
L 444.757625 353.2239 
L 454.077375 353.2239 
L 463.397125 353.2239 
L 472.716875 353.2239 
L 482.036625 353.218732 
L 491.356375 353.198058 
L 500.676125 351.828409 
L 509.995875 339.237981 
L 519.315625 250.143648 
L 528.635375 140.954248 
L 537.955125 302.386688 
L 547.274875 331.50076 
L 556.594625 327.51069 
L 565.914375 339.37753 
L 575.234125 350.655163 
L 584.553875 352.086833 
L 593.873625 352.64503 
L 603.193375 353.074014 
L 612.513125 353.167047 
L 621.832875 353.182552 
L 631.152625 353.2239 
L 640.472375 353.2239 
L 649.792125 353.2239 
L 659.111875 353.2239 
L 668.431625 353.2239 
L 677.751375 353.2239 
L 687.071125 353.2239 
L 696.390875 353.2239 
L 705.710625 353.2239 
L 715.030375 353.2239 
L 724.350125 353.2239 
L 733.669875 353.2239 
L 742.989625 353.2239 
L 752.309375 353.2239 
L 761.629125 353.2239 
L 770.948875 353.2239 
L 780.268625 353.2239 
L 789.588375 353.2239 
L 798.908125 353.2239 
L 808.227875 353.2239 
L 817.547625 353.2239 
L 826.867375 353.2239 
L 836.187125 353.2239 
L 845.506875 353.2239 
L 854.826625 353.2239 
L 864.146375 353.2239 
L 873.466125 353.2239 
L 882.785875 353.2239 
L 892.105625 353.2239 
L 901.425375 353.2239 
L 910.745125 353.2239 
L 920.064875 353.2239 
L 929.384625 353.2239 
L 938.704375 353.2239 
L 948.024125 353.2239 
L 957.343875 353.2239 
L 966.663625 353.2239 
L 975.983375 353.2239 
L 985.303125 353.2239 
" style="fill:none;stroke:#d9534f;stroke-linecap:square;"/>
   </g>
   <g id="line2d_16">
    <path clip-path="url(#pd17b69918f)" d="M 53.328125 353.2239 
L 62.647875 353.2239 
L 71.967625 353.2239 
L 81.287375 353.2239 
L 90.607125 353.2239 
L 99.926875 353.2239 
L 109.246625 353.2239 
L 118.566375 353.2239 
L 127.886125 353.2239 
L 137.205875 353.2239 
L 146.525625 353.2239 
L 155.845375 353.2239 
L 165.165125 353.2239 
L 174.484875 353.2239 
L 183.804625 353.2239 
L 193.124375 353.2239 
L 202.444125 353.2239 
L 211.763875 353.2239 
L 221.083625 353.2239 
L 230.403375 353.2239 
L 239.723125 353.2239 
L 249.042875 353.2239 
L 258.362625 353.2239 
L 267.682375 353.2239 
L 277.002125 353.2239 
L 286.321875 353.2239 
L 295.641625 353.2239 
L 304.961375 353.2239 
L 314.281125 353.2239 
L 323.600875 353.2239 
L 332.920625 353.2239 
L 342.240375 353.2239 
L 351.560125 353.2239 
L 360.879875 353.2239 
L 370.199625 353.2239 
L 379.519375 353.2239 
L 388.839125 353.2239 
L 398.158875 353.2239 
L 407.478625 353.2239 
L 416.798375 353.2239 
L 426.118125 353.2239 
L 435.437875 353.2239 
L 444.757625 353.2239 
L 454.077375 353.2239 
L 463.397125 353.2239 
L 472.716875 353.2239 
L 482.036625 353.218732 
L 491.356375 353.182552 
L 500.676125 352.908622 
L 509.995875 350.954935 
L 519.315625 314.129484 
L 528.635375 186.974432 
L 537.955125 261.514314 
L 547.274875 272.81262 
L 556.594625 282.73611 
L 565.914375 276.544266 
L 575.234125 347.171605 
L 584.553875 352.102339 
L 593.873625 352.934465 
L 603.193375 353.058509 
L 612.513125 353.15671 
L 621.832875 353.2239 
L 631.152625 353.218732 
L 640.472375 353.2239 
L 649.792125 353.2239 
L 659.111875 353.2239 
L 668.431625 353.2239 
L 677.751375 353.2239 
L 687.071125 353.2239 
L 696.390875 353.2239 
L 705.710625 353.2239 
L 715.030375 353.2239 
L 724.350125 353.2239 
L 733.669875 353.2239 
L 742.989625 353.2239 
L 752.309375 353.2239 
L 761.629125 353.2239 
L 770.948875 353.2239 
L 780.268625 353.2239 
L 789.588375 353.2239 
L 798.908125 353.2239 
L 808.227875 353.2239 
L 817.547625 353.2239 
L 826.867375 353.2239 
L 836.187125 353.2239 
L 845.506875 353.2239 
L 854.826625 353.2239 
L 864.146375 353.2239 
L 873.466125 353.2239 
L 882.785875 353.2239 
L 892.105625 353.2239 
L 901.425375 353.2239 
L 910.745125 353.2239 
L 920.064875 353.2239 
L 929.384625 353.2239 
L 938.704375 353.2239 
L 948.024125 353.2239 
L 957.343875 353.2239 
L 966.663625 353.2239 
L 975.983375 353.2239 
L 985.303125 353.2239 
" style="fill:none;stroke:#d9534f;stroke-linecap:square;"/>
   </g>
   <g id="line2d_17">
    <path clip-path="url(#pd17b69918f)" d="M 53.328125 353.2239 
L 62.647875 353.2239 
L 71.967625 353.2239 
L 81.287375 353.2239 
L 90.607125 353.2239 
L 99.926875 353.2239 
L 109.246625 353.2239 
L 118.566375 353.2239 
L 127.886125 353.2239 
L 137.205875 353.2239 
L 146.525625 353.2239 
L 155.845375 353.2239 
L 165.165125 353.2239 
L 174.484875 353.2239 
L 183.804625 353.2239 
L 193.124375 353.2239 
L 202.444125 353.2239 
L 211.763875 353.2239 
L 221.083625 353.2239 
L 230.403375 353.2239 
L 239.723125 353.2239 
L 249.042875 353.2239 
L 258.362625 353.2239 
L 267.682375 353.2239 
L 277.002125 353.2239 
L 286.321875 353.2239 
L 295.641625 353.2239 
L 304.961375 353.2239 
L 314.281125 353.2239 
L 323.600875 353.2239 
L 332.920625 353.2239 
L 342.240375 353.2239 
L 351.560125 353.2239 
L 360.879875 353.2239 
L 370.199625 353.2239 
L 379.519375 353.2239 
L 388.839125 353.2239 
L 398.158875 353.2239 
L 407.478625 353.2239 
L 416.798375 353.2239 
L 426.118125 353.2239 
L 435.437875 353.2239 
L 444.757625 353.2239 
L 454.077375 353.2239 
L 463.397125 353.2239 
L 472.716875 353.2239 
L 482.036625 353.218732 
L 491.356375 353.213563 
L 500.676125 353.084351 
L 509.995875 351.683692 
L 519.315625 345.445331 
L 528.635375 338.855514 
L 537.955125 326.141042 
L 547.274875 250.231512 
L 556.594625 273.7016 
L 565.914375 322.704 
L 575.234125 333.676692 
L 584.553875 331.733342 
L 593.873625 340.798864 
L 603.193375 350.887745 
L 612.513125 352.123013 
L 621.832875 352.340089 
L 631.152625 353.084351 
L 640.472375 353.2239 
L 649.792125 353.2239 
L 659.111875 353.2239 
L 668.431625 353.2239 
L 677.751375 353.2239 
L 687.071125 353.2239 
L 696.390875 353.2239 
L 705.710625 353.2239 
L 715.030375 353.2239 
L 724.350125 353.2239 
L 733.669875 353.2239 
L 742.989625 353.2239 
L 752.309375 353.2239 
L 761.629125 353.2239 
L 770.948875 353.2239 
L 780.268625 353.2239 
L 789.588375 353.2239 
L 798.908125 353.2239 
L 808.227875 353.2239 
L 817.547625 353.2239 
L 826.867375 353.2239 
L 836.187125 353.2239 
L 845.506875 353.2239 
L 854.826625 353.2239 
L 864.146375 353.2239 
L 873.466125 353.2239 
L 882.785875 353.2239 
L 892.105625 353.2239 
L 901.425375 353.2239 
L 910.745125 353.2239 
L 920.064875 353.2239 
L 929.384625 353.2239 
L 938.704375 353.2239 
L 948.024125 353.2239 
L 957.343875 353.2239 
L 966.663625 353.2239 
L 975.983375 353.2239 
L 985.303125 353.2239 
" style="fill:none;stroke:#d9534f;stroke-linecap:square;"/>
   </g>
   <g id="line2d_18">
    <path clip-path="url(#pd17b69918f)" d="M 53.328125 353.2239 
L 62.647875 353.2239 
L 71.967625 353.2239 
L 81.287375 353.2239 
L 90.607125 353.2239 
L 99.926875 353.2239 
L 109.246625 353.2239 
L 118.566375 353.2239 
L 127.886125 353.2239 
L 137.205875 353.2239 
L 146.525625 353.2239 
L 155.845375 353.2239 
L 165.165125 353.2239 
L 174.484875 353.2239 
L 183.804625 353.2239 
L 193.124375 353.2239 
L 202.444125 353.2239 
L 211.763875 353.2239 
L 221.083625 353.2239 
L 230.403375 353.2239 
L 239.723125 353.2239 
L 249.042875 353.2239 
L 258.362625 353.2239 
L 267.682375 353.2239 
L 277.002125 353.2239 
L 286.321875 353.2239 
L 295.641625 353.2239 
L 304.961375 353.2239 
L 314.281125 353.2239 
L 323.600875 353.2239 
L 332.920625 353.2239 
L 342.240375 353.2239 
L 351.560125 353.2239 
L 360.879875 353.2239 
L 370.199625 353.2239 
L 379.519375 353.2239 
L 388.839125 353.2239 
L 398.158875 353.2239 
L 407.478625 353.2239 
L 416.798375 353.2239 
L 426.118125 353.2239 
L 435.437875 353.2239 
L 444.757625 353.2239 
L 454.077375 353.2239 
L 463.397125 353.2239 
L 472.716875 353.2239 
L 482.036625 353.2239 
L 491.356375 353.218732 
L 500.676125 353.12053 
L 509.995875 344.447814 
L 519.315625 285.010244 
L 528.635375 267.747506 
L 537.955125 298.706727 
L 547.274875 324.936785 
L 556.594625 341.455261 
L 565.914375 343.729394 
L 575.234125 298.530999 
L 584.553875 304.252511 
L 593.873625 349.476749 
L 603.193375 352.603682 
L 612.513125 352.867275 
L 621.832875 352.991318 
L 631.152625 353.182552 
L 640.472375 353.218732 
L 649.792125 353.218732 
L 659.111875 353.2239 
L 668.431625 353.2239 
L 677.751375 353.2239 
L 687.071125 353.2239 
L 696.390875 353.2239 
L 705.710625 353.2239 
L 715.030375 353.2239 
L 724.350125 353.2239 
L 733.669875 353.2239 
L 742.989625 353.2239 
L 752.309375 353.2239 
L 761.629125 353.2239 
L 770.948875 353.2239 
L 780.268625 353.2239 
L 789.588375 353.2239 
L 798.908125 353.2239 
L 808.227875 353.2239 
L 817.547625 353.2239 
L 826.867375 353.2239 
L 836.187125 353.2239 
L 845.506875 353.2239 
L 854.826625 353.2239 
L 864.146375 353.2239 
L 873.466125 353.2239 
L 882.785875 353.2239 
L 892.105625 353.2239 
L 901.425375 353.2239 
L 910.745125 353.2239 
L 920.064875 353.2239 
L 929.384625 353.2239 
L 938.704375 353.2239 
L 948.024125 353.2239 
L 957.343875 353.2239 
L 966.663625 353.2239 
L 975.983375 353.2239 
L 985.303125 353.2239 
" style="fill:none;stroke:#d9534f;stroke-linecap:square;"/>
   </g>
   <g id="line2d_19">
    <path clip-path="url(#pd17b69918f)" d="M 53.328125 353.2239 
L 62.647875 353.2239 
L 71.967625 353.2239 
L 81.287375 353.2239 
L 90.607125 353.2239 
L 99.926875 353.2239 
L 109.246625 353.2239 
L 118.566375 353.2239 
L 127.886125 353.2239 
L 137.205875 353.2239 
L 146.525625 353.2239 
L 155.845375 353.2239 
L 165.165125 353.2239 
L 174.484875 353.2239 
L 183.804625 353.2239 
L 193.124375 353.2239 
L 202.444125 353.2239 
L 211.763875 353.2239 
L 221.083625 353.2239 
L 230.403375 353.2239 
L 239.723125 353.2239 
L 249.042875 353.2239 
L 258.362625 353.2239 
L 267.682375 353.2239 
L 277.002125 353.2239 
L 286.321875 353.2239 
L 295.641625 353.2239 
L 304.961375 353.2239 
L 314.281125 353.2239 
L 323.600875 353.2239 
L 332.920625 353.2239 
L 342.240375 353.2239 
L 351.560125 353.2239 
L 360.879875 353.2239 
L 370.199625 353.2239 
L 379.519375 353.2239 
L 388.839125 353.2239 
L 398.158875 353.2239 
L 407.478625 353.2239 
L 416.798375 353.2239 
L 426.118125 353.2239 
L 435.437875 353.2239 
L 444.757625 353.2239 
L 454.077375 353.2239 
L 463.397125 353.2239 
L 472.716875 353.218732 
L 482.036625 353.2239 
L 491.356375 353.208395 
L 500.676125 352.722557 
L 509.995875 344.225569 
L 519.315625 298.189879 
L 528.635375 318.925838 
L 537.955125 141.496939 
L 547.274875 50.397233 
L 556.594625 304.309364 
L 565.914375 342.85592 
L 575.234125 347.440366 
L 584.553875 349.342368 
L 593.873625 352.660535 
L 603.193375 353.099856 
L 612.513125 353.187721 
L 621.832875 353.208395 
L 631.152625 353.213563 
L 640.472375 353.203226 
L 649.792125 353.213563 
L 659.111875 353.2239 
L 668.431625 353.2239 
L 677.751375 353.2239 
L 687.071125 353.2239 
L 696.390875 353.2239 
L 705.710625 353.2239 
L 715.030375 353.2239 
L 724.350125 353.2239 
L 733.669875 353.2239 
L 742.989625 353.2239 
L 752.309375 353.2239 
L 761.629125 353.2239 
L 770.948875 353.2239 
L 780.268625 353.2239 
L 789.588375 353.2239 
L 798.908125 353.2239 
L 808.227875 353.2239 
L 817.547625 353.2239 
L 826.867375 353.2239 
L 836.187125 353.2239 
L 845.506875 353.2239 
L 854.826625 353.2239 
L 864.146375 353.2239 
L 873.466125 353.2239 
L 882.785875 353.2239 
L 892.105625 353.2239 
L 901.425375 353.2239 
L 910.745125 353.2239 
L 920.064875 353.2239 
L 929.384625 353.2239 
L 938.704375 353.2239 
L 948.024125 353.2239 
L 957.343875 353.2239 
L 966.663625 353.2239 
L 975.983375 353.2239 
L 985.303125 353.2239 
" style="fill:none;stroke:#d9534f;stroke-linecap:square;"/>
   </g>
   <g id="line2d_20">
    <path clip-path="url(#pd17b69918f)" d="M 53.328125 353.2239 
L 62.647875 353.2239 
L 71.967625 353.2239 
L 81.287375 353.2239 
L 90.607125 353.2239 
L 99.926875 353.2239 
L 109.246625 353.2239 
L 118.566375 353.2239 
L 127.886125 353.2239 
L 137.205875 353.2239 
L 146.525625 353.2239 
L 155.845375 353.2239 
L 165.165125 353.2239 
L 174.484875 353.2239 
L 183.804625 353.2239 
L 193.124375 353.2239 
L 202.444125 353.2239 
L 211.763875 353.2239 
L 221.083625 353.2239 
L 230.403375 353.2239 
L 239.723125 353.2239 
L 249.042875 353.2239 
L 258.362625 353.2239 
L 267.682375 353.2239 
L 277.002125 353.2239 
L 286.321875 353.2239 
L 295.641625 353.2239 
L 304.961375 353.2239 
L 314.281125 353.2239 
L 323.600875 353.2239 
L 332.920625 353.2239 
L 342.240375 353.2239 
L 351.560125 353.2239 
L 360.879875 353.2239 
L 370.199625 353.2239 
L 379.519375 353.2239 
L 388.839125 353.2239 
L 398.158875 353.2239 
L 407.478625 353.2239 
L 416.798375 353.2239 
L 426.118125 353.2239 
L 435.437875 353.2239 
L 444.757625 353.2239 
L 454.077375 353.2239 
L 463.397125 353.2239 
L 472.716875 353.2239 
L 482.036625 353.218732 
L 491.356375 353.208395 
L 500.676125 353.074014 
L 509.995875 346.50487 
L 519.315625 336.426326 
L 528.635375 342.680192 
L 537.955125 277.464256 
L 547.274875 258.888724 
L 556.594625 343.336589 
L 565.914375 350.236516 
L 575.234125 349.797195 
L 584.553875 351.55448 
L 593.873625 353.058509 
L 603.193375 353.172215 
L 612.513125 353.05334 
L 621.832875 352.98615 
L 631.152625 353.182552 
L 640.472375 353.2239 
L 649.792125 353.2239 
L 659.111875 353.2239 
L 668.431625 353.2239 
L 677.751375 353.2239 
L 687.071125 353.2239 
L 696.390875 353.2239 
L 705.710625 353.2239 
L 715.030375 353.2239 
L 724.350125 353.2239 
L 733.669875 353.2239 
L 742.989625 353.2239 
L 752.309375 353.2239 
L 761.629125 353.2239 
L 770.948875 353.2239 
L 780.268625 353.2239 
L 789.588375 353.2239 
L 798.908125 353.2239 
L 808.227875 353.2239 
L 817.547625 353.2239 
L 826.867375 353.2239 
L 836.187125 353.2239 
L 845.506875 353.2239 
L 854.826625 353.2239 
L 864.146375 353.2239 
L 873.466125 353.2239 
L 882.785875 353.2239 
L 892.105625 353.2239 
L 901.425375 353.2239 
L 910.745125 353.2239 
L 920.064875 353.2239 
L 929.384625 353.2239 
L 938.704375 353.2239 
L 948.024125 353.2239 
L 957.343875 353.2239 
L 966.663625 353.2239 
L 975.983375 353.2239 
L 985.303125 353.2239 
" style="fill:none;stroke:#d9534f;stroke-linecap:square;"/>
   </g>
   <g id="line2d_21">
    <path clip-path="url(#pd17b69918f)" d="M 53.328125 353.2239 
L 62.647875 353.2239 
L 71.967625 353.2239 
L 81.287375 353.2239 
L 90.607125 353.2239 
L 99.926875 353.2239 
L 109.246625 353.2239 
L 118.566375 353.2239 
L 127.886125 353.2239 
L 137.205875 353.2239 
L 146.525625 353.2239 
L 155.845375 353.2239 
L 165.165125 353.2239 
L 174.484875 353.2239 
L 183.804625 353.2239 
L 193.124375 353.2239 
L 202.444125 353.2239 
L 211.763875 353.2239 
L 221.083625 353.2239 
L 230.403375 353.2239 
L 239.723125 353.2239 
L 249.042875 353.2239 
L 258.362625 353.2239 
L 267.682375 353.2239 
L 277.002125 353.2239 
L 286.321875 353.2239 
L 295.641625 353.2239 
L 304.961375 353.2239 
L 314.281125 353.2239 
L 323.600875 353.2239 
L 332.920625 353.2239 
L 342.240375 353.2239 
L 351.560125 353.2239 
L 360.879875 353.2239 
L 370.199625 353.2239 
L 379.519375 353.2239 
L 388.839125 353.2239 
L 398.158875 353.2239 
L 407.478625 353.2239 
L 416.798375 353.2239 
L 426.118125 353.2239 
L 435.437875 353.2239 
L 444.757625 353.2239 
L 454.077375 353.2239 
L 463.397125 353.2239 
L 472.716875 353.2239 
L 482.036625 353.2239 
L 491.356375 353.218732 
L 500.676125 353.089519 
L 509.995875 352.536492 
L 519.315625 349.316526 
L 528.635375 330.761667 
L 537.955125 169.732369 
L 547.274875 249.337365 
L 556.594625 316.672379 
L 565.914375 322.843549 
L 575.234125 330.673803 
L 584.553875 347.316322 
L 593.873625 352.272899 
L 603.193375 352.862106 
L 612.513125 352.934465 
L 621.832875 353.043003 
L 631.152625 353.198058 
L 640.472375 353.213563 
L 649.792125 353.213563 
L 659.111875 353.2239 
L 668.431625 353.2239 
L 677.751375 353.2239 
L 687.071125 353.2239 
L 696.390875 353.2239 
L 705.710625 353.2239 
L 715.030375 353.2239 
L 724.350125 353.2239 
L 733.669875 353.2239 
L 742.989625 353.2239 
L 752.309375 353.2239 
L 761.629125 353.2239 
L 770.948875 353.2239 
L 780.268625 353.2239 
L 789.588375 353.2239 
L 798.908125 353.2239 
L 808.227875 353.2239 
L 817.547625 353.2239 
L 826.867375 353.2239 
L 836.187125 353.2239 
L 845.506875 353.2239 
L 854.826625 353.2239 
L 864.146375 353.2239 
L 873.466125 353.2239 
L 882.785875 353.2239 
L 892.105625 353.2239 
L 901.425375 353.2239 
L 910.745125 353.2239 
L 920.064875 353.2239 
L 929.384625 353.2239 
L 938.704375 353.2239 
L 948.024125 353.2239 
L 957.343875 353.2239 
L 966.663625 353.2239 
L 975.983375 353.2239 
L 985.303125 353.2239 
" style="fill:none;stroke:#d9534f;stroke-linecap:square;"/>
   </g>
   <g id="line2d_22">
    <path clip-path="url(#pd17b69918f)" d="M 53.328125 353.2239 
L 62.647875 353.2239 
L 71.967625 353.2239 
L 81.287375 353.2239 
L 90.607125 353.2239 
L 99.926875 353.2239 
L 109.246625 353.2239 
L 118.566375 353.2239 
L 127.886125 353.2239 
L 137.205875 353.2239 
L 146.525625 353.2239 
L 155.845375 353.2239 
L 165.165125 353.2239 
L 174.484875 353.2239 
L 183.804625 353.2239 
L 193.124375 353.2239 
L 202.444125 353.2239 
L 211.763875 353.2239 
L 221.083625 353.2239 
L 230.403375 353.2239 
L 239.723125 353.2239 
L 249.042875 353.2239 
L 258.362625 353.2239 
L 267.682375 353.2239 
L 277.002125 353.2239 
L 286.321875 353.2239 
L 295.641625 353.2239 
L 304.961375 353.2239 
L 314.281125 353.2239 
L 323.600875 353.2239 
L 332.920625 353.2239 
L 342.240375 353.2239 
L 351.560125 353.2239 
L 360.879875 353.2239 
L 370.199625 353.2239 
L 379.519375 353.2239 
L 388.839125 353.2239 
L 398.158875 353.2239 
L 407.478625 353.2239 
L 416.798375 353.2239 
L 426.118125 353.2239 
L 435.437875 353.2239 
L 444.757625 353.2239 
L 454.077375 353.2239 
L 463.397125 353.2239 
L 472.716875 353.2239 
L 482.036625 353.2239 
L 491.356375 353.208395 
L 500.676125 352.918959 
L 509.995875 352.13335 
L 519.315625 346.851159 
L 528.635375 335.170384 
L 537.955125 248.220972 
L 547.274875 255.069214 
L 556.594625 333.216697 
L 565.914375 340.747179 
L 575.234125 249.766349 
L 584.553875 266.476059 
L 593.873625 348.158785 
L 603.193375 352.862106 
L 612.513125 352.94997 
L 621.832875 352.918959 
L 631.152625 353.192889 
L 640.472375 353.2239 
L 649.792125 353.2239 
L 659.111875 353.2239 
L 668.431625 353.2239 
L 677.751375 353.2239 
L 687.071125 353.2239 
L 696.390875 353.2239 
L 705.710625 353.2239 
L 715.030375 353.2239 
L 724.350125 353.2239 
L 733.669875 353.2239 
L 742.989625 353.2239 
L 752.309375 353.2239 
L 761.629125 353.2239 
L 770.948875 353.2239 
L 780.268625 353.2239 
L 789.588375 353.2239 
L 798.908125 353.2239 
L 808.227875 353.2239 
L 817.547625 353.2239 
L 826.867375 353.2239 
L 836.187125 353.2239 
L 845.506875 353.2239 
L 854.826625 353.2239 
L 864.146375 353.2239 
L 873.466125 353.2239 
L 882.785875 353.2239 
L 892.105625 353.2239 
L 901.425375 353.2239 
L 910.745125 353.2239 
L 920.064875 353.2239 
L 929.384625 353.2239 
L 938.704375 353.2239 
L 948.024125 353.2239 
L 957.343875 353.2239 
L 966.663625 353.2239 
L 975.983375 353.2239 
L 985.303125 353.2239 
" style="fill:none;stroke:#d9534f;stroke-linecap:square;"/>
   </g>
   <g id="line2d_23">
    <path clip-path="url(#pd17b69918f)" d="M 53.328125 353.2239 
L 62.647875 353.2239 
L 71.967625 353.2239 
L 81.287375 353.2239 
L 90.607125 353.2239 
L 99.926875 353.2239 
L 109.246625 353.2239 
L 118.566375 353.2239 
L 127.886125 353.2239 
L 137.205875 353.2239 
L 146.525625 353.2239 
L 155.845375 353.2239 
L 165.165125 353.2239 
L 174.484875 353.2239 
L 183.804625 353.2239 
L 193.124375 353.2239 
L 202.444125 353.2239 
L 211.763875 353.2239 
L 221.083625 353.2239 
L 230.403375 353.2239 
L 239.723125 353.2239 
L 249.042875 353.2239 
L 258.362625 353.2239 
L 267.682375 353.2239 
L 277.002125 353.2239 
L 286.321875 353.2239 
L 295.641625 353.2239 
L 304.961375 353.2239 
L 314.281125 353.2239 
L 323.600875 353.2239 
L 332.920625 353.2239 
L 342.240375 353.2239 
L 351.560125 353.2239 
L 360.879875 353.2239 
L 370.199625 353.2239 
L 379.519375 353.2239 
L 388.839125 353.2239 
L 398.158875 353.2239 
L 407.478625 353.2239 
L 416.798375 353.2239 
L 426.118125 353.2239 
L 435.437875 353.2239 
L 444.757625 353.2239 
L 454.077375 353.2239 
L 463.397125 353.2239 
L 472.716875 353.2239 
L 482.036625 353.2239 
L 491.356375 353.2239 
L 500.676125 353.167047 
L 509.995875 352.650198 
L 519.315625 348.923721 
L 528.635375 347.776317 
L 537.955125 327.619229 
L 547.274875 320.641775 
L 556.594625 340.695494 
L 565.914375 340.183814 
L 575.234125 346.572061 
L 584.553875 352.050654 
L 593.873625 353.146373 
L 603.193375 353.208395 
L 612.513125 353.203226 
L 621.832875 353.172215 
L 631.152625 353.218732 
L 640.472375 353.2239 
L 649.792125 353.2239 
L 659.111875 353.2239 
L 668.431625 353.2239 
L 677.751375 353.2239 
L 687.071125 353.2239 
L 696.390875 353.2239 
L 705.710625 353.2239 
L 715.030375 353.2239 
L 724.350125 353.2239 
L 733.669875 353.2239 
L 742.989625 353.2239 
L 752.309375 353.2239 
L 761.629125 353.2239 
L 770.948875 353.2239 
L 780.268625 353.2239 
L 789.588375 353.2239 
L 798.908125 353.2239 
L 808.227875 353.2239 
L 817.547625 353.2239 
L 826.867375 353.2239 
L 836.187125 353.2239 
L 845.506875 353.2239 
L 854.826625 353.2239 
L 864.146375 353.2239 
L 873.466125 353.2239 
L 882.785875 353.2239 
L 892.105625 353.2239 
L 901.425375 353.2239 
L 910.745125 353.2239 
L 920.064875 353.2239 
L 929.384625 353.2239 
L 938.704375 353.2239 
L 948.024125 353.2239 
L 957.343875 353.2239 
L 966.663625 353.2239 
L 975.983375 353.2239 
L 985.303125 353.2239 
" style="fill:none;stroke:#d9534f;stroke-linecap:square;"/>
   </g>
   <g id="line2d_24">
    <path clip-path="url(#pd17b69918f)" d="M 53.328125 353.2239 
L 62.647875 353.2239 
L 71.967625 353.2239 
L 81.287375 353.2239 
L 90.607125 353.2239 
L 99.926875 353.2239 
L 109.246625 353.2239 
L 118.566375 353.2239 
L 127.886125 353.2239 
L 137.205875 353.2239 
L 146.525625 353.2239 
L 155.845375 353.2239 
L 165.165125 353.2239 
L 174.484875 353.2239 
L 183.804625 353.2239 
L 193.124375 353.2239 
L 202.444125 353.2239 
L 211.763875 353.2239 
L 221.083625 353.2239 
L 230.403375 353.2239 
L 239.723125 353.2239 
L 249.042875 353.2239 
L 258.362625 353.2239 
L 267.682375 353.2239 
L 277.002125 353.2239 
L 286.321875 353.2239 
L 295.641625 353.2239 
L 304.961375 353.2239 
L 314.281125 353.2239 
L 323.600875 353.2239 
L 332.920625 353.2239 
L 342.240375 353.2239 
L 351.560125 353.2239 
L 360.879875 353.2239 
L 370.199625 353.2239 
L 379.519375 353.2239 
L 388.839125 353.2239 
L 398.158875 353.2239 
L 407.478625 353.2239 
L 416.798375 353.2239 
L 426.118125 353.2239 
L 435.437875 353.2239 
L 444.757625 353.2239 
L 454.077375 353.2239 
L 463.397125 353.2239 
L 472.716875 353.2239 
L 482.036625 353.218732 
L 491.356375 353.208395 
L 500.676125 352.453796 
L 509.995875 348.985743 
L 519.315625 336.322956 
L 528.635375 325.691384 
L 537.955125 221.282831 
L 547.274875 158.20148 
L 556.594625 274.352829 
L 565.914375 319.876839 
L 575.234125 327.350467 
L 584.553875 333.945453 
L 593.873625 351.75605 
L 603.193375 353.027498 
L 612.513125 352.872443 
L 621.832875 352.862106 
L 631.152625 353.136036 
L 640.472375 353.213563 
L 649.792125 353.2239 
L 659.111875 353.2239 
L 668.431625 353.2239 
L 677.751375 353.2239 
L 687.071125 353.2239 
L 696.390875 353.2239 
L 705.710625 353.2239 
L 715.030375 353.2239 
L 724.350125 353.2239 
L 733.669875 353.2239 
L 742.989625 353.2239 
L 752.309375 353.2239 
L 761.629125 353.2239 
L 770.948875 353.2239 
L 780.268625 353.2239 
L 789.588375 353.2239 
L 798.908125 353.2239 
L 808.227875 353.2239 
L 817.547625 353.2239 
L 826.867375 353.2239 
L 836.187125 353.2239 
L 845.506875 353.2239 
L 854.826625 353.2239 
L 864.146375 353.2239 
L 873.466125 353.2239 
L 882.785875 353.2239 
L 892.105625 353.2239 
L 901.425375 353.2239 
L 910.745125 353.2239 
L 920.064875 353.2239 
L 929.384625 353.2239 
L 938.704375 353.2239 
L 948.024125 353.2239 
L 957.343875 353.2239 
L 966.663625 353.2239 
L 975.983375 353.2239 
L 985.303125 353.2239 
" style="fill:none;stroke:#d9534f;stroke-linecap:square;"/>
   </g>
   <g id="line2d_25">
    <path clip-path="url(#pd17b69918f)" d="M 53.328125 353.2239 
L 62.647875 353.2239 
L 71.967625 353.2239 
L 81.287375 353.2239 
L 90.607125 353.2239 
L 99.926875 353.2239 
L 109.246625 353.2239 
L 118.566375 353.2239 
L 127.886125 353.2239 
L 137.205875 353.2239 
L 146.525625 353.2239 
L 155.845375 353.2239 
L 165.165125 353.2239 
L 174.484875 353.2239 
L 183.804625 353.2239 
L 193.124375 353.2239 
L 202.444125 353.2239 
L 211.763875 353.2239 
L 221.083625 353.2239 
L 230.403375 353.2239 
L 239.723125 353.2239 
L 249.042875 353.2239 
L 258.362625 353.2239 
L 267.682375 353.2239 
L 277.002125 353.2239 
L 286.321875 353.2239 
L 295.641625 353.2239 
L 304.961375 353.2239 
L 314.281125 353.2239 
L 323.600875 353.2239 
L 332.920625 353.2239 
L 342.240375 353.2239 
L 351.560125 353.2239 
L 360.879875 353.2239 
L 370.199625 353.2239 
L 379.519375 353.2239 
L 388.839125 353.2239 
L 398.158875 353.2239 
L 407.478625 353.2239 
L 416.798375 353.2239 
L 426.118125 353.2239 
L 435.437875 353.2239 
L 444.757625 353.2239 
L 454.077375 353.2239 
L 463.397125 353.2239 
L 472.716875 353.2239 
L 482.036625 353.2239 
L 491.356375 353.2239 
L 500.676125 353.213563 
L 509.995875 353.05334 
L 519.315625 351.709534 
L 528.635375 346.654756 
L 537.955125 328.895844 
L 547.274875 164.951521 
L 556.594625 149.64247 
L 565.914375 323.293207 
L 575.234125 331.934913 
L 584.553875 338.767649 
L 593.873625 350.267527 
L 603.193375 352.639861 
L 612.513125 353.074014 
L 621.832875 353.099856 
L 631.152625 353.192889 
L 640.472375 353.218732 
L 649.792125 353.218732 
L 659.111875 353.2239 
L 668.431625 353.2239 
L 677.751375 353.2239 
L 687.071125 353.2239 
L 696.390875 353.2239 
L 705.710625 353.2239 
L 715.030375 353.2239 
L 724.350125 353.2239 
L 733.669875 353.2239 
L 742.989625 353.2239 
L 752.309375 353.2239 
L 761.629125 353.2239 
L 770.948875 353.2239 
L 780.268625 353.2239 
L 789.588375 353.2239 
L 798.908125 353.2239 
L 808.227875 353.2239 
L 817.547625 353.2239 
L 826.867375 353.2239 
L 836.187125 353.2239 
L 845.506875 353.2239 
L 854.826625 353.2239 
L 864.146375 353.2239 
L 873.466125 353.2239 
L 882.785875 353.2239 
L 892.105625 353.2239 
L 901.425375 353.2239 
L 910.745125 353.2239 
L 920.064875 353.2239 
L 929.384625 353.2239 
L 938.704375 353.2239 
L 948.024125 353.2239 
L 957.343875 353.2239 
L 966.663625 353.2239 
L 975.983375 353.2239 
L 985.303125 353.2239 
" style="fill:none;stroke:#d9534f;stroke-linecap:square;"/>
   </g>
   <g id="line2d_26">
    <path clip-path="url(#pd17b69918f)" d="M 53.328125 353.2239 
L 62.647875 353.2239 
L 71.967625 353.2239 
L 81.287375 353.2239 
L 90.607125 353.2239 
L 99.926875 353.2239 
L 109.246625 353.2239 
L 118.566375 353.2239 
L 127.886125 353.2239 
L 137.205875 353.2239 
L 146.525625 353.2239 
L 155.845375 353.2239 
L 165.165125 353.2239 
L 174.484875 353.2239 
L 183.804625 353.2239 
L 193.124375 353.2239 
L 202.444125 353.2239 
L 211.763875 353.2239 
L 221.083625 353.2239 
L 230.403375 353.2239 
L 239.723125 353.2239 
L 249.042875 353.2239 
L 258.362625 353.2239 
L 267.682375 353.2239 
L 277.002125 353.2239 
L 286.321875 353.2239 
L 295.641625 353.2239 
L 304.961375 353.2239 
L 314.281125 353.2239 
L 323.600875 353.2239 
L 332.920625 353.2239 
L 342.240375 353.2239 
L 351.560125 353.2239 
L 360.879875 353.2239 
L 370.199625 353.2239 
L 379.519375 353.2239 
L 388.839125 353.2239 
L 398.158875 353.2239 
L 407.478625 353.2239 
L 416.798375 353.2239 
L 426.118125 353.2239 
L 435.437875 353.2239 
L 444.757625 353.2239 
L 454.077375 353.2239 
L 463.397125 353.2239 
L 472.716875 353.2239 
L 482.036625 353.218732 
L 491.356375 353.105025 
L 500.676125 352.298741 
L 509.995875 348.779003 
L 519.315625 323.567137 
L 528.635375 316.248563 
L 537.955125 296.809893 
L 547.274875 280.172542 
L 556.594625 281.537022 
L 565.914375 282.612067 
L 575.234125 346.928686 
L 584.553875 351.502795 
L 593.873625 352.448627 
L 603.193375 352.614019 
L 612.513125 352.913791 
L 621.832875 353.136036 
L 631.152625 353.213563 
L 640.472375 353.218732 
L 649.792125 353.2239 
L 659.111875 353.2239 
L 668.431625 353.2239 
L 677.751375 353.2239 
L 687.071125 353.2239 
L 696.390875 353.2239 
L 705.710625 353.2239 
L 715.030375 353.2239 
L 724.350125 353.2239 
L 733.669875 353.2239 
L 742.989625 353.2239 
L 752.309375 353.2239 
L 761.629125 353.2239 
L 770.948875 353.2239 
L 780.268625 353.2239 
L 789.588375 353.2239 
L 798.908125 353.2239 
L 808.227875 353.2239 
L 817.547625 353.2239 
L 826.867375 353.2239 
L 836.187125 353.2239 
L 845.506875 353.2239 
L 854.826625 353.2239 
L 864.146375 353.2239 
L 873.466125 353.2239 
L 882.785875 353.2239 
L 892.105625 353.2239 
L 901.425375 353.2239 
L 910.745125 353.2239 
L 920.064875 353.2239 
L 929.384625 353.2239 
L 938.704375 353.2239 
L 948.024125 353.2239 
L 957.343875 353.2239 
L 966.663625 353.2239 
L 975.983375 353.2239 
L 985.303125 353.2239 
" style="fill:none;stroke:#d9534f;stroke-linecap:square;"/>
   </g>
   <g id="line2d_27">
    <path clip-path="url(#pd17b69918f)" d="M 53.328125 353.2239 
L 985.303125 353.2239 
" style="fill:none;stroke:#dedede;stroke-linecap:square;stroke-width:2;"/>
   </g>
   <g id="text_18">
    <!-- FastQC: Per Sequence GC Content -->
    <g transform="translate(382.679375 19.3575)scale(0.16 -0.16)">
     <defs>
      <path d="M 628 4666 
L 3309 4666 
L 3309 4134 
L 1259 4134 
L 1259 2759 
L 3109 2759 
L 3109 2228 
L 1259 2228 
L 1259 0 
L 628 0 
L 628 4666 
z
" id="DejaVuSans-46" transform="scale(0.015625)"/>
      <path d="M 2194 1759 
Q 1497 1759 1228 1600 
Q 959 1441 959 1056 
Q 959 750 1161 570 
Q 1363 391 1709 391 
Q 2188 391 2477 730 
Q 2766 1069 2766 1631 
L 2766 1759 
L 2194 1759 
z
M 3341 1997 
L 3341 0 
L 2766 0 
L 2766 531 
Q 2569 213 2275 61 
Q 1981 -91 1556 -91 
Q 1019 -91 701 211 
Q 384 513 384 1019 
Q 384 1609 779 1909 
Q 1175 2209 1959 2209 
L 2766 2209 
L 2766 2266 
Q 2766 2663 2505 2880 
Q 2244 3097 1772 3097 
Q 1472 3097 1187 3025 
Q 903 2953 641 2809 
L 641 3341 
Q 956 3463 1253 3523 
Q 1550 3584 1831 3584 
Q 2591 3584 2966 3190 
Q 3341 2797 3341 1997 
z
" id="DejaVuSans-61" transform="scale(0.015625)"/>
      <path d="M 2834 3397 
L 2834 2853 
Q 2591 2978 2328 3040 
Q 2066 3103 1784 3103 
Q 1356 3103 1142 2972 
Q 928 2841 928 2578 
Q 928 2378 1081 2264 
Q 1234 2150 1697 2047 
L 1894 2003 
Q 2506 1872 2764 1633 
Q 3022 1394 3022 966 
Q 3022 478 2636 193 
Q 2250 -91 1575 -91 
Q 1294 -91 989 -36 
Q 684 19 347 128 
L 347 722 
Q 666 556 975 473 
Q 1284 391 1588 391 
Q 1994 391 2212 530 
Q 2431 669 2431 922 
Q 2431 1156 2273 1281 
Q 2116 1406 1581 1522 
L 1381 1569 
Q 847 1681 609 1914 
Q 372 2147 372 2553 
Q 372 3047 722 3315 
Q 1072 3584 1716 3584 
Q 2034 3584 2315 3537 
Q 2597 3491 2834 3397 
z
" id="DejaVuSans-73" transform="scale(0.015625)"/>
      <path d="M 2522 4238 
Q 1834 4238 1429 3725 
Q 1025 3213 1025 2328 
Q 1025 1447 1429 934 
Q 1834 422 2522 422 
Q 3209 422 3611 934 
Q 4013 1447 4013 2328 
Q 4013 3213 3611 3725 
Q 3209 4238 2522 4238 
z
M 3406 84 
L 4238 -825 
L 3475 -825 
L 2784 -78 
Q 2681 -84 2626 -87 
Q 2572 -91 2522 -91 
Q 1538 -91 948 567 
Q 359 1225 359 2328 
Q 359 3434 948 4092 
Q 1538 4750 2522 4750 
Q 3503 4750 4090 4092 
Q 4678 3434 4678 2328 
Q 4678 1516 4351 937 
Q 4025 359 3406 84 
z
" id="DejaVuSans-51" transform="scale(0.015625)"/>
      <path d="M 750 794 
L 1409 794 
L 1409 0 
L 750 0 
L 750 794 
z
M 750 3309 
L 1409 3309 
L 1409 2516 
L 750 2516 
L 750 3309 
z
" id="DejaVuSans-3a" transform="scale(0.015625)"/>
      <path d="M 1259 4147 
L 1259 2394 
L 2053 2394 
Q 2494 2394 2734 2622 
Q 2975 2850 2975 3272 
Q 2975 3691 2734 3919 
Q 2494 4147 2053 4147 
L 1259 4147 
z
M 628 4666 
L 2053 4666 
Q 2838 4666 3239 4311 
Q 3641 3956 3641 3272 
Q 3641 2581 3239 2228 
Q 2838 1875 2053 1875 
L 1259 1875 
L 1259 0 
L 628 0 
L 628 4666 
z
" id="DejaVuSans-50" transform="scale(0.015625)"/>
      <path d="M 3597 1894 
L 3597 1613 
L 953 1613 
Q 991 1019 1311 708 
Q 1631 397 2203 397 
Q 2534 397 2845 478 
Q 3156 559 3463 722 
L 3463 178 
Q 3153 47 2828 -22 
Q 2503 -91 2169 -91 
Q 1331 -91 842 396 
Q 353 884 353 1716 
Q 353 2575 817 3079 
Q 1281 3584 2069 3584 
Q 2775 3584 3186 3129 
Q 3597 2675 3597 1894 
z
M 3022 2063 
Q 3016 2534 2758 2815 
Q 2500 3097 2075 3097 
Q 1594 3097 1305 2825 
Q 1016 2553 972 2059 
L 3022 2063 
z
" id="DejaVuSans-65" transform="scale(0.015625)"/>
      <path d="M 2631 2963 
Q 2534 3019 2420 3045 
Q 2306 3072 2169 3072 
Q 1681 3072 1420 2755 
Q 1159 2438 1159 1844 
L 1159 0 
L 581 0 
L 581 3500 
L 1159 3500 
L 1159 2956 
Q 1341 3275 1631 3429 
Q 1922 3584 2338 3584 
Q 2397 3584 2469 3576 
Q 2541 3569 2628 3553 
L 2631 2963 
z
" id="DejaVuSans-72" transform="scale(0.015625)"/>
      <path d="M 3425 4513 
L 3425 3897 
Q 3066 4069 2747 4153 
Q 2428 4238 2131 4238 
Q 1616 4238 1336 4038 
Q 1056 3838 1056 3469 
Q 1056 3159 1242 3001 
Q 1428 2844 1947 2747 
L 2328 2669 
Q 3034 2534 3370 2195 
Q 3706 1856 3706 1288 
Q 3706 609 3251 259 
Q 2797 -91 1919 -91 
Q 1588 -91 1214 -16 
Q 841 59 441 206 
L 441 856 
Q 825 641 1194 531 
Q 1563 422 1919 422 
Q 2459 422 2753 634 
Q 3047 847 3047 1241 
Q 3047 1584 2836 1778 
Q 2625 1972 2144 2069 
L 1759 2144 
Q 1053 2284 737 2584 
Q 422 2884 422 3419 
Q 422 4038 858 4394 
Q 1294 4750 2059 4750 
Q 2388 4750 2728 4690 
Q 3069 4631 3425 4513 
z
" id="DejaVuSans-53" transform="scale(0.015625)"/>
      <path d="M 947 1747 
Q 947 1113 1208 752 
Q 1469 391 1925 391 
Q 2381 391 2643 752 
Q 2906 1113 2906 1747 
Q 2906 2381 2643 2742 
Q 2381 3103 1925 3103 
Q 1469 3103 1208 2742 
Q 947 2381 947 1747 
z
M 2906 525 
Q 2725 213 2448 61 
Q 2172 -91 1784 -91 
Q 1150 -91 751 415 
Q 353 922 353 1747 
Q 353 2572 751 3078 
Q 1150 3584 1784 3584 
Q 2172 3584 2448 3432 
Q 2725 3281 2906 2969 
L 2906 3500 
L 3481 3500 
L 3481 -1331 
L 2906 -1331 
L 2906 525 
z
" id="DejaVuSans-71" transform="scale(0.015625)"/>
      <path d="M 3122 3366 
L 3122 2828 
Q 2878 2963 2633 3030 
Q 2388 3097 2138 3097 
Q 1578 3097 1268 2742 
Q 959 2388 959 1747 
Q 959 1106 1268 751 
Q 1578 397 2138 397 
Q 2388 397 2633 464 
Q 2878 531 3122 666 
L 3122 134 
Q 2881 22 2623 -34 
Q 2366 -91 2075 -91 
Q 1284 -91 818 406 
Q 353 903 353 1747 
Q 353 2603 823 3093 
Q 1294 3584 2113 3584 
Q 2378 3584 2631 3529 
Q 2884 3475 3122 3366 
z
" id="DejaVuSans-63" transform="scale(0.015625)"/>
     </defs>
     <use xlink:href="#DejaVuSans-46"/>
     <use x="48.394531" xlink:href="#DejaVuSans-61"/>
     <use x="109.673828" xlink:href="#DejaVuSans-73"/>
     <use x="161.773438" xlink:href="#DejaVuSans-74"/>
     <use x="200.982422" xlink:href="#DejaVuSans-51"/>
     <use x="279.693359" xlink:href="#DejaVuSans-43"/>
     <use x="349.517578" xlink:href="#DejaVuSans-3a"/>
     <use x="383.208984" xlink:href="#DejaVuSans-20"/>
     <use x="414.996094" xlink:href="#DejaVuSans-50"/>
     <use x="471.673828" xlink:href="#DejaVuSans-65"/>
     <use x="533.197266" xlink:href="#DejaVuSans-72"/>
     <use x="574.310547" xlink:href="#DejaVuSans-20"/>
     <use x="606.097656" xlink:href="#DejaVuSans-53"/>
     <use x="669.574219" xlink:href="#DejaVuSans-65"/>
     <use x="731.097656" xlink:href="#DejaVuSans-71"/>
     <use x="794.574219" xlink:href="#DejaVuSans-75"/>
     <use x="857.953125" xlink:href="#DejaVuSans-65"/>
     <use x="919.476562" xlink:href="#DejaVuSans-6e"/>
     <use x="982.855469" xlink:href="#DejaVuSans-63"/>
     <use x="1037.835938" xlink:href="#DejaVuSans-65"/>
     <use x="1099.359375" xlink:href="#DejaVuSans-20"/>
     <use x="1131.146484" xlink:href="#DejaVuSans-47"/>
     <use x="1208.636719" xlink:href="#DejaVuSans-43"/>
     <use x="1278.460938" xlink:href="#DejaVuSans-20"/>
     <use x="1310.248047" xlink:href="#DejaVuSans-43"/>
     <use x="1380.072266" xlink:href="#DejaVuSans-6f"/>
     <use x="1441.253906" xlink:href="#DejaVuSans-6e"/>
     <use x="1504.632812" xlink:href="#DejaVuSans-74"/>
     <use x="1543.841797" xlink:href="#DejaVuSans-65"/>
     <use x="1605.365234" xlink:href="#DejaVuSans-6e"/>
     <use x="1668.744141" xlink:href="#DejaVuSans-74"/>
    </g>
   </g>
  </g>
 </g>
 <defs>
  <clipPath id="pd17b69918f">
   <rect height="317.968" width="931.975" x="53.328125" y="35.2559"/>
  </clipPath>
 </defs>
</svg>
